<?xml version="1.0" encoding="utf-8"?>
<!-- Generator: Adobe Illustrator 18.0.0, SVG Export Plug-In . SVG Version: 6.00 Build 0)  -->
<!DOCTYPE svg PUBLIC "-//W3C//DTD SVG 1.1//EN" "http://www.w3.org/Graphics/SVG/1.1/DTD/svg11.dtd">
<svg version="1.1" id="Layer_1" xmlns="http://www.w3.org/2000/svg" xmlns:xlink="http://www.w3.org/1999/xlink" x="0px" y="0px"
	 viewBox="0 0 40 40" enable-background="new 0 0 40 40" xml:space="preserve">
<g>
	<linearGradient id="SVGID_1_" gradientUnits="userSpaceOnUse" x1="20" y1="36.75" x2="20" y2="3.5494">
		<stop  offset="0" style="stop-color:#BF2034"/>
		<stop  offset="0.5" style="stop-color:#F27F30"/>
		<stop  offset="1" style="stop-color:#FFD005"/>
	</linearGradient>
	<path fill="url(#SVGID_1_)" d="M1,20.2c0,10.5,8.5,19,19,19s19-8.5,19-19s-8.5-19-19-19c-0.6,0-1.2,0-1.7,0.1L1,18.5
		C1,19,1,19.6,1,20.2z"/>
	<path fill="#EEEDED" d="M1,18.5L18.3,1.2C17.4,10.4,10.2,17.6,1,18.5z"/>
</g>
<g>
	<path fill="#FFFFFF" d="M6.8,24.4l0.9,0c0,0.5-0.1,0.9-0.3,1.2c-0.2,0.3-0.6,0.5-1,0.7c-0.6,0.2-1.1,0.1-1.6-0.1
		c-0.5-0.3-0.8-0.7-1-1.4c-0.2-0.7-0.2-1.3,0-1.8C4,22.5,4.4,22.2,5,22c0.5-0.2,1-0.1,1.4,0.1c0.2,0.1,0.5,0.3,0.7,0.6l-0.8,0.5
		C6.2,23,6,22.8,5.8,22.7c-0.2-0.1-0.4-0.1-0.6,0c-0.3,0.1-0.5,0.3-0.7,0.6S4.5,24,4.6,24.5c0.2,0.5,0.4,0.9,0.6,1s0.5,0.2,0.9,0.1
		c0.2-0.1,0.4-0.2,0.5-0.4C6.7,25,6.8,24.8,6.8,24.4z"/>
	<path fill="#FFFFFF" d="M8.8,25.5l-1.3-4.2L8.3,21l0.5,1.7l1.7-0.5L10,20.5l0.8-0.3l1.3,4.2l-0.8,0.3l-0.6-1.8l-1.7,0.5l0.6,1.8
		L8.8,25.5z"/>
	<path fill="#FFFFFF" d="M13,24.2L11.7,20l3.1-1l0.2,0.7l-2.3,0.7l0.3,0.9l2.1-0.7l0.2,0.7L13.3,22l0.4,1.1l2.3-0.7l0.2,0.7L13,24.2
		z"/>
	<path fill="#FFFFFF" d="M20.7,21.7L19.8,22l-0.7-0.8l-1.7,0.5l0,1.1l-0.9,0.3l0.3-4.7l0.9-0.3L20.7,21.7z M18.6,20.6l-1.1-1.4
		l-0.1,1.7L18.6,20.6z"/>
	<path fill="#FFFFFF" d="M21.2,21.6l-1.3-4.2l1.4-0.4c0.5-0.2,0.9-0.2,1-0.3c0.3,0,0.5,0.1,0.7,0.2c0.2,0.2,0.4,0.4,0.5,0.7
		c0.1,0.3,0.1,0.5,0.1,0.7c0,0.2-0.1,0.4-0.2,0.5c-0.1,0.1-0.2,0.3-0.4,0.3c-0.2,0.1-0.5,0.2-0.9,0.3l-0.6,0.2l0.5,1.6L21.2,21.6z
		 M20.9,17.8l0.4,1.2l0.5-0.1c0.3-0.1,0.6-0.2,0.6-0.3c0.1-0.1,0.2-0.2,0.2-0.3c0-0.1,0-0.2,0-0.4c0-0.2-0.1-0.3-0.3-0.3
		c-0.1-0.1-0.3-0.1-0.4-0.1c-0.1,0-0.3,0.1-0.6,0.2L20.9,17.8z"/>
	<path fill="#FFFFFF" d="M25.1,20.4l-1.3-4.2l3.1-1l0.2,0.7l-2.3,0.7l0.3,0.9l2.1-0.7l0.2,0.7l-2.1,0.7l0.4,1.1l2.3-0.7l0.2,0.7
		L25.1,20.4z"/>
	<path fill="#FFFFFF" d="M28.3,17.8l0.8-0.3c0.1,0.3,0.3,0.4,0.5,0.5c0.2,0.1,0.4,0.1,0.7,0c0.3-0.1,0.5-0.2,0.6-0.4
		c0.1-0.2,0.1-0.3,0.1-0.5c0-0.1-0.1-0.2-0.2-0.2c-0.1-0.1-0.2-0.1-0.4-0.1c-0.1,0-0.4,0-0.7,0c-0.5,0-0.9,0-1.1-0.1
		c-0.3-0.1-0.5-0.4-0.7-0.7c-0.1-0.2-0.1-0.4,0-0.7c0.1-0.2,0.2-0.4,0.4-0.6c0.2-0.2,0.5-0.3,0.8-0.4c0.5-0.2,1-0.2,1.3,0
		c0.3,0.1,0.6,0.4,0.7,0.8l-0.8,0.3c-0.1-0.2-0.2-0.3-0.4-0.4c-0.1-0.1-0.3,0-0.6,0c-0.2,0.1-0.4,0.2-0.5,0.3
		c-0.1,0.1-0.1,0.2-0.1,0.3c0,0.1,0.1,0.2,0.2,0.2c0.1,0.1,0.4,0.1,0.9,0c0.4,0,0.8,0,1,0c0.2,0,0.4,0.1,0.6,0.3
		c0.2,0.1,0.3,0.4,0.4,0.6c0.1,0.2,0.1,0.5,0,0.7c-0.1,0.3-0.2,0.5-0.4,0.6c-0.2,0.2-0.5,0.3-0.9,0.4c-0.5,0.2-1,0.2-1.3,0
		C28.8,18.6,28.6,18.3,28.3,17.8z"/>
	<path fill="#FFFFFF" d="M33.9,17.6l-1.1-3.5l-1.2,0.4l-0.2-0.7l3.3-1.1l0.2,0.7l-1.2,0.4l1.1,3.5L33.9,17.6z"/>
	<path fill="#FFFFFF" d="M13.1,30.6L12,27.1l-1.2,0.4l-0.2-0.7l3.3-1.1l0.2,0.7l-1.2,0.4l1.1,3.5L13.1,30.6z"/>
	<path fill="#FFFFFF" d="M19.1,28.7L18.2,29l-0.7-0.8l-1.7,0.5l0,1.1L14.9,30l0.3-4.7l0.9-0.3L19.1,28.7z M17,27.5l-1.1-1.4
		l-0.1,1.7L17,27.5z"/>
	<path fill="#FFFFFF" d="M19.6,28.6l-1.3-4.2l1.8-0.6c0.4-0.1,0.8-0.2,1-0.2c0.2,0,0.4,0.1,0.6,0.2c0.2,0.2,0.3,0.4,0.4,0.6
		c0.1,0.3,0.1,0.6,0,0.9c-0.1,0.3-0.4,0.5-0.7,0.7c0.2,0,0.4,0.1,0.6,0.2s0.4,0.3,0.7,0.5l0.8,0.7l-1,0.3L21.4,27
		c-0.3-0.3-0.5-0.4-0.6-0.5c-0.1-0.1-0.2-0.1-0.3-0.1c-0.1,0-0.2,0-0.4,0.1l-0.2,0.1l0.6,1.8L19.6,28.6z M19.6,25.9l0.6-0.2
		c0.4-0.1,0.7-0.2,0.7-0.3c0.1-0.1,0.2-0.2,0.2-0.3s0-0.2,0-0.3c0-0.1-0.1-0.2-0.2-0.3c-0.1-0.1-0.2-0.1-0.4-0.1
		c-0.1,0-0.3,0.1-0.6,0.2l-0.7,0.2L19.6,25.9z"/>
	<path fill="#FFFFFF" d="M23.8,27.2L22.4,23l0.8-0.3l1.3,4.2L23.8,27.2z"/>
	<path fill="#FFFFFF" d="M25.4,26.7l-1.3-4.2l2.9-0.9l0.2,0.7l-2,0.6l0.3,1l1.8-0.6l0.2,0.7l-1.8,0.6l0.6,1.8L25.4,26.7z"/>
	<path fill="#FFFFFF" d="M29,25.6l-1.3-4.2l2.9-0.9l0.2,0.7l-2,0.6l0.3,1l1.8-0.6L31,23l-1.8,0.6l0.6,1.8L29,25.6z"/>
</g>
</svg>
