<?xml version="1.0" encoding="utf-8"?>
<!-- Generator: Adobe Illustrator 18.0.0, SVG Export Plug-In . SVG Version: 6.00 Build 0)  -->
<!DOCTYPE svg PUBLIC "-//W3C//DTD SVG 1.1//EN" "http://www.w3.org/Graphics/SVG/1.1/DTD/svg11.dtd">
<svg version="1.1" id="Layer_1" xmlns="http://www.w3.org/2000/svg" xmlns:xlink="http://www.w3.org/1999/xlink" x="0px" y="0px"
	 viewBox="0 0 150 150" enable-background="new 0 0 150 150" xml:space="preserve">
<ellipse fill="#DBDBDB" cx="75" cy="75.5" rx="64" ry="62.5"/>
<path fill="#B3B3B3" d="M107,103.3H89.1c-1,0-1.9,0.8-1.9,1.9c0,1,0.8,1.9,1.9,1.9H107c1,0,1.9-0.8,1.9-1.9
	C108.9,104.1,108,103.3,107,103.3z M93,110c0,0.1,0,0.2,0,0.4c0,1.6,1.3,2.9,2.9,2.9h4.4c1.6,0,2.9-1.3,2.9-2.9c0-0.1,0-0.3,0-0.4
	H93z M89.3,90.8h18.2c0,0,1.2-0.1,1.2-1.5c0.7-13.6,12.4-25.9,12.4-36.4c0-12.7-10.3-23-23-23c-12.7,0-23,10.3-23,23
	c0,10.8,12,24.7,13,36.5C88.1,90.8,89.3,90.8,89.3,90.8z M107,96H89.1c-1,0-1.9,0.8-1.9,1.9c0,1,0.8,1.9,1.9,1.9H107
	c1,0,1.9-0.8,1.9-1.9C108.9,96.9,108,96,107,96z M59,50.4c-5.8-9-5.4-19.6-5.4-19.6s-8.3,9.7-17,21.1c-8.3,11-13.2,23.2-13.2,33.8
	c0,36.8,51.6,36.8,51.6,0C75,74.8,66,61.3,59,50.4z M49.2,107.2c-7.4,0-14.7-5.2-14.7-15.7c0-6.2,5.2-13.9,9.2-20.1
	c3.3-5.1,3.1-11.2,3.1-11.2s4.7,5.5,9.7,12.1c4.8,6.3,7.5,13.2,7.5,19.3C63.9,102,56.6,107.2,49.2,107.2z M50.7,77.3
	c0,0-2.8,3.2-5.7,7.1c-2.8,3.7-4.4,7.8-4.4,11.4c0,12.4,17.4,12.4,17.4,0c0-3.7-3.1-8.2-5.4-11.9C50.6,80.9,50.7,77.3,50.7,77.3z"/>
</svg>
