<?xml version="1.0" encoding="utf-8"?>
<!-- Generator: Adobe Illustrator 18.0.0, SVG Export Plug-In . SVG Version: 6.00 Build 0)  -->
<!DOCTYPE svg PUBLIC "-//W3C//DTD SVG 1.1//EN" "http://www.w3.org/Graphics/SVG/1.1/DTD/svg11.dtd">
<svg version="1.1" id="Layer_1" xmlns="http://www.w3.org/2000/svg" xmlns:xlink="http://www.w3.org/1999/xlink" x="0px" y="0px"
	 viewBox="0 0 150 150" enable-background="new 0 0 150 150" xml:space="preserve">
<ellipse fill="#DBDBDB" cx="75" cy="75.5" rx="64" ry="62.5"/>
<path fill="#B3B3B3" d="M84.9,106.2H67.1c-1,0-1.9,0.8-1.9,1.9c0,1,0.8,1.9,1.9,1.9H85c1,0,1.9-0.8,1.9-1.9
	C86.8,107.1,86,106.2,84.9,106.2z M71,113c0,0.1,0,0.2,0,0.4c0,1.6,1.3,2.9,2.9,2.9h4.4c1.6,0,2.9-1.3,2.9-2.9c0-0.1,0-0.3,0-0.4H71
	z M67.3,93.7h18.2c0,0,1.2-0.1,1.2-1.5C87.4,78.6,99,66.4,99,55.8c0-12.7-10.3-23-23-23s-23,10.3-23,23c0,10.8,12,24.7,13,36.5
	C66.1,93.8,67.3,93.7,67.3,93.7z M84.9,99H67.1c-1,0-1.9,0.8-1.9,1.9c0,1,0.8,1.9,1.9,1.9H85c1,0,1.9-0.8,1.9-1.9
	C86.8,99.8,86,99,84.9,99z"/>
</svg>
