<?xml version="1.0" encoding="utf-8"?>
<!-- Generator: Adobe Illustrator 18.0.0, SVG Export Plug-In . SVG Version: 6.00 Build 0)  -->
<!DOCTYPE svg PUBLIC "-//W3C//DTD SVG 1.1//EN" "http://www.w3.org/Graphics/SVG/1.1/DTD/svg11.dtd">
<svg version="1.1" id="Layer_2" xmlns="http://www.w3.org/2000/svg" xmlns:xlink="http://www.w3.org/1999/xlink" x="0px" y="0px"
	 width="28.9px" height="51.4px" viewBox="0 0 28.9 51.4" enable-background="new 0 0 28.9 51.4" xml:space="preserve">
<g>
	<path fill="#00AAEB" d="M5.7,10.2c-1,0-1.9-0.6-2.2-1.6C3,7.3,3.7,6,4.9,5.5l10.6-3.8c1.2-0.4,2.6,0.2,3.1,1.4
		c0.4,1.2-0.2,2.6-1.4,3.1L6.5,10C6.2,10.1,6,10.2,5.7,10.2z"/>
	<path fill="#00AAEB" d="M3.9,17.9c-1,0-1.9-0.6-2.2-1.6c-0.4-1.2,0.2-2.6,1.4-3.1l21.2-7.6c1.2-0.4,2.6,0.2,3.1,1.4
		c0.4,1.2-0.2,2.6-1.4,3.1L4.7,17.8C4.4,17.9,4.1,17.9,3.9,17.9z"/>
	<path fill="#00AAEB" d="M10.2,28.3c-1.1,0-2-0.7-2.3-1.8c-0.1-0.4-2.1-1.3-4.2-1.4c-1.1-0.1-2-0.9-2.2-2.1
		c-0.2-1.1,0.5-2.2,1.6-2.6l21.2-7.6c1.2-0.4,2.6,0.2,3.1,1.4c0.4,1.2-0.2,2.6-1.4,3.1l-15,5.4c0.8,0.7,1.4,1.5,1.7,2.7
		c0.3,1.3-0.5,2.6-1.7,2.9C10.6,28.3,10.4,28.3,10.2,28.3z"/>
	<path fill="#00AAEB" d="M18.7,28.3c-0.2,0-0.4,0-0.6-0.1c-1.3-0.3-2.1-1.6-1.7-2.9c1.1-4.3,7.3-5,8.5-5c1.3-0.1,2.5,0.9,2.5,2.2
		c0.1,1.3-0.9,2.5-2.2,2.5c-2.1,0.2-4.1,1-4.2,1.4C20.7,27.6,19.7,28.3,18.7,28.3z"/>
	<path fill="#00AAEB" d="M19.4,49.7h-9c-1.4,0-2.3-0.9-2.3-2.4v-3.7l-4.2-4c-0.3-0.3-1-1-1-1.9v-5.2C3,31.1,4.2,30,5.7,30h18.5
		c1.5,0,2.6,1.1,2.6,2.5v5.2c0,0.9-0.6,1.6-1,1.9l-4.2,4v3.7C21.7,49.5,20.1,49.7,19.4,49.7z M10.3,47.6
		C10.4,47.6,10.4,47.6,10.3,47.6l9.1,0c0,0,0,0,0.1,0c0-0.1,0-0.1,0-0.3v-4.1c0-0.3,0.1-0.6,0.3-0.8l4.5-4.3
		c0.2-0.2,0.3-0.4,0.3-0.4l0-5.1c0-0.3-0.2-0.4-0.5-0.4H5.7c-0.1,0-0.5,0-0.5,0.4v5.2c0,0,0.1,0.1,0.3,0.4l4.5,4.3
		c0.2,0.2,0.3,0.5,0.3,0.8v4.1C10.3,47.4,10.3,47.5,10.3,47.6C10.3,47.6,10.3,47.6,10.3,47.6z"/>
</g>
</svg>
