<?xml version="1.0" encoding="utf-8"?>
<!-- Generator: Adobe Illustrator 18.0.0, SVG Export Plug-In . SVG Version: 6.00 Build 0)  -->
<!DOCTYPE svg PUBLIC "-//W3C//DTD SVG 1.1//EN" "http://www.w3.org/Graphics/SVG/1.1/DTD/svg11.dtd">
<svg version="1.1" id="Layer_1" xmlns="http://www.w3.org/2000/svg" xmlns:xlink="http://www.w3.org/1999/xlink" x="0px" y="0px"
	 viewBox="0 0 100 100" enable-background="new 0 0 100 100" xml:space="preserve">
<linearGradient id="SVGID_1_" gradientUnits="userSpaceOnUse" x1="49.062" y1="91.229" x2="49.062" y2="7.7935">
	<stop  offset="0" style="stop-color:#C11933"/>
	<stop  offset="0.5" style="stop-color:#F57F32"/>
	<stop  offset="1" style="stop-color:#FFD100"/>
</linearGradient>
<path fill="url(#SVGID_1_)" d="M58,81.3H40.1c-1,0-1.9,0.8-1.9,1.9c0,1,0.8,1.9,1.9,1.9H58c1,0,1.9-0.8,1.9-1.9
	C59.9,82.1,59,81.3,58,81.3z M44,88c0,0.1,0,0.2,0,0.4c0,1.6,1.3,2.9,2.9,2.9h4.4c1.6,0,2.9-1.3,2.9-2.9c0-0.1,0-0.3,0-0.4H44z
	 M40.3,68.8h18.2c0,0,1.2-0.1,1.2-1.5c0.7-13.6,12.4-25.9,12.4-36.4c0-12.7-10.3-23-23-23c-12.7,0-23,10.3-23,23
	c0,10.8,12,24.7,13,36.5C39.1,68.8,40.3,68.8,40.3,68.8z M58,74H40.1c-1,0-1.9,0.8-1.9,1.9c0,1,0.8,1.9,1.9,1.9H58
	c1,0,1.9-0.8,1.9-1.9C59.9,74.9,59,74,58,74z"/>
</svg>
