<?xml version="1.0" encoding="utf-8"?>
<!-- Generator: Adobe Illustrator 18.0.0, SVG Export Plug-In . SVG Version: 6.00 Build 0)  -->
<!DOCTYPE svg PUBLIC "-//W3C//DTD SVG 1.1//EN" "http://www.w3.org/Graphics/SVG/1.1/DTD/svg11.dtd">
<svg version="1.1" id="Layer_1" xmlns="http://www.w3.org/2000/svg" xmlns:xlink="http://www.w3.org/1999/xlink" x="0px" y="0px"
	 viewBox="0 0 100 100" enable-background="new 0 0 100 100" xml:space="preserve">
<linearGradient id="SVGID_1_" gradientUnits="userSpaceOnUse" x1="49.7285" y1="89.7259" x2="49.7285" y2="7.2193">
	<stop  offset="0" style="stop-color:#C11933"/>
	<stop  offset="0.5" style="stop-color:#F57F32"/>
	<stop  offset="1" style="stop-color:#FFD100"/>
</linearGradient>
<path fill="url(#SVGID_1_)" d="M59.5,26.9c-5.8-9-5.4-19.6-5.4-19.6s-8.3,9.7-17,21.1c-8.3,11-13.2,23.2-13.2,33.8
	c0,36.8,51.6,36.8,51.6,0C75.5,51.3,66.5,37.8,59.5,26.9z M49.7,83.7C42.4,83.7,35,78.5,35,68c0-6.2,5.2-13.9,9.2-20.1
	c3.3-5.1,3.1-11.2,3.1-11.2s4.7,5.5,9.7,12.1C61.7,55,64.4,62,64.4,68C64.4,78.5,57.1,83.7,49.7,83.7z M51.2,53.8
	c0,0-2.8,3.2-5.7,7.1c-2.8,3.7-4.4,7.8-4.4,11.4c0,12.4,17.4,12.4,17.4,0c0-3.7-3.1-8.2-5.4-11.9C51.1,57.4,51.2,53.8,51.2,53.8z"/>
</svg>
