<?xml version="1.0" encoding="utf-8"?>
<!-- Generator: Adobe Illustrator 18.0.0, SVG Export Plug-In . SVG Version: 6.00 Build 0)  -->
<!DOCTYPE svg PUBLIC "-//W3C//DTD SVG 1.1//EN" "http://www.w3.org/Graphics/SVG/1.1/DTD/svg11.dtd">
<svg version="1.1" id="Layer_1" xmlns="http://www.w3.org/2000/svg" xmlns:xlink="http://www.w3.org/1999/xlink" x="0px" y="0px"
	 viewBox="0 0 150 150" enable-background="new 0 0 150 150" xml:space="preserve">
<ellipse fill="#DBDBDB" cx="75" cy="75.5" rx="64" ry="62.5"/>
<path fill="#999999" d="M85.5,48.9c-5.8-9-5.4-19.6-5.4-19.6s-8.3,9.7-17,21.1c-8.3,11-13.2,23.2-13.2,33.8c0,36.8,51.6,36.8,51.6,0
	C101.5,73.3,92.5,59.8,85.5,48.9z M75.7,105.7c-7.4,0-14.7-5.2-14.7-15.7c0-6.2,5.2-13.9,9.2-20.1c3.3-5.1,3.1-11.2,3.1-11.2
	s4.7,5.5,9.7,12.1C87.7,77,90.4,84,90.4,90C90.4,100.5,83.1,105.7,75.7,105.7z M77.2,75.8c0,0-2.8,3.2-5.7,7.1
	c-2.8,3.7-4.4,7.8-4.4,11.4c0,12.4,17.4,12.4,17.4,0c0-3.7-3.1-8.2-5.4-11.9C77.1,79.4,77.2,75.8,77.2,75.8z"/>
</svg>
