<?xml version="1.0" encoding="utf-8"?>
<!-- Generator: Adobe Illustrator 18.0.0, SVG Export Plug-In . SVG Version: 6.00 Build 0)  -->
<!DOCTYPE svg PUBLIC "-//W3C//DTD SVG 1.1//EN" "http://www.w3.org/Graphics/SVG/1.1/DTD/svg11.dtd">
<svg version="1.1" id="Layer_2" xmlns="http://www.w3.org/2000/svg" xmlns:xlink="http://www.w3.org/1999/xlink" x="0px" y="0px"
	 width="74.8px" height="51.4px" viewBox="0 0 74.8 51.4" enable-background="new 0 0 74.8 51.4" xml:space="preserve">
<g>
	<path fill="#00AAEB" d="M34.9,47.9c-0.3,0-0.6-0.1-0.9-0.4c-0.4-0.5-0.3-1.1,0.2-1.5c7.3-5.4,8.3-13.7,2.9-23.9
		c-0.4,1.2-1,2.7-2.2,4.2c-0.3,0.4-0.7,0.5-1.2,0.4c-0.4-0.1-0.7-0.5-0.7-1c0-0.5-0.6-12.9-16.3-21c0.9,3.8,1.6,11.2-4.3,17.4
		c-0.3,0.3-0.7,0.4-1.1,0.3c-0.4-0.1-0.7-0.5-0.7-0.9l-0.3-1.9c-2.5,3.8-7.4,12-6.6,19c0.4,3,1.8,5.5,4.2,7.4c0.5,0.4,0.5,1,0.2,1.5
		c-0.4,0.5-1,0.5-1.5,0.2c-2.9-2.3-4.6-5.3-5-8.9c-1.2-10.3,8.1-22.1,8.5-22.6c0.3-0.3,0.7-0.5,1.1-0.4c0.4,0.1,0.7,0.4,0.8,0.9
		l0.3,2.1c5-7.2,1.7-15.7,1.6-15.8c-0.2-0.4-0.1-0.9,0.2-1.2c0.3-0.3,0.8-0.4,1.2-0.2c14,6.3,18.1,15.9,19.2,20.8
		c0.9-2,0.8-3.4,0.8-3.5c0-0.5,0.3-0.9,0.8-1.1c0.5-0.1,1,0.1,1.2,0.5c9.6,15.8,4.2,24.6-2,29.3C35.3,47.8,35.1,47.9,34.9,47.9z"/>
	<path fill="#00AAEB" d="M51.6,10.2c-1,0-1.9-0.6-2.2-1.6c-0.4-1.2,0.2-2.6,1.4-3.1l10.6-3.8c1.2-0.4,2.6,0.2,3.1,1.4
		c0.4,1.2-0.2,2.6-1.4,3.1L52.4,10C52.1,10.1,51.8,10.2,51.6,10.2z"/>
	<path fill="#00AAEB" d="M49.7,17.9c-1,0-1.9-0.6-2.2-1.6c-0.4-1.2,0.2-2.6,1.4-3.1l21.2-7.6c1.2-0.4,2.6,0.2,3.1,1.4
		c0.4,1.2-0.2,2.6-1.4,3.1l-21.2,7.6C50.3,17.9,50,17.9,49.7,17.9z"/>
	<path fill="#00AAEB" d="M56.1,28.3c-1.1,0-2-0.7-2.3-1.8c-0.1-0.4-2.1-1.3-4.2-1.4c-1.1-0.1-2-0.9-2.2-2.1
		c-0.2-1.1,0.5-2.2,1.6-2.6l21.2-7.6c1.2-0.4,2.6,0.2,3.1,1.4c0.4,1.2-0.2,2.6-1.4,3.1l-15,5.4c0.8,0.7,1.4,1.5,1.7,2.7
		c0.3,1.3-0.5,2.6-1.7,2.9C56.5,28.3,56.3,28.3,56.1,28.3z"/>
	<path fill="#00AAEB" d="M64.5,28.3c-0.2,0-0.4,0-0.6-0.1c-1.3-0.3-2.1-1.6-1.7-2.9c1.1-4.3,7.3-5,8.5-5c1.3-0.1,2.5,0.9,2.5,2.2
		c0.1,1.3-0.9,2.5-2.2,2.5c-2.1,0.2-4.1,1-4.2,1.4C66.6,27.6,65.6,28.3,64.5,28.3z"/>
	<path fill="#00AAEB" d="M65.3,49.7h-9c-1.4,0-2.3-0.9-2.3-2.4v-3.7l-4.2-4c-0.3-0.3-1-1-1-1.9v-5.2c0-1.4,1.1-2.5,2.7-2.5h18.5
		c1.5,0,2.6,1.1,2.6,2.5v5.2c0,0.9-0.6,1.6-1,1.9l-4.2,4v3.7C67.5,49.5,66,49.7,65.3,49.7z M56.2,47.6
		C56.2,47.6,56.3,47.6,56.2,47.6l9.1,0c0,0,0,0,0.1,0c0-0.1,0-0.1,0-0.3v-4.1c0-0.3,0.1-0.6,0.3-0.8l4.5-4.3
		c0.2-0.2,0.3-0.4,0.3-0.4l0-5.1c0-0.3-0.2-0.4-0.5-0.4H51.5c-0.1,0-0.5,0-0.5,0.4v5.2c0,0,0.1,0.1,0.3,0.4l4.5,4.3
		c0.2,0.2,0.3,0.5,0.3,0.8v4.1C56.2,47.4,56.2,47.5,56.2,47.6C56.2,47.6,56.2,47.6,56.2,47.6z"/>
	<path fill="#00AAEB" d="M26.6,48.7c11.3-9.4-3-28.3-3-28.3s-1.3,15.1-5.5,6.5C6.1,43.1,17,48.7,17,48.7S22,52.5,26.6,48.7z"/>
</g>
</svg>
