<?xml version="1.0" encoding="utf-8"?>
<!-- Generator: Adobe Illustrator 18.0.0, SVG Export Plug-In . SVG Version: 6.00 Build 0)  -->
<!DOCTYPE svg PUBLIC "-//W3C//DTD SVG 1.1//EN" "http://www.w3.org/Graphics/SVG/1.1/DTD/svg11.dtd">
<svg version="1.1" id="Elec_blue" xmlns="http://www.w3.org/2000/svg" xmlns:xlink="http://www.w3.org/1999/xlink" x="0px" y="0px"
	 viewBox="0 0 111.3 111.3" enable-background="new 0 0 111.3 111.3" xml:space="preserve">
<g>
	<path fill="#00AAED" d="M37.9,25c-2,0-3.9-1.2-4.6-3.2c-0.9-2.5,0.4-5.3,2.9-6.2l21.5-7.8c2.5-0.9,5.3,0.4,6.2,2.9
		c0.9,2.5-0.4,5.3-2.9,6.2l-21.5,7.8C39,25,38.4,25,37.9,25z"/>
	<path fill="#00AAED" d="M34.1,40.9c-2,0-3.9-1.2-4.6-3.2c-0.9-2.5,0.4-5.3,2.9-6.2l43.1-15.5c2.5-0.9,5.3,0.4,6.2,2.9
		c0.9,2.5-0.4,5.3-2.9,6.2L35.8,40.6C35.2,40.8,34.7,40.9,34.1,40.9z"/>
	<path fill="#00AAED" d="M47.1,62.1c-2.2,0-4.2-1.5-4.7-3.7c-0.2-0.9-4.2-2.6-8.6-2.9c-2.3-0.2-4.2-1.9-4.5-4.2
		c-0.3-2.3,1-4.5,3.2-5.2l43.1-15.5c2.5-0.9,5.3,0.4,6.2,2.9c0.9,2.5-0.4,5.3-2.9,6.2l-30.5,11c1.6,1.4,2.8,3.1,3.4,5.4
		c0.7,2.6-0.9,5.2-3.5,5.9C47.9,62,47.5,62.1,47.1,62.1z"/>
	<path fill="#00AAED" d="M64.3,62.1c-0.4,0-0.8,0-1.2-0.1c-2.6-0.7-4.2-3.3-3.5-5.9c2.2-8.8,14.8-10.1,17.3-10.3
		c2.7-0.2,5,1.8,5.2,4.5c0.2,2.7-1.8,5-4.5,5.2c-4.3,0.3-8.3,2-8.6,2.9C68.4,60.6,66.4,62.1,64.3,62.1z"/>
	
		<path fill="none" stroke="#00AAED" stroke-width="4.1956" stroke-linecap="round" stroke-linejoin="round" stroke-miterlimit="10" d="
		M75.5,67.7h-9.7h-8.6h-1.1h-8.6h-9.7c-1.8,0-3.2,1.2-3.2,2.9v10.5c0,0.9,0.7,1.7,1.3,2.3l9.2,8.8v8.4c0,1.8,0.7,2.8,2.4,2.8h18.3
		c1.8,0,2.3-1,2.3-2.8v-8.4l9.2-8.8c0.6-0.6,1.3-1.4,1.3-2.3V70.6C78.6,68.9,77.3,67.7,75.5,67.7z"/>
</g>
</svg>
