<?xml version="1.0" encoding="utf-8"?>
<!-- Generator: Adobe Illustrator 18.0.0, SVG Export Plug-In . SVG Version: 6.00 Build 0)  -->
<!DOCTYPE svg PUBLIC "-//W3C//DTD SVG 1.1//EN" "http://www.w3.org/Graphics/SVG/1.1/DTD/svg11.dtd">
<svg version="1.1" id="Layer_1" xmlns="http://www.w3.org/2000/svg" xmlns:xlink="http://www.w3.org/1999/xlink" x="0px" y="0px"
	 viewBox="0 0 250 85" enable-background="new 0 0 250 85" xml:space="preserve">
<g enable-background="new    ">
	<g>
		<g>
			<defs>
				<path id="SVGID_1_" d="M146.2,2.6C146.1,2.6,146.1,2.6,146.2,2.6l4.2,29.8l0.1,1L138.9,2.7c0,0,0,0-0.1,0c0,0,0,0,0,0.1
					l10.5,27.9l-11-26.5c0,0,0,0-0.1,0c0,0,0,0,0,0.1l9.5,22.8l-9.8-22.6c0,0,0,0-0.1,0c0,0,0,0,0,0.1l11.8,27.1l-7.8-15.9
					c0,0,0,0-0.1,0c0,0,0,0.1,0,0.1l7.2,14.7l-8.2-15.5c0,0,0,0-0.1,0c0,0,0,0,0,0.1l7.9,14.9l-7.7-13.7c0,0-0.1,0-0.1,0
					c0,0,0,0.1,0,0.1l9.1,16.2l-10.1-15.6c0,0-0.1,0-0.1,0c0,0,0,0.1,0,0.1l7,10.7L139.3,17c0,0-0.1,0-0.1,0c0,0,0,0.1,0,0.1
					l8.7,12.9l-11.7-16.5c0,0-0.1,0-0.1,0c0,0,0,0.1,0,0.1L149,31.7L137.6,17c0,0-0.1,0-0.1,0c0,0,0,0.1,0,0.1l12.1,15.6L137,18.8
					c0,0-0.1,0-0.1,0c0,0,0,0.1,0,0.1l12.8,14l-13-11.8c0,0-0.1,0-0.1,0c0,0,0,0.1,0,0.1l13.2,12l-0.3-0.3l-12-9.1c0,0-0.1,0-0.1,0
					c0,0,0,0,0,0l-11.9-8.9c0,0-0.1,0-0.1,0c0,0,0,0.1,0,0.1l24,18l0.8,0.6l-29.9-13.5c0,0-0.1,0-0.1,0c0,0,0,0.1,0,0.1l27.2,12.3
					l-26.5-10.9c0,0-0.1,0-0.1,0c0,0,0,0.1,0,0.1l22.8,9.4l-22.9-9c0,0-0.1,0-0.1,0c0,0,0,0.1,0,0.1l27.5,10.9l-16.7-5.8
					c0,0-0.1,0-0.1,0c0,0,0,0.1,0,0.1l15.5,5.3l-16.7-5.2c0,0-0.1,0-0.1,0c0,0,0,0.1,0,0.1l16.1,5l-15.1-4.3c0,0-0.1,0-0.1,0
					c0,0,0,0.1,0,0.1l17.9,5.1l-18.2-3.8c0,0-0.1,0-0.1,0c0,0,0,0.1,0,0.1l12.6,2.7l-12.6-2.5c0,0-0.1,0-0.1,0c0,0,0,0.1,0,0.1
					l15.3,3l-19.9-3.4c0,0-0.1,0-0.1,0c0,0,0,0.1,0,0.1v0l21.9,3.7l-18.4-2.3c0,0-0.1,0-0.1,0c0,0,0,0.1,0,0.1l0,0l19.6,2.5
					l-18.8-0.8c0,0-0.1,0-0.1,0.1c0,0,0,0.1,0,0.1h0l18.9,0.9l-17.5,0.8c0,0-0.1,0-0.1,0.1c0,0,0,0.1,0,0.1c0,0,0,0,0,0l17.8-0.9
					l-0.4,0.1l-14.9,2c0,0-0.1,0,0,0.1c0,0,0,0,0,0l-14.8,2.1c0,0-0.1,0,0,0.1c0,0,0,0,0,0c0,0,0,0,0,0l29.7-4.2l1-0.1l-30.7,11.6
					c0,0,0,0,0,0.1c0,0,0,0,0,0c0,0,0,0,0,0l27.9-10.5l-26.5,11c0,0,0,0,0,0.1c0,0,0,0,0,0c0,0,0,0,0,0l22.8-9.5L121,46.7
					c0,0,0,0,0,0.1c0,0,0,0,0,0c0,0,0,0,0,0L148.2,35l-15.9,7.8c0,0,0,0.1,0,0.1c0,0,0,0,0,0c0,0,0,0,0,0l14.7-7.2l-15.5,8.2
					c0,0,0,0.1,0,0.1c0,0,0,0,0,0c0,0,0,0,0,0l14.9-7.8l-13.7,7.7c0,0,0,0.1,0,0.1c0,0,0,0,0,0c0,0,0,0,0,0l16.2-9.1l-15.6,10.1
					c0,0,0,0.1,0,0.1c0,0,0,0,0,0c0,0,0,0,0,0l14.6-9.5l-17.9,12.7c0,0,0,0.1,0,0.1c0,0,0,0,0,0c0,0,0,0,0,0l19.8-14.1l-12.3,13.5
					c0,0,0,0.1,0,0.1c0,0,0,0,0,0c0,0,0,0,0.1,0l12-13.2l-0.2,0.3l-9.1,12c0,0,0,0.1,0,0.1c0,0,0,0,0,0c0,0,0,0,0,0l-8.9,11.9
					c0,0,0,0.1,0,0.1c0,0,0,0,0,0c0,0,0,0,0.1,0l18-24l0.6-0.7l-13.5,29.9c0,0,0,0.1,0,0.1c0,0,0,0,0,0c0,0,0.1,0,0.1,0l12.3-27.2
					l-10.9,26.6c0,0,0,0.1,0,0.1c0,0,0,0,0,0c0,0,0.1,0,0.1,0l9.4-22.8l-9,22.9c0,0,0,0.1,0,0.1c0,0,0,0,0,0c0,0,0.1,0,0.1,0
					l10.9-27.5L144,53c0,0,0,0.1,0,0.1c0,0,0,0,0,0c0,0,0.1,0,0.1,0l5.3-15.5l-5.2,16.7c0,0,0,0.1,0,0.1c0,0,0,0,0,0
					c0,0,0.1,0,0.1,0l5-16.1L145,53.4c0,0,0,0.1,0,0.1h0c0,0,0.1,0,0.1,0l5.1-17.9l-3.8,18.2c0,0,0,0.1,0,0.1h0c0,0,0.1,0,0.1,0
					l3.6-17l-3.7,21.7c0,0,0,0.1,0,0.1c0,0,0.1,0,0.1,0l4.1-24.1l0.9,18.3c0,0,0,0,0,0.1c0,0,0,0,0,0c0,0,0.1,0,0.1-0.1l-0.8-17.2
					L153,52c0,0,0,0,0,0.1h0c0,0,0.1,0,0.1-0.1l-0.1-0.6l2,13.7c0,0,0,0,0,0.1h0c0,0,0.1,0,0-0.1l-4.4-30.7l11.6,30.7c0,0,0,0,0,0
					c0,0,0,0,0,0c0,0,0,0,0-0.1l-10.5-27.9l11,26.5c0,0,0,0,0,0c0,0,0,0,0,0c0,0,0,0,0-0.1l-9.5-22.7l9.8,22.6c0,0,0,0,0,0
					c0,0,0,0,0,0c0,0,0,0,0-0.1l-11.8-27.1l7.8,15.9c0,0,0,0,0,0c0,0,0,0,0,0c0,0,0-0.1,0-0.1l-7.2-14.7l8.2,15.5c0,0,0,0,0,0
					c0,0,0,0,0,0c0,0,0-0.1,0-0.1l-7.9-14.9l7.7,13.7c0,0,0,0,0,0c0,0,0,0,0,0c0,0,0,0,0-0.1l-9.1-16.2l10.1,15.6c0,0,0,0,0,0
					c0,0,0,0,0,0c0,0,0-0.1,0-0.1l-7-10.7l7.2,10.6c0,0,0,0,0,0c0,0,0,0,0,0c0,0,0-0.1,0-0.1l-8.7-12.9L165,54.2c0,0,0,0,0,0
					c0,0,0,0,0,0c0,0,0-0.1,0-0.1L152.2,36l11.4,14.6c0,0,0,0,0,0c0,0,0,0,0,0c0,0,0-0.1,0-0.1L151.6,35l12.7,13.9c0,0,0,0,0,0
					c0,0,0,0,0,0c0,0,0-0.1,0-0.1l-12.9-14.2l13.1,11.9c0,0,0,0,0,0c0,0,0,0,0.1,0c0,0,0-0.1,0-0.1l-12.7-11.6L165.2,45c0,0,0,0,0,0
					c0,0,0,0,0.1,0c0,0,0-0.1,0-0.1l-0.5-0.4l11.1,8.3c0,0,0,0,0,0c0,0,0,0,0.1,0c0,0,0-0.1,0-0.1l-24.8-18.6L181,47.6c0,0,0,0,0,0
					c0,0,0.1,0,0.1,0c0,0,0-0.1,0-0.1l-27.2-12.3l26.6,10.9c0,0,0,0,0,0c0,0,0.1,0,0.1,0c0,0,0-0.1,0-0.1l-22.8-9.4l22.9,9
					c0,0,0,0,0,0c0,0,0.1,0,0.1,0c0,0,0-0.1,0-0.1l-27.5-10.8l16.7,5.7c0,0,0,0,0,0c0,0,0.1,0,0.1,0c0,0,0-0.1,0-0.1l-15.5-5.3
					l16.7,5.2l0,0c0,0,0.1,0,0.1,0c0,0,0-0.1,0-0.1l-16.1-5l15.1,4.3h0c0,0,0.1,0,0.1,0c0,0,0-0.1,0-0.1l-17.9-5.1l18.2,3.8h0
					c0,0,0.1,0,0.1,0c0,0,0-0.1,0-0.1L158,35.4l12.6,2.4l0,0c0,0,0.1,0,0.1,0c0,0,0-0.1,0-0.1l-15.3-3l19.9,3.4c0,0,0.1,0,0.1,0
					c0,0,0-0.1,0-0.1l-21.9-3.7l18.4,2.3c0,0,0.1,0,0.1-0.1c0,0,0-0.1-0.1-0.1L152.1,34l18.8,0.8c0,0,0.1,0,0.1-0.1
					c0,0,0-0.1-0.1-0.1l-19.2-0.9l17.6-0.8c0,0,0.1,0,0.1-0.1c0,0,0-0.1-0.1-0.1l-17.2,0.8l16.6-2.3c0,0,0.1,0,0.1-0.1
					c0,0,0-0.1-0.1-0.1l-0.6,0.1l13.7-2c0,0,0.1,0,0-0.1c0,0,0-0.1-0.1,0l-30.7,4.4l30.7-11.6c0,0,0,0,0-0.1c0,0,0,0-0.1,0
					l-27.9,10.5l26.5-11c0,0,0,0,0-0.1c0,0,0,0-0.1,0l-22.7,9.5l22.6-9.8c0,0,0,0,0-0.1c0,0,0,0-0.1,0L153,32.7l15.9-7.7
					c0,0,0-0.1,0-0.1c0,0-0.1,0-0.1,0l-14.7,7.2l15.5-8.2c0,0,0-0.1,0-0.1c0,0-0.1,0-0.1,0l-15,7.9l13.7-7.7c0,0,0-0.1,0-0.1
					c0,0-0.1,0-0.1,0L152.1,33l15.6-10.1c0,0,0-0.1,0-0.1c0,0-0.1,0-0.1,0L153,32.2L171,19.5c0,0,0-0.1,0-0.1c0,0-0.1,0-0.1,0
					L151,33.5L163.3,20c0,0,0-0.1,0-0.1c0,0-0.1,0-0.1,0l-11.6,12.7l10.1-13.3c0,0,0-0.1,0-0.1c0,0-0.1,0-0.1,0l-0.3,0.4l8.2-11
					c0,0,0-0.1,0-0.1c0,0-0.1,0-0.1,0l-18.6,24.8l13.5-29.9c0,0,0-0.1,0-0.1c0,0-0.1,0-0.1,0L152,30.6L163,4.1c0,0,0-0.1,0-0.1
					c0,0-0.1,0-0.1,0l-9.4,22.8l9-22.9c0,0,0-0.1,0-0.1c0,0-0.1,0-0.1,0l-10.9,27.5l5.7-16.7c0,0,0-0.1,0-0.1c0,0-0.1,0-0.1,0
					l-5.3,15.5l5.2-16.8c0,0,0-0.1,0-0.1c0,0-0.1,0-0.1,0l-5,16.1l4.3-15.1c0,0,0-0.1,0-0.1c0,0-0.1,0-0.1,0L151,32.2l3.8-18.2
					c0,0,0-0.1,0-0.1c0,0-0.1,0-0.1,0l-3.6,17l3.7-21.7c0,0,0-0.1,0-0.1c0,0-0.1,0-0.1,0l-4.1,24L149.8,15c0,0,0-0.1-0.1-0.1
					c0,0-0.1,0-0.1,0.1l0.9,17.8l-0.1-0.5l-2-14.9c0,0,0-0.1-0.1-0.1c0,0,0,0,0,0L146.2,2.6C146.2,2.6,146.2,2.6,146.2,2.6
					L146.2,2.6z"/>
			</defs>
			<clipPath id="SVGID_2_">
				<use xlink:href="#SVGID_1_"  overflow="visible"/>
			</clipPath>
			<defs>
				<filter id="Adobe_OpacityMaskFilter" filterUnits="userSpaceOnUse" x="94.3" y="-22.5" width="112.7" height="112.7">
					<feColorMatrix  type="matrix" values="1 0 0 0 0  0 1 0 0 0  0 0 1 0 0  0 0 0 1 0"/>
				</filter>
			</defs>
			<mask maskUnits="userSpaceOnUse" x="94.3" y="-22.5" width="112.7" height="112.7" id="SVGID_3_">
				<g filter="url(#Adobe_OpacityMaskFilter)">
					<rect x="108.6" y="-8.1" clip-path="url(#SVGID_2_)" width="84" height="84"/>
					<g enable-background="new    ">
						<g>
							<defs>
								
									<rect id="SVGID_4_" x="114.4" y="-2.4" transform="matrix(-0.9848 -0.1736 0.1736 -0.9848 293.0915 93.3444)" width="72.5" height="72.5"/>
							</defs>
							<clipPath id="SVGID_5_" clip-path="url(#SVGID_2_)">
								<use xlink:href="#SVGID_4_"  overflow="visible"/>
							</clipPath>
							
								<radialGradient id="SVGID_6_" cx="-287.6391" cy="343.9677" r="1.6918" gradientTransform="matrix(18.8426 3.3215 -3.3215 18.8426 6712.9849 -5491.9961)" gradientUnits="userSpaceOnUse">
								<stop  offset="0" style="stop-color:#262625"/>
								<stop  offset="0.4" style="stop-color:#262625"/>
								<stop  offset="0.974" style="stop-color:#1E1E1C"/>
								<stop  offset="1" style="stop-color:#1D1D1B"/>
							</radialGradient>
							<polygon clip-path="url(#SVGID_5_)" fill="url(#SVGID_6_)" points="94.3,73.3 190.1,90.2 207,-5.6 111.2,-22.5 							"/>
						</g>
					</g>
				</g>
			</mask>
			<g clip-path="url(#SVGID_2_)" mask="url(#SVGID_3_)">
				<g>
					<defs>
						<rect id="SVGID_7_" x="108.6" y="-8.1" width="84" height="84"/>
					</defs>
					<clipPath id="SVGID_8_">
						<use xlink:href="#SVGID_7_"  overflow="visible"/>
					</clipPath>
					<g clip-path="url(#SVGID_8_)">
						<defs>
							
								<rect id="SVGID_9_" x="114.4" y="-2.4" transform="matrix(-0.9848 -0.1736 0.1736 -0.9848 293.0894 93.3453)" width="72.5" height="72.5"/>
						</defs>
						<clipPath id="SVGID_10_">
							<use xlink:href="#SVGID_9_"  overflow="visible"/>
						</clipPath>
						
							<radialGradient id="SVGID_11_" cx="-287.6177" cy="343.9508" r="1.6908" gradientTransform="matrix(18.8514 3.3231 -3.3231 18.8514 6715.6069 -5494.3169)" gradientUnits="userSpaceOnUse">
							<stop  offset="0" style="stop-color:#FFFFFF"/>
							<stop  offset="0.4" style="stop-color:#FFFFFF"/>
							<stop  offset="1" style="stop-color:#FFFFFF"/>
						</radialGradient>
						<polygon clip-path="url(#SVGID_10_)" fill="url(#SVGID_11_)" points="94.3,73.3 190.1,90.2 207,-5.6 111.2,-22.5 						"/>
					</g>
				</g>
			</g>
		</g>
		<g>
			<defs>
				<path id="SVGID_12_" d="M128.7,33.4c-1.8,10,4.9,19.5,14.9,21.3c10,1.8,19.5-4.9,21.3-14.9c1.8-10-4.9-19.5-14.9-21.3
					c-1.1-0.2-2.2-0.3-3.2-0.3C138,18.2,130.2,24.5,128.7,33.4"/>
			</defs>
			<clipPath id="SVGID_13_">
				<use xlink:href="#SVGID_12_"  overflow="visible"/>
			</clipPath>
			<defs>
				<filter id="Adobe_OpacityMaskFilter_1_" filterUnits="userSpaceOnUse" x="111.5" y="2.4" width="70.5" height="69.9">
					<feColorMatrix  type="matrix" values="1 0 0 0 0  0 1 0 0 0  0 0 1 0 0  0 0 0 1 0"/>
				</filter>
			</defs>
			<mask maskUnits="userSpaceOnUse" x="111.5" y="2.4" width="70.5" height="69.9" id="SVGID_14_">
				<g filter="url(#Adobe_OpacityMaskFilter_1_)">
					<rect x="120.4" y="11.4" clip-path="url(#SVGID_13_)" width="52.8" height="51.8"/>
					<g enable-background="new    ">
						<g>
							<defs>
								
									<rect id="SVGID_15_" x="123.9" y="15.1" transform="matrix(-0.9848 -0.1738 0.1738 -0.9848 284.818 99.6231)" width="45.8" height="44.6"/>
							</defs>
							<clipPath id="SVGID_16_" clip-path="url(#SVGID_13_)">
								<use xlink:href="#SVGID_15_"  overflow="visible"/>
							</clipPath>
							
								<radialGradient id="SVGID_17_" cx="-282.0922" cy="347.905" r="1.6916" gradientTransform="matrix(10.7001 1.8874 -1.8874 10.7035 3821.8301 -3154.7617)" gradientUnits="userSpaceOnUse">
								<stop  offset="0" style="stop-color:#4A4A49"/>
								<stop  offset="0.6" style="stop-color:#4A4A49"/>
								<stop  offset="0.6917" style="stop-color:#414140"/>
								<stop  offset="0.8438" style="stop-color:#282826"/>
								<stop  offset="0.9" style="stop-color:#1D1D1B"/>
								<stop  offset="1" style="stop-color:#1D1D1B"/>
							</radialGradient>
							<polygon clip-path="url(#SVGID_16_)" fill="url(#SVGID_17_)" points="111.5,61.7 171.6,72.3 182,13 122,2.4 							"/>
						</g>
					</g>
				</g>
			</mask>
			<g clip-path="url(#SVGID_13_)" mask="url(#SVGID_14_)">
				<g>
					<defs>
						<rect id="SVGID_18_" x="120.4" y="11.4" width="52.8" height="51.8"/>
					</defs>
					<clipPath id="SVGID_19_">
						<use xlink:href="#SVGID_18_"  overflow="visible"/>
					</clipPath>
					<g clip-path="url(#SVGID_19_)">
						<defs>
							
								<rect id="SVGID_20_" x="123.9" y="15.1" transform="matrix(-0.9848 -0.1737 0.1737 -0.9848 284.8175 99.6169)" width="45.8" height="44.6"/>
						</defs>
						<clipPath id="SVGID_21_">
							<use xlink:href="#SVGID_20_"  overflow="visible"/>
						</clipPath>
						
							<radialGradient id="SVGID_22_" cx="-282.1155" cy="347.8428" r="1.6914" gradientTransform="matrix(10.7011 1.8876 -1.8876 10.7045 3822.321 -3154.3433)" gradientUnits="userSpaceOnUse">
							<stop  offset="0" style="stop-color:#FFF8C8"/>
							<stop  offset="0.6" style="stop-color:#FFF8C8"/>
							<stop  offset="0.6741" style="stop-color:#FFF9CF"/>
							<stop  offset="0.7802" style="stop-color:#FFFBE2"/>
							<stop  offset="0.9" style="stop-color:#FFFFFF"/>
							<stop  offset="1" style="stop-color:#FFFFFF"/>
						</radialGradient>
						<polygon clip-path="url(#SVGID_21_)" fill="url(#SVGID_22_)" points="111.5,61.7 171.6,72.3 182,13 122,2.4 						"/>
					</g>
				</g>
			</g>
		</g>
		<g>
			<defs>
				<path id="SVGID_23_" d="M142.2,32.4c-0.8,4.6,2.3,9,6.9,9.9c4.6,0.8,9-2.3,9.8-6.9c0.8-4.6-2.3-9-6.9-9.9
					c-0.5-0.1-1-0.1-1.5-0.1C146.6,25.4,143,28.3,142.2,32.4"/>
			</defs>
			<clipPath id="SVGID_24_">
				<use xlink:href="#SVGID_23_"  overflow="visible"/>
			</clipPath>
			<defs>
				<filter id="Adobe_OpacityMaskFilter_2_" filterUnits="userSpaceOnUse" x="134.3" y="18.1" width="32.6" height="32.3">
					<feColorMatrix  type="matrix" values="1 0 0 0 0  0 1 0 0 0  0 0 1 0 0  0 0 0 1 0"/>
				</filter>
			</defs>
			<mask maskUnits="userSpaceOnUse" x="134.3" y="18.1" width="32.6" height="32.3" id="SVGID_25_">
				<g filter="url(#Adobe_OpacityMaskFilter_2_)">
					<rect x="138.4" y="22.2" clip-path="url(#SVGID_24_)" width="24.4" height="24"/>
					<g enable-background="new    ">
						<g>
							<defs>
								
									<rect id="SVGID_26_" x="140" y="23.9" transform="matrix(-0.9848 -0.1737 0.1737 -0.9848 293.0116 94.0927)" width="21.2" height="20.6"/>
							</defs>
							<clipPath id="SVGID_27_" clip-path="url(#SVGID_24_)">
								<use xlink:href="#SVGID_26_"  overflow="visible"/>
							</clipPath>
							
								<radialGradient id="SVGID_28_" cx="-266.8339" cy="357.9726" r="1.6909" gradientTransform="matrix(4.9503 0.8732 -0.8732 4.9519 1784.1122 -1505.7552)" gradientUnits="userSpaceOnUse">
								<stop  offset="0" style="stop-color:#FFFFFF"/>
								<stop  offset="0.1516" style="stop-color:#BCBCBB"/>
								<stop  offset="0.2916" style="stop-color:#858584"/>
								<stop  offset="0.4114" style="stop-color:#5D5D5C"/>
								<stop  offset="0.5063" style="stop-color:#454544"/>
								<stop  offset="0.5644" style="stop-color:#3C3C3B"/>
								<stop  offset="1" style="stop-color:#1D1D1B"/>
							</radialGradient>
							<polygon clip-path="url(#SVGID_27_)" fill="url(#SVGID_28_)" points="134.3,45.5 162.1,50.4 166.9,23 139.1,18.1 							"/>
						</g>
					</g>
				</g>
			</mask>
			<g clip-path="url(#SVGID_24_)" mask="url(#SVGID_25_)">
				<g>
					<defs>
						<rect id="SVGID_29_" x="138.4" y="22.2" width="24.4" height="24"/>
					</defs>
					<clipPath id="SVGID_30_">
						<use xlink:href="#SVGID_29_"  overflow="visible"/>
					</clipPath>
					<g clip-path="url(#SVGID_30_)">
						<defs>
							
								<rect id="SVGID_31_" x="140" y="23.9" transform="matrix(-0.9848 -0.1737 0.1737 -0.9848 293.011 94.0999)" width="21.2" height="20.6"/>
						</defs>
						<clipPath id="SVGID_32_">
							<use xlink:href="#SVGID_31_"  overflow="visible"/>
						</clipPath>
						
							<radialGradient id="SVGID_33_" cx="-266.8594" cy="357.9052" r="1.6915" gradientTransform="matrix(4.9508 0.8733 -0.8733 4.9524 1784.3479 -1505.5616)" gradientUnits="userSpaceOnUse">
							<stop  offset="0" style="stop-color:#FFFCEF"/>
							<stop  offset="0.5644" style="stop-color:#FFFFFF"/>
							<stop  offset="1" style="stop-color:#FFFFFF"/>
						</radialGradient>
						<polygon clip-path="url(#SVGID_32_)" fill="url(#SVGID_33_)" points="134.3,45.5 162.1,50.4 166.9,23 139.1,18.1 						"/>
					</g>
				</g>
			</g>
		</g>
		<g>
			<path fill="#FFFFFF" d="M116.2,48.3c18.6,0,31.4-12.3,33.8-14.8c0.3-0.3,0.7-0.3,1,0c0.3,0.3,0.3,0.7,0,1
				c-0.6,0.6-1.9,1.9-3.7,3.4c-2.3,1.9-4.8,3.6-7.3,5.1c-3.4,2-6.9,3.5-10.5,4.7c-4.4,1.4-8.8,2-13.2,2c-0.1,0-0.2,0-0.4,0
				L116.2,48.3z"/>
			<path fill-rule="evenodd" clip-rule="evenodd" fill="#FFFFFF" d="M130.5,15.3H129c-0.2,0-0.4,0.1-0.5,0.4l-3.3,9.1l-0.2,0.6
				l-0.2-0.6l-3.4-9.1c-0.1-0.3-0.2-0.4-0.5-0.4h-3.7c-0.2,0-0.3,0.1-0.3,0.3c0,0.1,0,0.2,0.2,0.5l6.2,14.2
				c-0.1,2.5-2.4,3.4-5.1,2.6c-0.4-0.1-0.7-0.2-1-0.2c-0.2,0-0.4,0.2-0.4,0.5v1.9c0,0.3,0.2,0.6,0.7,0.7c0.6,0.2,1,0.2,1.4,0.2
				c2.6,0,5-1.8,5.9-4l6.2-16c0.1-0.2,0.1-0.3,0.1-0.4C130.8,15.4,130.7,15.3,130.5,15.3 M62.6,18.6c0-2.2,4.2-2,6.7-0.3
				c0.2,0.1,0.5,0.3,0.6,0.3c0.3,0,0.5-0.1,0.5-0.6v-1.1c0-0.4-0.1-0.7-0.5-0.9c-4.4-1.8-10.3-0.8-10.3,3.9c0,5.4,8.5,4.3,8.5,7.2
				c0,2.3-4,2.6-6.9,0.3c-0.2-0.2-0.4-0.3-0.6-0.3c-0.3,0-0.5,0.1-0.5,0.6V29c0,0.4,0.1,0.7,0.5,0.9c3.7,1.7,10.6,1.7,10.6-4.5
				C71.2,20.1,62.6,21.3,62.6,18.6 M70,16C70.1,16,70.1,16,70,16C70.1,16,70.1,16,70,16 M27.6,14.9c-1.8,0-3.9,0.4-5.3,1
				c-0.4,0.2-0.5,0.5-0.5,0.8v1.5c0,0.5,0.4,0.7,0.6,0.7c0.4,0,0.7-0.4,0.9-0.5c1.3-0.8,2.5-1.4,4.2-1.4c2.1,0,2.4,1.4,2.4,3
				c0,0.8-0.3,1-3.2,1.4c-1.8,0.2-5.9,1-5.9,4.7c0,3,2.4,4.7,5.3,4.7c1.6,0,2.8-0.7,3.9-1.6l0.1,0.9c0,0.2,0.2,0.4,0.3,0.4h3.1
				c0.2,0,0.4-0.2,0.4-0.4V19.6C33.8,16.8,32.3,14.9,27.6,14.9 M29.8,27.2c0,0.4-1.1,1.6-2.7,1.6c-1.8,0-2.5-1.3-2.5-2.6
				c0-1.8,1.4-3.5,5.2-3.5V27.2z M8.3,14.3c0-1.6,1.5-2.6,3.4-2.6c1.7,0,3,0.6,4.3,1.6c0.4,0.3,0.6,0.4,0.9,0.4
				c0.4,0,0.5-0.2,0.5-0.5v-2c0-0.3-0.1-0.5-0.4-0.6c-1.2-0.4-3.2-0.9-5.4-0.9c-4.5,0-6.9,2.8-6.9,5.9c0,6.8,10.5,5.4,10.5,10
				c0,2.8-4,4.8-8.8,1.5c-0.4-0.3-0.6-0.5-0.9-0.5c-0.6,0-0.7,0.3-0.7,0.6V29c0,0.3,0.1,0.5,0.4,0.7C10.9,32.4,19,30.8,19,24
				C19,17.8,8.3,18.2,8.3,14.3 M81.4,15.1c-2.3,0-3.8,1.2-4.4,1.7v-6.7c0-0.2-0.2-0.4-0.4-0.4h-3.2c-0.2,0-0.3,0.2-0.3,0.4v17.4
				c0,0.5,0.1,1.2,0.6,1.6c1.2,0.9,3,1.8,5.4,1.8c4.5,0,8.1-3.4,8.1-8.7C87.1,18.2,84.9,15.1,81.4,15.1 M79.3,29.1
				c-1,0-1.5-0.2-1.8-0.4c-0.4-0.3-0.5-0.6-0.5-0.9v-9.1c0.5-0.4,1.4-1,2.6-1c3.1,0,3.4,4,3.4,5.4C83,26.8,81.5,29.1,79.3,29.1
				 M40.3,15.4H37c-0.2,0-0.3,0.2-0.3,0.4v14.3c0,0.2,0.2,0.4,0.3,0.4h3.2c0.2,0,0.4-0.2,0.4-0.4V15.8
				C40.7,15.5,40.5,15.4,40.3,15.4 M38.6,9.6c-1.5,0-2.2,0.9-2.2,1.9c0,1.2,0.9,2,2.2,2c1.3,0,2.1-0.8,2.1-2
				C40.7,10.4,40,9.6,38.6,9.6 M102.2,15.3H99c-0.2,0-0.3,0.2-0.3,0.4v9.8c0,2.2-0.7,3.4-2.8,3.4c-1.7,0-2.7-1-2.7-2.6V15.7
				c0-0.2-0.2-0.4-0.4-0.4h-3.2c-0.2,0-0.3,0.2-0.3,0.4v9.9c0,3.8,3.4,5.2,6.7,5.2c3.4,0,6.8-1.4,6.8-5.6v-9.5
				C102.6,15.5,102.5,15.3,102.2,15.3 M115,15.2c0.1,0,0.1,0,0.2,0C115.2,15.2,115,15.2,115,15.2 M115,15.2
				c-0.6-0.2-1.1-0.2-1.5-0.2c-1.9,0-3.4,1.6-4,2.5l-0.1-1.8c0-0.2-0.2-0.4-0.4-0.4h-3.1c-0.2,0-0.3,0.2-0.3,0.4v14.3
				c0,0.2,0.2,0.4,0.3,0.4h3.3c0.2,0,0.4-0.2,0.4-0.4v-9.1c0-2.9,2.8-3,4.6-2.6c0.4,0.1,0.8,0.2,1.1,0.2c0.2,0,0.4-0.2,0.4-0.5v-2.1
				C115.7,15.6,115.5,15.3,115,15.2 M52.8,15C51,15,49,15.9,48,16.5l-0.1-0.8c0-0.2-0.2-0.4-0.4-0.4h-3.2c-0.2,0-0.3,0.2-0.3,0.4
				v14.4c0,0.2,0.2,0.4,0.3,0.4h3.3c0.2,0,0.4-0.2,0.4-0.4V18.5c0.6-0.4,2-1.1,3.2-1.1c2.2,0,2.4,1.4,2.4,2.5v10.1
				c0,0.2,0.2,0.4,0.3,0.4h3.3c0.2,0,0.4-0.2,0.4-0.4V19.6C57.5,16.9,56.1,15,52.8,15 M144.6,16C144.6,16,144.7,16,144.6,16
				C144.7,16,144.6,16,144.6,16 M144.5,15.9C144.5,16,144.5,16,144.5,15.9C144.5,16,144.5,16,144.5,15.9 M137.2,18.6
				c0-2.2,4.2-2,6.7-0.3c0.2,0.1,0.5,0.3,0.6,0.3c0.3,0,0.5-0.1,0.5-0.6v-1.1c0-0.4-0.1-0.7-0.5-0.9c-4.4-1.8-10.3-0.8-10.3,3.9
				c0,5.4,8.5,4.3,8.5,7.2c0,2.3-4,2.6-6.9,0.3c-0.2-0.2-0.4-0.3-0.6-0.3c-0.3,0-0.5,0.1-0.5,0.6V29c0,0.4,0.1,0.7,0.5,0.9
				c3.7,1.7,10.6,1.7,10.6-4.5C145.8,20.1,137.2,21.3,137.2,18.6 M134.1,9.7h-1.6c-0.4,0-0.4,0.3-0.4,0.5c0,0.4,1,1.4,1,2.8
				c0,1.4-0.5,1.9-0.5,2.4c0,0.2,0.2,0.3,0.4,0.3h0.7C135.2,15.7,137,9.7,134.1,9.7"/>
		</g>
		<g>
			<defs>
				<path id="SVGID_34_" d="M22.7,39.3c-3.5,0.8-6.7,1.8-9.3,3.1c-2.8,1.3-5.1,2.8-6.9,4.5c-1.9,1.8-3.2,3.8-3.7,5.9
					c-0.1,0.6-0.2,1.2-0.2,1.7c0,0.4,0,1,0.7,1c0.7,0,0.7-0.8,0.7-1.1c0-0.4,0.1-0.9,0.2-1.3c0.4-1.8,1.6-3.6,3.3-5.2
					c3.4-3.2,8.7-5.6,15.6-7.2c6.7-1.5,14.9-2.3,24.4-2.3c18.1,0,32,3.6,44.3,6.9c9.1,2.4,16.9,4.4,24.5,4.4c0.1,0,0.1,0,0.2,0v-1.4
					c-0.1,0-0.1,0-0.2,0c-7.4,0-15.1-2-24.1-4.4c-5.9-1.6-12.6-3.3-20-4.6C63.7,37.7,55.6,37,47.5,37C37.8,37,29.5,37.8,22.7,39.3"
					/>
			</defs>
			<clipPath id="SVGID_35_">
				<use xlink:href="#SVGID_34_"  overflow="visible"/>
			</clipPath>
			<defs>
				<filter id="Adobe_OpacityMaskFilter_3_" filterUnits="userSpaceOnUse" x="-12" y="-6.1" width="142.9" height="104.8">
					<feColorMatrix  type="matrix" values="1 0 0 0 0  0 1 0 0 0  0 0 1 0 0  0 0 0 1 0"/>
				</filter>
			</defs>
			<mask maskUnits="userSpaceOnUse" x="-12" y="-6.1" width="142.9" height="104.8" id="SVGID_36_">
				<g filter="url(#Adobe_OpacityMaskFilter_3_)">
					<rect x="-0.9" y="16" clip-path="url(#SVGID_35_)" width="120.7" height="60.4"/>
					<g enable-background="new    ">
						<g>
							<defs>
								
									<rect id="SVGID_37_" x="39.7" y="-11.4" transform="matrix(-0.187 -0.9824 0.9824 -0.187 25.1539 113.3198)" width="39.5" height="115.3"/>
							</defs>
							<clipPath id="SVGID_38_" clip-path="url(#SVGID_35_)">
								<use xlink:href="#SVGID_37_"  overflow="visible"/>
							</clipPath>
							
								<linearGradient id="SVGID_39_" gradientUnits="userSpaceOnUse" x1="-294.4428" y1="341.05" x2="-292.7516" y2="341.05" gradientTransform="matrix(65.6827 -12.5059 12.5059 65.6827 15077.7188 -26026.3672)">
								<stop  offset="0" style="stop-color:#1D1D1B"/>
								<stop  offset="0.15" style="stop-color:#9C9B9B"/>
								<stop  offset="0.5" style="stop-color:#FFFFFF"/>
								<stop  offset="1" style="stop-color:#FFFFFF"/>
							</linearGradient>
							<polygon clip-path="url(#SVGID_38_)" fill="url(#SVGID_39_)" points="3.3,98.6 130.9,74.3 115.6,-6.1 -12,18.2 							"/>
						</g>
					</g>
				</g>
			</mask>
			<g clip-path="url(#SVGID_35_)" mask="url(#SVGID_36_)">
				<g>
					<defs>
						<rect id="SVGID_40_" x="-0.9" y="16" width="120.7" height="60.4"/>
					</defs>
					<clipPath id="SVGID_41_">
						<use xlink:href="#SVGID_40_"  overflow="visible"/>
					</clipPath>
					<g clip-path="url(#SVGID_41_)">
						<defs>
							
								<rect id="SVGID_42_" x="39.7" y="-11.4" transform="matrix(-0.187 -0.9824 0.9824 -0.187 25.1534 113.3159)" width="39.5" height="115.3"/>
						</defs>
						<clipPath id="SVGID_43_">
							<use xlink:href="#SVGID_42_"  overflow="visible"/>
						</clipPath>
						
							<linearGradient id="SVGID_44_" gradientUnits="userSpaceOnUse" x1="-294.4436" y1="341.0436" x2="-292.7521" y2="341.0436" gradientTransform="matrix(65.6776 -12.5049 12.5049 65.6776 15076.6826 -26023.9238)">
							<stop  offset="0" style="stop-color:#FFFFFF"/>
							<stop  offset="0.15" style="stop-color:#FFFFFF"/>
							<stop  offset="0.5" style="stop-color:#FFFFFF"/>
							<stop  offset="1" style="stop-color:#FFFFFF"/>
						</linearGradient>
						<polygon clip-path="url(#SVGID_43_)" fill="url(#SVGID_44_)" points="3.3,98.6 130.9,74.3 115.6,-6.1 -12,18.2 						"/>
					</g>
				</g>
			</g>
		</g>
		<g>
			<path fill="#FFFFFF" d="M173.3,10.6v2.3h-8.6v6.3h6.9v2.3h-6.9v6.6h9.2l-0.3,2.3h-12.2V12.9h-1.8v-2.3H173.3z"/>
		</g>
		<g>
			<path fill="#FFFFFF" d="M178.7,15.2c0.6,0,0.8,0.2,0.8,0.8l0.1,1c0.9-1.3,2.6-2.1,4.6-2.1c2.1,0,3.7,0.7,4.5,1.7
				c0.8,0.9,1.1,2.1,1.1,4v9.8h-3.1v-9.3c0-1.4-0.1-2.2-0.7-2.9c-0.5-0.6-1.3-0.9-2.4-0.9c-1.1,0-2.1,0.4-2.6,1
				c-0.6,0.7-0.8,1.7-0.8,3.3v8.8h-3.1V17.5h-1.8v-2.3H178.7z"/>
		</g>
		<g>
			<path fill="#FFFFFF" d="M205.1,23.4c-0.3,0.3-0.8,0.4-1.5,0.4h-8.1c0.2,3.1,2,4.6,4.5,4.6c1.7,0,3.6-0.6,4.8-1.5l-0.1,2.3
				c-1.2,0.9-3.3,1.3-5.2,1.3c-4.7,0-7.2-3.1-7.2-7.8c0-4.9,2.6-7.9,6.8-7.9c3.9,0,6.3,2.8,6.3,7.1
				C205.5,22.6,205.4,23.1,205.1,23.4z M199.1,17.1c-1.9,0-3.3,1.4-3.6,4.7h6.8c0.2,0,0.3-0.1,0.3-0.3
				C202.6,18.8,201.4,17.1,199.1,17.1z"/>
			<path fill="#FFFFFF" d="M211.5,17.3c0.8-1.5,2.4-2.4,4-2.4c0.4,0,0.8,0,1,0.1v2.6c-0.3-0.1-0.7-0.1-1.1-0.1
				c-1.1,0-1.9,0.4-2.5,1.1c-0.6,0.8-0.8,1.8-0.8,3.4v8.4H209V17.5h-1.8v-2.3h3.3c0.6,0,0.8,0.2,0.8,0.8L211.5,17.3z"/>
		</g>
		<g>
			<path fill="#FFFFFF" d="M231.2,30.1c0,2.6-0.3,3.9-1.4,5.1c-1.1,1.3-3.1,1.9-5.5,1.9c-1.9,0-3.8-0.5-5.1-1.2l0.1-2.4
				c1.2,0.7,3,1.3,4.8,1.3c1.3,0,2.4-0.3,3.1-1c0.7-0.7,0.9-1.7,0.9-3.6v-1.3c-0.8,0.9-2.1,1.5-3.9,1.5c-4,0-6.3-2.5-6.3-7.1
				c0-2.8,0.9-4.9,2.4-6.4c1.4-1.4,3.5-2,5.8-2c1.7,0,3.6,0.4,5,0.9V30.1z M228.1,17.4c-0.5-0.2-1.3-0.3-2-0.3
				c-3.2,0-5.1,2.1-5.1,6.1c0,3.3,1.2,5.1,3.7,5.1c1.1,0,1.9-0.4,2.5-1c0.6-0.7,0.9-1.6,0.9-2.8V17.4z"/>
		</g>
		<g>
			<path fill="#FFFFFF" d="M246.8,30.1c0,2.6-0.3,3.9-1.4,5.1c-1.1,1.3-3.1,1.9-5.5,1.9c-1.9,0-3.7-0.5-5.1-1.2l0.1-2.4
				c1.2,0.7,3,1.3,4.8,1.3c1.3,0,2.4-0.3,3.1-1c0.7-0.7,0.9-1.7,0.9-3.5v-1.1c-0.9,1-2.4,1.5-3.9,1.5c-2.1,0-3.7-0.7-4.5-1.7
				c-0.7-0.9-1.1-2.1-1.1-4v-9.8h3.1v9.3c0,1.4,0.1,2.2,0.7,2.9c0.5,0.6,1.3,0.9,2.4,0.9c1.1,0,2.1-0.4,2.6-1
				c0.6-0.8,0.8-1.8,0.8-3.3v-8.8h3.1V30.1z"/>
		</g>
		<g>
			<path fill="#FFFFFF" d="M17,65.6c-0.9,3.9-2,7.8-3.3,12h-1.1L10,67.7l-2.5,9.9H6.3c-1.4-4.3-2.4-8.1-3.3-12h1.1
				c0.5,2.3,1,4.5,1.5,6.4c0.4,1.6,0.9,3.3,1.2,4.5h0.1c0.1-0.8,0.5-2.7,1-4.6l1.6-6.3h0.9l1.7,6.6c0.5,1.9,0.9,3.6,1,4.3h0
				c0.2-1,0.6-2.6,1.2-4.3c0.6-2,1.1-4.1,1.7-6.6H17z"/>
			<path fill="#FFFFFF" d="M21.9,77.8c-2.2,0-3.8-1.7-3.8-4.8c0-3,1.5-4.8,3.8-4.8c2.2,0,3.8,1.7,3.8,4.8
				C25.7,76.1,24.2,77.8,21.9,77.8z M21.9,69c-1.6,0-2.7,1.2-2.7,4c0,2.8,1.1,4,2.7,4c1.6,0,2.7-1.2,2.7-4
				C24.6,70.3,23.5,69,21.9,69z"/>
			<path fill="#FFFFFF" d="M28.5,68.4c0.2,0,0.3,0,0.3,0.3l0,1.1c0.4-1,1.2-1.5,2.3-1.5c0.1,0,0.4,0,0.5,0v1c-0.1,0-0.3,0-0.5,0
				c-0.6,0-1.2,0.3-1.5,0.8c-0.5,0.6-0.7,1.5-0.7,2.8v4.9h-1v-8.4H27v-0.8H28.5z"/>
			<path fill="#FFFFFF" d="M34.5,73.3c1.7-1.4,3.1-3,4.3-4.9h1c-1.1,1.6-2,2.8-3.1,3.9l2.7,4c0.3,0.5,0.6,0.6,0.9,0.6
				c0.2,0,0.4-0.1,0.5-0.1l0,0.8c-0.2,0.1-0.4,0.2-0.7,0.2c-0.7,0-1.2-0.3-1.6-1L36.1,73c-0.5,0.5-1,0.9-1.6,1.4v3.2h-1V65.4h-0.9
				v-0.8h1.6c0.2,0,0.3,0,0.3,0.3V73.3z"/>
			<path fill="#FFFFFF" d="M43.3,75.9c0,0.8,0.1,1,0.5,1c0.2,0,0.3,0,0.4-0.1l-0.1,0.8c-0.1,0.1-0.5,0.1-0.7,0.1
				c-0.8,0-1.2-0.5-1.2-1.4v-7.1h-0.9v-0.8H43c0.2,0,0.3,0,0.3,0.3V75.9z M42.6,66.6c-0.4,0-0.7-0.4-0.7-0.8c0-0.4,0.3-0.7,0.7-0.7
				c0.4,0,0.7,0.3,0.7,0.7C43.4,66.2,43,66.6,42.6,66.6z"/>
			<path fill="#FFFFFF" d="M46.9,68.4c0.2,0,0.3,0,0.3,0.3l0,0.9c0.3-0.4,0.7-0.8,1.2-1c0.5-0.2,1-0.3,1.7-0.3
				c0.9,0,1.8,0.4,2.3,0.9c0.6,0.7,0.7,1.7,0.7,2.6v5.9h-1v-5.8c0-1-0.1-1.6-0.5-2.1c-0.4-0.4-1-0.6-1.7-0.6c-0.8,0-1.5,0.2-1.9,0.7
				c-0.5,0.6-0.6,1.3-0.6,2.5v5.3h-1v-8.4h-0.9v-0.8H46.9z"/>
			<path fill="#FFFFFF" d="M62.2,77c0,1.7-0.1,2.6-0.6,3.4c-0.7,1-2,1.3-3.1,1.3c-1,0-2.1-0.2-2.8-0.6v-0.9c0.7,0.4,1.9,0.6,2.7,0.6
				c0.9,0,1.7-0.3,2.2-0.9c0.4-0.5,0.5-1.2,0.5-2.6v-0.9c-0.4,0.7-1.5,1.2-2.5,1.2c-2.6,0-3.7-1.8-3.7-4.4c0-1.7,0.5-3.1,1.5-4
				c0.7-0.6,1.8-1,2.9-1c1,0,2.1,0.3,2.8,0.7V77z M61.2,69.4c-0.4-0.2-1.1-0.4-1.8-0.4c-0.9,0-1.7,0.2-2.3,0.8
				c-0.8,0.7-1.2,1.9-1.2,3.3c0,1.9,0.6,3.7,2.8,3.7c1.6,0,2.4-1.1,2.4-2.7V69.4z"/>
			<path fill="#FFFFFF" d="M72.5,77.5c-0.4,0.2-1,0.3-1.4,0.3c-0.7,0-1.3-0.2-1.7-0.7c-0.3-0.4-0.5-0.9-0.5-1.8v-6.1h-1.3v-0.6
				l1.3-0.2v-2.5l1-0.5v2.9h2.2v0.8h-2.2v5.9c0,0.7,0.1,1.1,0.3,1.4c0.2,0.3,0.5,0.5,1,0.5c0.5,0,1-0.2,1.3-0.3L72.5,77.5z"/>
			<path fill="#FFFFFF" d="M77.5,77.8c-2.2,0-3.8-1.7-3.8-4.8c0-3,1.5-4.8,3.8-4.8c2.2,0,3.8,1.7,3.8,4.8
				C81.3,76.1,79.8,77.8,77.5,77.8z M77.5,69c-1.6,0-2.7,1.2-2.7,4c0,2.8,1.1,4,2.7,4c1.6,0,2.7-1.2,2.7-4
				C80.3,70.3,79.1,69,77.5,69z"/>
			<path fill="#FFFFFF" d="M90,77c0,1.7-0.1,2.6-0.6,3.4c-0.7,1-2,1.3-3.1,1.3c-1,0-2.1-0.2-2.8-0.6v-0.9c0.7,0.4,1.9,0.6,2.7,0.6
				c0.9,0,1.7-0.3,2.2-0.9c0.4-0.5,0.5-1.2,0.5-2.6v-0.9c-0.4,0.7-1.5,1.2-2.5,1.2c-2.6,0-3.7-1.8-3.7-4.4c0-1.7,0.5-3.1,1.5-4
				c0.7-0.6,1.8-1,2.9-1c1,0,2.1,0.3,2.8,0.7V77z M88.9,69.4c-0.4-0.2-1.1-0.4-1.8-0.4c-0.9,0-1.7,0.2-2.3,0.8
				c-0.8,0.7-1.2,1.9-1.2,3.3c0,1.9,0.6,3.7,2.8,3.7c1.6,0,2.4-1.1,2.4-2.7V69.4z"/>
			<path fill="#FFFFFF" d="M98.2,73.4h-5.4c0.1,2.1,1,3.6,3,3.6c1,0,2-0.4,2.7-0.9l0,0.9c-0.6,0.5-1.8,0.8-2.8,0.8
				c-2.7,0-3.9-1.9-3.9-4.7c0-3.2,1.5-4.8,3.8-4.8c2,0,3.3,1.6,3.3,4.4C98.9,73.2,98.8,73.4,98.2,73.4z M95.5,69
				c-1.6,0-2.5,1.3-2.6,3.6h4.9c0.1,0,0.1-0.1,0.1-0.2C97.9,70.5,97.2,69,95.5,69z"/>
			<path fill="#FFFFFF" d="M105,77.5c-0.4,0.2-1,0.3-1.4,0.3c-0.7,0-1.3-0.2-1.7-0.7c-0.3-0.4-0.5-0.9-0.5-1.8v-6.1H100v-0.6
				l1.3-0.2v-2.5l1-0.5v2.9h2.2v0.8h-2.2v5.9c0,0.7,0.1,1.1,0.3,1.4c0.2,0.3,0.5,0.5,1,0.5s1-0.2,1.3-0.3L105,77.5z"/>
			<path fill="#FFFFFF" d="M113.6,77.6h-1v-5.8c0-1-0.1-1.6-0.5-2.1c-0.4-0.4-1-0.6-1.7-0.6c-0.8,0-1.5,0.2-1.9,0.7
				c-0.5,0.6-0.6,1.3-0.6,2.5v5.3h-1v-13h1v4.9c0.2-0.4,0.6-0.8,1.1-1c0.5-0.2,1-0.3,1.7-0.3c0.9,0,1.8,0.4,2.3,0.9
				c0.6,0.7,0.7,1.7,0.7,2.6V77.6z"/>
			<path fill="#FFFFFF" d="M121.8,73.4h-5.4c0.1,2.1,1,3.6,3,3.6c1,0,2-0.4,2.7-0.9l0,0.9c-0.6,0.5-1.8,0.8-2.8,0.8
				c-2.7,0-3.9-1.9-3.9-4.7c0-3.2,1.5-4.8,3.8-4.8c2,0,3.3,1.6,3.3,4.4C122.5,73.2,122.4,73.4,121.8,73.4z M119.1,69
				c-1.6,0-2.5,1.3-2.6,3.6h4.9c0.1,0,0.1-0.1,0.1-0.2C121.5,70.5,120.8,69,119.1,69z"/>
			<path fill="#FFFFFF" d="M125.4,68.4c0.2,0,0.3,0,0.3,0.3l0,1.1c0.4-1,1.2-1.5,2.3-1.5c0.1,0,0.4,0,0.5,0v1c-0.1,0-0.3,0-0.5,0
				c-0.6,0-1.2,0.3-1.5,0.8c-0.5,0.6-0.7,1.5-0.7,2.8v4.9h-1v-8.4h-0.9v-0.8H125.4z"/>
			<path fill="#FFFFFF" d="M134,68.4c0.3,1.6,0.8,3.4,1.3,4.8c0.4,1.1,0.7,2.3,1,3.2h0c0.2-1,0.5-2.1,0.8-3.2l1.4-4.8h0.9l1.4,4.8
				c0.4,1.1,0.6,2.3,0.9,3.2h0c0.2-0.8,0.5-1.8,0.9-3.2c0.4-1.2,0.8-2.6,1.3-4.8h1c-0.8,3.2-1.7,6.2-2.8,9.2h-0.9l-1.4-4.7
				c-0.4-1.2-0.7-2.2-0.9-3.2c-0.2,1-0.5,2-0.9,3.2l-1.4,4.7h-0.8c-1.2-3-2.3-6.7-2.9-9.2H134z"/>
			<path fill="#FFFFFF" d="M147.8,75.9c0,0.8,0.1,1,0.5,1c0.2,0,0.3,0,0.4-0.1l-0.1,0.8c-0.1,0.1-0.5,0.1-0.7,0.1
				c-0.8,0-1.2-0.5-1.2-1.4v-7.1h-0.9v-0.8h1.6c0.2,0,0.3,0,0.3,0.3V75.9z M147.1,66.6c-0.4,0-0.7-0.4-0.7-0.8
				c0-0.4,0.3-0.7,0.7-0.7c0.4,0,0.7,0.3,0.7,0.7C147.9,66.2,147.5,66.6,147.1,66.6z"/>
			<path fill="#FFFFFF" d="M154.7,77.5c-0.4,0.2-1,0.3-1.4,0.3c-0.7,0-1.3-0.2-1.7-0.7c-0.3-0.4-0.5-0.9-0.5-1.8v-6.1h-1.3v-0.6
				l1.3-0.2v-2.5l1-0.5v2.9h2.2v0.8h-2.2v5.9c0,0.7,0.1,1.1,0.3,1.4c0.2,0.3,0.5,0.5,1,0.5s1-0.2,1.3-0.3L154.7,77.5z"/>
			<path fill="#FFFFFF" d="M163.3,77.6h-1v-5.8c0-1-0.1-1.6-0.5-2.1c-0.4-0.4-1-0.6-1.7-0.6c-0.8,0-1.5,0.2-1.9,0.7
				c-0.5,0.6-0.6,1.3-0.6,2.5v5.3h-1v-13h1v4.9c0.2-0.4,0.6-0.8,1.1-1c0.5-0.2,1-0.3,1.7-0.3c0.9,0,1.8,0.4,2.3,0.9
				c0.6,0.7,0.7,1.7,0.7,2.6V77.6z"/>
		</g>
		<g>
			<path fill="#FFFFFF" d="M177.1,76.9c-0.8,0.5-1.9,0.7-3.1,0.7h-3.9V66.9H169v-1.4h4.7c1.4,0,2.4,0.2,3.1,0.9
				c0.6,0.5,0.8,1.3,0.8,2.1c0,1.3-0.5,2.2-1.5,2.6c1.3,0.3,2.2,1.3,2.2,3C178.4,75.4,177.9,76.3,177.1,76.9z M175.3,67.4
				c-0.4-0.4-0.9-0.5-1.9-0.5H172v3.8h1.7c1.4,0,2.2-0.3,2.2-2C175.8,68.3,175.7,67.8,175.3,67.4z M175.8,72.5
				c-0.4-0.4-1-0.5-2.2-0.5H172v4.2h1.8c0.9,0,1.5-0.1,1.9-0.4c0.5-0.3,0.7-1,0.7-1.7C176.4,73.3,176.2,72.8,175.8,72.5z"/>
		</g>
		<g>
			<path fill="#FFFFFF" d="M181.2,69.6c0.5-0.9,1.4-1.5,2.4-1.5c0.2,0,0.5,0,0.6,0.1v1.6c-0.2,0-0.4-0.1-0.7-0.1
				c-0.6,0-1.1,0.2-1.5,0.7c-0.4,0.5-0.5,1.1-0.5,2.1v5.1h-1.8v-7.9h-1.1v-1.4h2c0.4,0,0.5,0.1,0.5,0.5L181.2,69.6z"/>
		</g>
		<g>
			<path fill="#FFFFFF" d="M188.1,75.8c0,0.4,0.1,0.6,0.4,0.6c0.2,0,0.5-0.1,0.7-0.2l-0.1,1.1c-0.3,0.2-0.7,0.4-1.3,0.4
				c-0.6,0-1-0.2-1.2-0.5c-0.2-0.3-0.3-0.7-0.3-1.4v-6.1h-1.1v-1.4h2.4c0.4,0,0.5,0.1,0.5,0.5V75.8z M187.1,66.9
				c-0.6,0-1.1-0.5-1.1-1.1s0.5-1.1,1.1-1.1c0.6,0,1.1,0.5,1.1,1.1S187.7,66.9,187.1,66.9z"/>
		</g>
		<g>
			<path fill="#FFFFFF" d="M194.7,77.3c-0.4,0.3-1.1,0.5-1.8,0.5c-0.8,0-1.6-0.3-2-0.8c-0.4-0.5-0.5-1-0.5-2.1v-5.2h-1.4v-1.1
				l1.4-0.3V66l1.8-0.6v2.9h2.1v1.4h-2.1v5.1c0,1.1,0.3,1.6,1.1,1.6c0.5,0,1-0.2,1.3-0.4L194.7,77.3z"/>
		</g>
		<g>
			<path fill="#FFFFFF" d="M198.3,75.8c0,0.4,0.1,0.6,0.4,0.6c0.2,0,0.5-0.1,0.7-0.2l-0.1,1.1c-0.3,0.2-0.7,0.4-1.3,0.4
				c-0.6,0-1-0.2-1.2-0.5c-0.2-0.3-0.3-0.7-0.3-1.4v-6.1h-1.1v-1.4h2.4c0.4,0,0.5,0.1,0.5,0.5V75.8z M197.3,66.9
				c-0.6,0-1.1-0.5-1.1-1.1s0.5-1.1,1.1-1.1s1.1,0.5,1.1,1.1S197.9,66.9,197.3,66.9z"/>
		</g>
		<g>
			<path fill="#FFFFFF" d="M203.2,77.7c-1.1,0-2.2-0.2-2.9-0.6l0.1-1.5c0.8,0.5,1.8,0.8,2.7,0.8c1,0,1.8-0.4,1.8-1.2
				c0-0.9-0.6-1.1-2.3-1.7c-1.4-0.5-2.4-1.1-2.4-2.6c0-1.7,1.4-2.7,3.4-2.7c0.9,0,1.7,0.2,2.3,0.4V70c-0.6-0.3-1.5-0.5-2.2-0.5
				c-1.1,0-1.8,0.5-1.8,1.2c0,0.7,0.6,1,2,1.5c1.7,0.6,2.6,1.2,2.6,2.8C206.6,76.6,205.4,77.7,203.2,77.7z"/>
		</g>
		<g>
			<path fill="#FFFFFF" d="M215.2,77.6h-1.8v-5.6c0-0.8-0.1-1.3-0.4-1.7c-0.3-0.4-0.8-0.6-1.4-0.6c-0.7,0-1.2,0.2-1.5,0.6
				c-0.4,0.5-0.5,1.1-0.5,2v5.3h-1.8v-13h1.8V69c0.6-0.6,1.4-0.9,2.3-0.9c1.2,0,2.2,0.4,2.7,1c0.4,0.5,0.7,1.3,0.7,2.4V77.6z"/>
		</g>
		<g>
			<path fill="#FFFFFF" d="M229.5,76.9c-1.3,0.6-2.7,0.8-3.9,0.8c-3.8,0-5.4-2.4-5.4-6.2c0-4,2.7-6.2,5.7-6.2c1.1,0,2.2,0.2,3.1,0.6
				l-0.1,1.7c-0.8-0.4-1.9-0.8-2.9-0.8c-2.1,0-3.7,1.6-3.7,4.6c0,3.2,1.3,4.7,3.5,4.7c0.6,0,1.3-0.1,1.8-0.3v-3.3h-1.8v-1.3h3.1
				c0.4,0,0.5,0.2,0.5,0.6V76.9z"/>
		</g>
		<g>
			<path fill="#FFFFFF" d="M239.1,77.3c-0.3,0.2-0.7,0.4-1.3,0.4c-0.7,0-1.3-0.3-1.4-0.9c-0.4,0.6-1.4,1-2.3,1
				c-1.9,0-3.2-1.1-3.2-3.1c0-2.1,1.4-3.2,3.6-3.2c0.7,0,1.4,0.2,1.8,0.3v-0.3c0-0.7-0.1-1.1-0.4-1.5c-0.3-0.4-0.9-0.6-1.7-0.6
				c-0.8,0-1.6,0.2-2.5,0.7v-1.4c0.8-0.4,1.7-0.6,2.7-0.6c1.3,0,2.3,0.3,2.9,1c0.5,0.5,0.7,1.2,0.7,2.3v4.3c0,0.4,0.1,0.6,0.4,0.6
				c0.2,0,0.5-0.1,0.7-0.2L239.1,77.3z M236.3,73c-0.3-0.1-1-0.2-1.6-0.2c-1.4,0-2,0.8-2,1.8c0,1.2,0.7,1.9,1.7,1.9
				c0.6,0,1.1-0.2,1.4-0.6c0.3-0.4,0.4-0.8,0.4-1.5V73z"/>
		</g>
		<g>
			<path fill="#FFFFFF" d="M242.8,77.7c-1.1,0-2.2-0.2-2.9-0.6l0.1-1.5c0.8,0.5,1.8,0.8,2.7,0.8c1,0,1.8-0.4,1.8-1.2
				c0-0.9-0.6-1.1-2.3-1.7c-1.4-0.5-2.4-1.1-2.4-2.6c0-1.7,1.4-2.7,3.4-2.7c0.9,0,1.7,0.2,2.3,0.4V70c-0.6-0.3-1.5-0.5-2.2-0.5
				c-1.1,0-1.8,0.5-1.8,1.2c0,0.7,0.6,1,2,1.5c1.7,0.6,2.6,1.2,2.6,2.8C246.2,76.6,245,77.7,242.8,77.7z"/>
		</g>
	</g>
</g>
</svg>
