<?xml version="1.0" encoding="utf-8"?>
<!-- Generator: Adobe Illustrator 18.0.0, SVG Export Plug-In . SVG Version: 6.00 Build 0)  -->
<!DOCTYPE svg PUBLIC "-//W3C//DTD SVG 1.1//EN" "http://www.w3.org/Graphics/SVG/1.1/DTD/svg11.dtd">
<svg version="1.1" id="Layer_1" xmlns="http://www.w3.org/2000/svg" xmlns:xlink="http://www.w3.org/1999/xlink" x="0px" y="0px"
	 viewBox="0 0 500 150" enable-background="new 0 0 500 150" xml:space="preserve">
<path opacity="0.25" fill="#440E62" d="M20.1,122.3c-2.6-6.8,0.9-14.5,7.7-17.1c6.8-2.6,14.5,0.9,17.1,7.7
	c2.6,6.8-0.9,14.5-7.7,17.1C30.4,132.6,22.7,129.2,20.1,122.3z"/>
<path opacity="0.26" fill="#B82E90" d="M401.5,111c-0.2,3.5-3.1,6.2-6.6,6c-3.5-0.2-6.2-3.1-6-6.6c0.2-3.5,3.1-6.2,6.6-6
	C399,104.5,401.7,107.5,401.5,111z"/>
<path opacity="0.26" fill="#B82E90" d="M473.1,105.1c-0.2,3.5-3.1,6.2-6.6,6c-3.5-0.2-6.2-3.1-6-6.6c0.2-3.5,3.1-6.2,6.6-6
	C470.6,98.6,473.3,101.6,473.1,105.1z"/>
<circle opacity="0.26" fill="#440E62" cx="117.1" cy="42.5" r="6.3"/>
<path opacity="0.8" fill="#DB8ABA" d="M265,129.6c5-2.8,11.3-1,14.1,4c2.8,5,1,11.3-4,14.1c-5,2.8-11.3,1-14.1-4
	C258.2,138.7,260,132.4,265,129.6z"/>
<path opacity="0.26" fill="#9461A7" d="M418.1,121.8c3.8-2.1,8.5-0.7,10.6,3c2.1,3.8,0.7,8.5-3,10.6c-3.8,2.1-8.5,0.7-10.6-3
	C412.9,128.6,414.3,123.9,418.1,121.8z"/>
<path opacity="0.26" fill="#9461A7" d="M468.6,107.2c7.9-4.4,17.8-1.5,22.2,6.3c4.4,7.9,1.5,17.8-6.3,22.2
	c-7.9,4.4-17.8,1.5-22.2-6.3C457.9,121.5,460.7,111.6,468.6,107.2z"/>
<path opacity="0.5" fill="#A2238D" d="M11.1,113.4c4.7-2.6,10.6-0.9,13.2,3.8c2.6,4.7,0.9,10.6-3.8,13.2c-4.7,2.6-10.6,0.9-13.2-3.8
	C4.7,121.9,6.4,116,11.1,113.4z"/>
<circle opacity="0.23" fill="#9461A7" cx="298.3" cy="131.4" r="10.2"/>
<circle opacity="0.45" fill="#A13E96" cx="288.8" cy="128.4" r="4.7"/>
<circle opacity="0.45" fill="#A13E96" cx="60.9" cy="28.8" r="8.7"/>
</svg>
