<?xml version="1.0" encoding="utf-8"?>
<!-- Generator: Adobe Illustrator 18.0.0, SVG Export Plug-In . SVG Version: 6.00 Build 0)  -->
<!DOCTYPE svg PUBLIC "-//W3C//DTD SVG 1.1//EN" "http://www.w3.org/Graphics/SVG/1.1/DTD/svg11.dtd">
<svg version="1.1" id="steps_1_" xmlns="http://www.w3.org/2000/svg" xmlns:xlink="http://www.w3.org/1999/xlink" x="0px" y="0px"
	 viewBox="0 0 327.1 68.4" enable-background="new 0 0 327.1 68.4" xml:space="preserve">
<g id="grey_box_copy_2_1_">
	<g id="Rectangle_14_copy_2_">
		<g>
			<polygon fill-rule="evenodd" clip-rule="evenodd" fill="#646361" points="205.9,38.9 198.1,46.7 205.9,54.5 213.7,46.7 			"/>
		</g>
	</g>
	<g id="Rounded_Rectangle_1_2_">
		<g>
			<path fill-rule="evenodd" clip-rule="evenodd" fill="#646361" d="M239.8,41.8h-66c-0.6,0-1.1,0.6-1.1,1.4V67
				c0,0.8,0.5,1.4,1.1,1.4h66c0.6,0,1.1-0.6,1.1-1.4V43.2C240.9,42.4,240.4,41.8,239.8,41.8z"/>
		</g>
	</g>
</g>
<g id="Rectangle_13_copy_4">
	<g>
		<rect x="31" y="11.2" fill-rule="evenodd" clip-rule="evenodd" fill="#AFAFAF" width="253.1" height="0.7"/>
	</g>
</g>
<g id="grey_box_1_">
	<g id="Rectangle_14_copy">
		<g>
			<polygon fill-rule="evenodd" clip-rule="evenodd" fill="#EAEAEA" points="33.2,38.9 25.4,46.7 33.2,54.5 41,46.7 			"/>
		</g>
	</g>
	<g id="Rounded_Rectangle_1">
		<g>
			<path fill-rule="evenodd" clip-rule="evenodd" fill="#EAEAEA" d="M67.1,41.8h-66c-0.6,0-1.1,0.6-1.1,1.4V67
				c0,0.8,0.5,1.4,1.1,1.4h66c0.6,0,1.1-0.6,1.1-1.4V43.2C68.1,42.4,67.7,41.8,67.1,41.8z"/>
		</g>
	</g>
</g>
<g id="grey_box_copy_1_">
	<g id="Rectangle_14_copy_1_">
		<g>
			<polygon fill-rule="evenodd" clip-rule="evenodd" fill="#646361" points="119.5,38.9 111.7,46.7 119.5,54.5 127.3,46.7 			"/>
		</g>
	</g>
	<g id="Rounded_Rectangle_1_1_">
		<g>
			<path fill-rule="evenodd" clip-rule="evenodd" fill="#646361" d="M153.3,41.8h-66c-0.6,0-1.1,0.6-1.1,1.4V67
				c0,0.8,0.5,1.4,1.1,1.4h66c0.6,0,1.1-0.6,1.1-1.4V43.2C154.4,42.4,153.9,41.8,153.3,41.8z"/>
		</g>
	</g>
</g>
<g id="grey_box_copy_3_1_">
	<g id="Rectangle_14_copy_3_">
		<g>
			<polygon fill-rule="evenodd" clip-rule="evenodd" fill="#646361" points="292.1,38.9 284.3,46.7 292.1,54.5 299.9,46.7 			"/>
		</g>
	</g>
	<g id="Rounded_Rectangle_1_3_">
		<g>
			<path fill-rule="evenodd" clip-rule="evenodd" fill="#646361" d="M326,41.8h-66c-0.6,0-1.1,0.6-1.1,1.4V67c0,0.8,0.5,1.4,1.1,1.4
				h66c0.6,0,1.1-0.6,1.1-1.4V43.2C327.1,42.4,326.6,41.8,326,41.8z"/>
		</g>
	</g>
</g>
<g id="Step4_1_" enable-background="new    ">
	<g id="Ellipse_5">
		<g>
			<ellipse fill-rule="evenodd" clip-rule="evenodd" fill="#D33E0B" cx="292.9" cy="11.1" rx="11.1" ry="11.1"/>
		</g>
	</g>
	<g id="Rectangle_14">
		<g>
			<polygon fill-rule="evenodd" clip-rule="evenodd" fill="#D33E0B" points="292.8,11 285,18.8 292.8,26.7 300.7,18.8 			"/>
		</g>
	</g>
	<g id="Vector_Smart_Object_xA0_Image_7_">
	</g>
	<g id="STEP_4">
		<text transform="matrix(1.001 0 0 1 282.363 34.1644)"><tspan x="0" y="0" fill="#646361" font-family="'Arial-BoldMT'" font-size="6.2222">S</tspan><tspan x="3.9" y="0" fill="#646361" font-family="'Arial-BoldMT'" font-size="6.2222">T</tspan><tspan x="7.7" y="0" fill="#646361" font-family="'Arial-BoldMT'" font-size="6.2222">EP</tspan><tspan x="15.5" y="0" fill="#646361" font-family="'Arial-BoldMT'" font-size="6.2222"> </tspan><tspan x="17.4" y="0" fill="#646361" font-family="'Arial-BoldMT'" font-size="6.2222">4</tspan></text>
	</g>
	<g id="Text_4_1_">
		<g id="Rectangle_14_copy_4_">
			<g>
				<polygon fill-rule="evenodd" clip-rule="evenodd" fill="#646361" points="292.3,43.8 284.5,51.6 292.3,59.4 300.1,51.6 				"/>
			</g>
		</g>
		<g id="We_x2019_ll_take_care_of_the_rest_and_you_x2019_ll_be_with_us_within_5_week_1_">
			<rect x="264.8" y="46.7" fill="none" width="58" height="27.4"/>
			<text transform="matrix(1.0007 0 0 1 264.8216 50.4748)"><tspan x="0" y="0" fill="#FFFFFF" font-family="'ArialMT'" font-size="5.3333">We’ll take care of the </tspan><tspan x="0" y="6.4" fill="#FFFFFF" font-family="'ArialMT'" font-size="5.3333">rest and you’ll be with us </tspan><tspan x="0" y="12.8" fill="#FFFFFF" font-family="'ArialMT'" font-size="5.3333">within 5 weeks </tspan></text>
			<rect x="178" y="46.7" fill="none" width="58" height="27.4"/>
			<text transform="matrix(1.0007 0 0 1 178.0218 50.4748)"><tspan x="0" y="0" fill="#FFFFFF" font-family="'ArialMT'" font-size="5.3333">You’ll get a welcome </tspan><tspan x="0" y="6.4" fill="#FFFFFF" font-family="'ArialMT'" font-size="5.3333">pack in the post or by </tspan><tspan x="0" y="12.8" fill="#FFFFFF" font-family="'ArialMT'" font-size="5.3333">email</tspan><tspan x="12.5" y="12.8" fill="#FFFFFF" font-family="'FontAwesome'" font-size="5.3333"> </tspan><tspan x="13.8" y="12.8" fill="#FFFFFF" font-family="'ArialMT'" font-size="5.3333"> </tspan></text>
			<rect x="91.2" y="50" fill="none" width="58" height="27.4"/>
			<text transform="matrix(1.0007 0 0 1 91.222 53.7824)"><tspan x="0" y="0" fill="#FFFFFF" font-family="'ArialMT'" font-size="5.3333">You’ll get an email </tspan><tspan x="0" y="6.4" fill="#FFFFFF" font-family="'ArialMT'" font-size="5.3333">confirming your details</tspan></text>
		</g>
	</g>
</g>
<g id="Step3_1_" enable-background="new    ">
	<g id="Ellipse_5_1_">
		<g>
			<ellipse fill-rule="evenodd" clip-rule="evenodd" fill="#D33E0B" cx="119.3" cy="11.1" rx="11.1" ry="11.1"/>
		</g>
	</g>
	<g id="Rectangle_14_1_">
		<g>
			<polygon fill-rule="evenodd" clip-rule="evenodd" fill="#D33E0B" points="205.7,11 197.8,18.8 205.7,26.7 213.6,18.8 			"/>
		</g>
	</g>
	<g id="STEP_3">
		<text transform="matrix(1.001 0 0 1 196.1413 34.1644)"><tspan x="0" y="0" fill="#646361" font-family="'Arial-BoldMT'" font-size="6.2222">S</tspan><tspan x="3.9" y="0" fill="#646361" font-family="'Arial-BoldMT'" font-size="6.2222">T</tspan><tspan x="7.7" y="0" fill="#646361" font-family="'Arial-BoldMT'" font-size="6.2222">EP</tspan><tspan x="15.5" y="0" fill="#646361" font-family="'Arial-BoldMT'" font-size="6.2222"> </tspan><tspan x="17.4" y="0" fill="#646361" font-family="'Arial-BoldMT'" font-size="6.2222">3</tspan></text>
	</g>
	<g id="Text_3_1_">
		<g id="You_x2019_ll_get_a_welcome_pack_in_the_post_or_by_email_1_">
		</g>
	</g>
</g>
<g id="Step2_1_" enable-background="new    ">
	<g id="Rectangle_14_2_">
		<g>
			<polygon fill-rule="evenodd" clip-rule="evenodd" fill="#D33E0B" points="119.3,11 111.4,18.8 119.3,26.7 127.1,18.8 			"/>
		</g>
	</g>
	<g id="Ellipse_5_2_">
		<g>
			<ellipse fill-rule="evenodd" clip-rule="evenodd" fill="#D33E0B" cx="205.6" cy="11.1" rx="11.1" ry="11.1"/>
		</g>
	</g>
	<g id="Vector_Smart_Object_xA0_Image_5_">
		<g id="Paper_Sheets_2_2_">
			<path fill="#FFFFFF" d="M211,4.9h-9c-0.1,0-0.2,0.1-0.2,0.2v0.9h-0.9c-0.1,0-0.2,0.1-0.2,0.2v11.3c0,0.1,0.1,0.2,0.2,0.2h9
				c0.1,0,0.2-0.1,0.2-0.2v-0.9h0.9c0.1,0,0.2-0.1,0.2-0.2V5C211.1,5,211.1,4.9,211,4.9z M201.1,17.2v-11h8.7v11H201.1z M209.9,5.9
				h-7.8V5.2h8.7v11h-0.7V6.1C210.1,6,210,5.9,209.9,5.9z"/>
			<path fill="#FFFFFF" d="M207.8,8.5H203c-0.1,0-0.2,0.1-0.2,0.2c0,0.1,0.1,0.2,0.2,0.2h4.8c0.1,0,0.2-0.1,0.2-0.2
				C208,8.6,207.9,8.5,207.8,8.5z"/>
			<path fill="#FFFFFF" d="M207.8,10.5H203c-0.1,0-0.2,0.1-0.2,0.2c0,0.1,0.1,0.2,0.2,0.2h4.8c0.1,0,0.2-0.1,0.2-0.2
				C208,10.6,207.9,10.5,207.8,10.5z"/>
			<path fill="#FFFFFF" d="M207.8,12.6H203c-0.1,0-0.2,0.1-0.2,0.2c0,0.1,0.1,0.2,0.2,0.2h4.8c0.1,0,0.2-0.1,0.2-0.2
				C208,12.7,207.9,12.6,207.8,12.6z"/>
			<path fill="#FFFFFF" d="M204.8,14.7H203c-0.1,0-0.2,0.1-0.2,0.2c0,0.1,0.1,0.2,0.2,0.2h1.8c0.1,0,0.2-0.1,0.2-0.2
				C204.9,14.7,204.9,14.7,204.8,14.7z"/>
		</g>
	</g>
	<g id="Vector_Smart_Object_xA0_Image_3_">
		<path id="Arrow_Up_2_" fill="#FFFFFF" d="M290.1,6l-3.4,3.4c0,0,0,0.1,0,0.2l3.4,3.4c0,0,0.1,0,0.1,0c0,0,0.1,0,0.1,0l1.1-1.1
			c0,0,0-0.1,0-0.2l-1.3-1.3h3.7c0.1,0,0.1-0.1,0.1-0.1V8.7c0-0.1-0.1-0.1-0.1-0.1h-3.7l1.3-1.3c0,0,0-0.1,0-0.2L290.3,6
			C290.3,6,290.2,6,290.1,6z M289.9,8.8h3.9v1.4h-3.9c0,0-0.1,0-0.1,0.1c0,0,0,0.1,0,0.1l1.4,1.4l-1,1L287,9.5l3.2-3.2l1,1l-1.4,1.4
			c0,0,0,0.1,0,0.1C289.8,8.8,289.8,8.8,289.9,8.8z"/>
		<path id="Arrow_Down_2_" fill="#FFFFFF" d="M295.3,11.9l-1.1,1.1c0,0,0,0.1,0,0.1c0,0,0,0.1,0,0.1l1.3,1.3h-3.7
			c-0.1,0-0.1,0.1-0.1,0.1v1.6c0,0.1,0.1,0.1,0.1,0.1h3.7l-1.3,1.3c0,0,0,0.1,0,0.2l1.1,1.1c0,0,0.1,0,0.2,0l3.4-3.4
			c0,0,0-0.1,0-0.1c0,0,0-0.1,0-0.1l-3.4-3.4C295.4,11.9,295.4,11.9,295.3,11.9z M295.7,16.1h-3.9v-1.4h3.9c0,0,0.1,0,0.1-0.1
			c0,0,0-0.1,0-0.1l-1.4-1.4l1-1l3.2,3.2l-3.2,3.2l-1-1l1.4-1.4c0,0,0-0.1,0-0.1C295.8,16.1,295.8,16.1,295.7,16.1z"/>
	</g>
	<g id="STEP_2">
		<text transform="matrix(1.001 0 0 1 110.1411 34.1644)"><tspan x="0" y="0" fill="#646361" font-family="'Arial-BoldMT'" font-size="6.2222">S</tspan><tspan x="3.9" y="0" fill="#646361" font-family="'Arial-BoldMT'" font-size="6.2222">T</tspan><tspan x="7.7" y="0" fill="#646361" font-family="'Arial-BoldMT'" font-size="6.2222">EP</tspan><tspan x="15.5" y="0" fill="#646361" font-family="'Arial-BoldMT'" font-size="6.2222"> </tspan><tspan x="17.4" y="0" fill="#646361" font-family="'Arial-BoldMT'" font-size="6.2222">2</tspan></text>
	</g>
	<g id="Text_2_1_">
		<g id="You_x2019_ll_get_an_email_confirming_your_details_1_">
		</g>
	</g>
</g>
<g id="Step1_1_" enable-background="new    ">
	<g id="Ellipse_5_copy_2">
		<g>
			<circle fill-rule="evenodd" clip-rule="evenodd" fill="#EE7202" cx="32.6" cy="11.6" r="11"/>
		</g>
	</g>
	<g id="Rectangle_14_copy_5">
		<g>
			<polygon fill-rule="evenodd" clip-rule="evenodd" fill="#EE7202" points="40.2,3.6 32.4,11.6 40.2,19.6 48,11.6 			"/>
		</g>
	</g>
	<g id="Vector_Smart_Object_xA0_Image_1_">
		<path id="Envelope__x2F__Mail_Open_2_" fill="#FFFFFF" d="M126,8.4L126,8.4C126,8.3,126,8.3,126,8.4l-1.2-0.9V4.7
			c0-0.1-0.1-0.2-0.2-0.2h-4l-1.2-0.9c-0.1,0-0.2,0-0.2,0l-1.2,0.9h-4c-0.1,0-0.2,0.1-0.2,0.2v2.8l-1.1,0.8l0,0v0c0,0,0,0,0,0l0,0
			l0,7.4c0,0.1,0.1,0.2,0.2,0.2h13.1c0.1,0,0.2-0.1,0.2-0.2L126,8.4L126,8.4z M124.8,9v-1l0.7,0.5L124.8,9z M124.5,9.2l-5.2,3.7
			l-5.2-3.7l0-4.4h10.4V9.2z M119.4,13.3l6.3-4.5v6.8h-12.8V8.8l6.3,4.5C119.2,13.3,119.3,13.3,119.4,13.3z M118.6,4.5l0.7-0.5
			l0.7,0.5H118.6z M113,8.5l0.7-0.5l0,1L113,8.5z"/>
	</g>
	<g id="_x0D_">
		<rect x="-2.4" y="30.7" fill="none" width="71.1" height="32"/>
	</g>
	<g id="STEP_1">
		<text transform="matrix(1.001 0 0 1 23.9188 34.1644)"><tspan x="0" y="0" fill="#646361" font-family="'Arial-BoldMT'" font-size="6.2222">S</tspan><tspan x="3.9" y="0" fill="#646361" font-family="'Arial-BoldMT'" font-size="6.2222">T</tspan><tspan x="7.7" y="0" fill="#646361" font-family="'Arial-BoldMT'" font-size="6.2222">EP</tspan><tspan x="15.5" y="0" fill="#646361" font-family="'Arial-BoldMT'" font-size="6.2222"> </tspan><tspan x="17.4" y="0" fill="#646361" font-family="'Arial-BoldMT'" font-size="6.2222">1</tspan></text>
	</g>
</g>
<g id="Sign_up_for_energy__xF00C__xA0___x0D_">
	<path id="Home_1_" fill="#FFFFFF" d="M40.1,10.8l-7.3-7.6c-0.1-0.1-0.2-0.1-0.3,0l-7.3,7.6c-0.1,0.1-0.1,0.2,0,0.3
		c0.1,0.1,0.2,0.1,0.3,0l1.1-1.1v6.5c0,0.1,0.1,0.2,0.2,0.2h4c0.1,0,0.2-0.1,0.2-0.2v-4.5h3.3v4.5c0,0.1,0.1,0.2,0.2,0.2h4
		c0.1,0,0.2-0.1,0.2-0.2V9.9l1.1,1.1c0.1,0.1,0.2,0.1,0.3,0C40.1,11,40.1,10.9,40.1,10.8z M30.6,11.7v4.5H27V9.5l5.6-5.9l5.6,5.9
		v6.7h-3.6v-4.5c0-0.1-0.1-0.2-0.2-0.2h-3.7C30.7,11.5,30.6,11.6,30.6,11.7z"/>
	<text transform="matrix(1 0 0 1 6.6334 56.4478)"><tspan x="0" y="0" fill="#646361" font-family="'ArialMT'" font-size="5.3333">Sign up for energy </tspan><tspan x="44.1" y="0" fill="#EE7202" font-family="'FontAwesome'" font-size="5.3333">  </tspan></text>
</g>
</svg>
