<?xml version="1.0" encoding="utf-8"?>
<!-- Generator: Adobe Illustrator 18.0.0, SVG Export Plug-In . SVG Version: 6.00 Build 0)  -->
<!DOCTYPE svg PUBLIC "-//W3C//DTD SVG 1.1//EN" "http://www.w3.org/Graphics/SVG/1.1/DTD/svg11.dtd">
<svg version="1.1" id="Layer_1" xmlns="http://www.w3.org/2000/svg" xmlns:xlink="http://www.w3.org/1999/xlink" x="0px" y="0px"
	 viewBox="0 0 160 69.3" enable-background="new 0 0 160 69.3" xml:space="preserve">
<g>
	<g>
		<path fill="#22346A" d="M31.4,44.9h4V41c-2-0.2-4,0.3-4,2.5V44.9z"/>
		<path fill="#22346A" d="M26.4,46.1c-4.2,0.1-6.3,1.5-6.3,5.7v10.4h4V51.8c0-2,0.7-2.3,2.3-2.3c1-0.1,1.3,0.1,2.2-0.4
			c0.8-0.4,1.1-1.4,1.1-2.9C28.6,46.2,27.7,46.1,26.4,46.1"/>
		<path fill="#22346A" d="M5.3,52.8H11c2.2,0,2.8,0.8,2.8,2.9c0,2.1-0.7,3-2.8,3H5.3V52.8z M18,55.9c0-3.4-1.5-4.6-3.5-5.1
			c1.7-0.7,2.9-1.7,2.9-4.7c0-4.2-2-5.7-6.1-5.7h-10v21.7h10.5C15.7,62.2,18,60.6,18,55.9 M5.3,49.5v-5.7h5.1c2.3,0,2.9,0.8,2.9,2.8
			c0,2-0.6,2.9-2.9,2.9H5.3z"/>
		<path fill="#22346A" d="M52.1,44.9h4V41c-2-0.2-4,0.3-4,2.5V44.9z"/>
	</g>
	<rect x="52.1" y="46.3" fill="#22346A" width="4" height="15.9"/>
	<g>
		<path fill="#22346A" d="M83.9,46.1c-2.1,0-4.8,1.1-6.4,1.8V40c-2-0.2-4,0.3-4,2.5v19.7h4V51.1c1.8-0.7,3.8-1.4,5.2-1.4
			c1.2,0,1.9,0.7,1.9,1.8v10.6h4V51.4C88.4,48,87.2,46.1,83.9,46.1"/>
	</g>
	<rect x="31.4" y="46.3" fill="#22346A" width="4" height="15.9"/>
	<g>
		<path fill="#22346A" d="M44.3,49.5h2.8c2.1,0,2.9-0.9,2.7-3.2h-5.5V41c-2-0.2-4,0.3-4,2.5v2.8h-3v3.2h3v7.2c0,4,1.6,5.7,5.8,5.7
			c1.3,0,2.3-0.1,3.3-0.2l-0.1-3.2c-0.7,0.1-1.9,0.1-2.8,0.1c-1.5,0-2.3-0.5-2.3-2.2V49.5z"/>
		<path fill="#22346A" d="M62.2,50.7c0-1,0.8-1.4,1.8-1.4c1.7,0,3.2,0.1,4.2,0.1c1.8,0.1,2.7-0.9,2.6-3c-1.2-0.1-4-0.3-6.2-0.3
			c-3.5,0-6.1,1.3-6.1,4.6c0,3.4,1.9,4.3,5.4,4.9c3.2,0.5,3.8,0.7,3.8,1.9c0,1.3-1.5,1.5-2.9,1.5c-2.1,0-4.4-0.1-5.8-0.3l-0.2,3.3
			c1.5,0.1,3.7,0.3,6.1,0.3c4.1,0,6.7-1.3,6.7-4.7c0-3.3-1.7-4.3-5.2-4.9C63.1,52.2,62.2,52,62.2,50.7"/>
		<path fill="#22346A" d="M115.1,49.6h-8.2c-0.2,2.4,0.6,3.4,2.7,3.4h1.4v5.4c-1.1,0.2-3.7,0.4-4.8,0.4c-3.3,0-4.5-1.3-4.5-7.7
			c0-6.2,0.9-7.7,6.1-7.3l3.5,0.3c2.3,0.1,3.2-1.1,3.2-3.1c-1.6-0.3-5.8-0.7-7.6-0.7c-7.5,0-9.5,2.1-9.5,11c0,8.6,2.4,11.1,8.6,11.1
			c2.3,0,6.8-0.5,9.1-1V49.6z"/>
		<path fill="#22346A" d="M137.7,50.7c0-1,0.8-1.4,1.8-1.4c1.7,0,3.2,0.1,4.2,0.1c1.8,0.1,2.7-0.9,2.6-3c-1.2-0.1-4-0.3-6.2-0.3
			c-3.5,0-6.1,1.3-6.1,4.6c0,3.4,1.9,4.3,5.4,4.9c3.2,0.5,3.8,0.7,3.8,1.9c0,1.3-1.5,1.5-2.9,1.5c-2.1,0-4.4-0.1-5.8-0.3l-0.2,3.3
			c1.5,0.1,3.7,0.3,6.1,0.3c4.1,0,6.7-1.3,6.7-4.7c0-3.3-1.7-4.3-5.2-4.9C138.6,52.2,137.7,52,137.7,50.7"/>
		<path fill="#22346A" d="M127.6,59.2c-1,0.1-3.1,0.2-4.7,0.2c-1.6,0-1.8-1-1.8-2c0-1.5,0.7-1.8,2.3-2.1c1.4-0.3,2.7-0.4,4.3-0.5
			V59.2z M131.6,51.2c0-3.3-1.3-5-5.4-5c-2.5,0-5.8,0.3-7.3,0.5c0,2,0.5,3,2.2,3c1.2,0,3.4-0.1,4.8-0.1c1.2,0,1.8,0.4,1.8,1.8v0.6
			c-1.8,0.1-3.4,0.3-4.9,0.5c-3.5,0.5-5.5,1.5-5.5,5c0,3.1,1.6,5,4.9,5c3.5,0,7.4-0.3,9.5-0.5V51.2z"/>
	</g>
	<g>
		<defs>
			<path id="SVGID_1_" d="M134.5,9.2c0,0-5.4,1.8-8.3,4.3c-1.9,1.5-3.1,3.6-3.6,5.9c2-1.1,4.1-1.8,4.1-1.8l19.4-6.3
				c0,0,0.8,14.7-7.9,21.2c2.5-0.5,5.4-1.6,8.8-3.5c12.8-7.3,11.8-27.7,11.8-27.7L134.5,9.2z"/>
		</defs>
		<clipPath id="SVGID_2_">
			<use xlink:href="#SVGID_1_"  overflow="visible"/>
		</clipPath>
		
			<linearGradient id="SVGID_3_" gradientUnits="userSpaceOnUse" x1="-326.7946" y1="346.8688" x2="-325.8744" y2="346.8688" gradientTransform="matrix(-10.8261 -23.2166 -23.2166 10.8261 4662.1699 -11313.0947)">
			<stop  offset="0" style="stop-color:#29AAE1"/>
			<stop  offset="0.136" style="stop-color:#239AD5"/>
			<stop  offset="0.8" style="stop-color:#05509F"/>
			<stop  offset="0.8474" style="stop-color:#124899"/>
			<stop  offset="0.9388" style="stop-color:#273B91"/>
			<stop  offset="1" style="stop-color:#2E368E"/>
		</linearGradient>
		<polygon clip-path="url(#SVGID_2_)" fill="url(#SVGID_3_)" points="129.3,46.7 110.7,6.9 153.2,-13 171.8,26.9 		"/>
	</g>
	<g>
		<defs>
			<path id="SVGID_4_" d="M120.2,21.1c-2,1.6-3.1,4-3.1,6.6c0,4.9,4.3,8.8,9.7,8.8l0,0c2.6,0.1,5.9-0.7,10-3c0.5-0.3,1-0.6,1.5-1
				c-1.4,0.3-2.6,0.4-3.8,0.3v0c-6.7,0-12.1-5-12.1-11.1c0-0.8,0.1-1.6,0.3-2.4C121.7,19.9,120.9,20.4,120.2,21.1"/>
		</defs>
		<clipPath id="SVGID_5_">
			<use xlink:href="#SVGID_4_"  overflow="visible"/>
		</clipPath>
		
			<linearGradient id="SVGID_6_" gradientUnits="userSpaceOnUse" x1="-356.0151" y1="341.7877" x2="-355.0947" y2="341.7877" gradientTransform="matrix(20.6304 11.9109 11.9109 -20.6304 3392.3074 11314.4268)">
			<stop  offset="0" style="stop-color:#D5DF41"/>
			<stop  offset="5.022317e-002" style="stop-color:#C8D941"/>
			<stop  offset="0.3989" style="stop-color:#73B341"/>
			<stop  offset="0.6841" style="stop-color:#359740"/>
			<stop  offset="0.8916" style="stop-color:#0F8640"/>
			<stop  offset="1" style="stop-color:#007F40"/>
		</linearGradient>
		<polygon clip-path="url(#SVGID_5_)" fill="url(#SVGID_6_)" points="122.4,10.2 145.7,23.7 133,45.8 109.6,32.3 		"/>
	</g>
</g>
<g>
	<path fill="#009BE1" d="M1.4,34.7v-12h4.7c2.3,0,3.2,0.9,3.2,2.6v1.2c0,1-0.4,1.5-1.3,1.9c1.1,0.2,1.7,1,1.7,2.2v1.3
		c0,1.7-1.1,2.8-3.3,2.8H1.4z M7,25.5c0-0.7-0.4-1-1.2-1H3.6v3.2h2.2c0.9,0,1.2-0.4,1.2-1.1V25.5z M7.4,30.7c0-0.8-0.4-1.2-1.3-1.2
		H3.6v3.3h2.3c1,0,1.5-0.3,1.5-1.2V30.7z"/>
	<path fill="#009BE1" d="M15.2,33c0.8,0,1.7-0.1,2.7-0.4l0.3,1.7c-1,0.4-2.2,0.6-3.2,0.6c-2.8,0-3.7-1.3-3.7-3.4v-2.3
		c0-1.9,0.8-3.4,3.6-3.4c2.8,0,3.4,1.6,3.4,3.5v1.9h-4.9v0.4C13.4,32.6,13.8,33,15.2,33z M13.4,29.4h2.8v-0.4c0-0.8-0.3-1.4-1.3-1.4
		c-1.1,0-1.5,0.6-1.5,1.4V29.4z"/>
	<path fill="#009BE1" d="M25,34.5c-0.5,0.2-1.4,0.3-1.9,0.3c-1.6,0-2.4-0.8-2.4-2.3v-4.9h-1.3v-1.7h1.3v-2.2l2.2-0.3v2.5h2.3
		l-0.1,1.7h-2.1v4.6c0,0.5,0.2,0.8,0.8,0.8c0.3,0,0.7-0.1,1.1-0.2L25,34.5z"/>
	<path fill="#009BE1" d="M33.2,34.7h-1.8l-0.2-0.6c-0.8,0.5-1.7,0.8-2.6,0.8c-1.6,0-2.3-1.1-2.3-2.6c0-1.8,0.8-2.5,2.6-2.5H31v-0.9
		c0-1-0.3-1.3-1.7-1.3c-0.8,0-1.7,0.1-2.4,0.3l-0.3-1.7c0.8-0.3,2-0.4,3-0.4c2.8,0,3.6,1,3.6,3.2V34.7z M31,31.4h-1.6
		c-0.7,0-0.9,0.2-0.9,0.9c0,0.6,0.2,0.9,0.9,0.9c0.6,0,1.2-0.2,1.7-0.5V31.4z"/>
</g>
</svg>
