<?xml version="1.0" encoding="utf-8"?>
<!-- Generator: Adobe Illustrator 18.0.0, SVG Export Plug-In . SVG Version: 6.00 Build 0)  -->
<!DOCTYPE svg PUBLIC "-//W3C//DTD SVG 1.1//EN" "http://www.w3.org/Graphics/SVG/1.1/DTD/svg11.dtd">
<svg version="1.1" id="Layer_2" xmlns="http://www.w3.org/2000/svg" xmlns:xlink="http://www.w3.org/1999/xlink" x="0px" y="0px"
	 width="43.9px" height="51.4px" viewBox="0 0 43.9 51.4" enable-background="new 0 0 43.9 51.4" xml:space="preserve">
<g>
	<path fill="#00AAEB" d="M34.7,47.9c-0.3,0-0.6-0.1-0.9-0.4C33.5,47,33.6,46.3,34,46c7.3-5.4,8.3-13.7,2.9-23.9
		c-0.4,1.2-1,2.7-2.2,4.2c-0.3,0.4-0.7,0.5-1.2,0.4c-0.4-0.1-0.7-0.5-0.7-1c0-0.5-0.6-12.9-16.3-21c0.9,3.8,1.6,11.2-4.3,17.4
		c-0.3,0.3-0.7,0.4-1.1,0.3c-0.4-0.1-0.7-0.5-0.7-0.9l-0.3-1.9c-2.5,3.8-7.4,12-6.6,19c0.4,3,1.8,5.5,4.2,7.4c0.5,0.4,0.5,1,0.2,1.5
		c-0.4,0.5-1,0.5-1.5,0.2c-2.9-2.3-4.6-5.3-5-8.9C0.3,28.5,9.6,16.6,10,16.1c0.3-0.3,0.7-0.5,1.1-0.4c0.4,0.1,0.7,0.4,0.8,0.9
		l0.3,2.1c5-7.2,1.7-15.7,1.6-15.8c-0.2-0.4-0.1-0.9,0.2-1.2c0.3-0.3,0.8-0.4,1.2-0.2c14,6.3,18.1,15.9,19.2,20.8
		c0.9-2,0.8-3.4,0.8-3.5c0-0.5,0.3-0.9,0.8-1.1c0.5-0.1,1,0.1,1.2,0.5c9.6,15.8,4.2,24.6-2,29.3C35.1,47.8,34.9,47.9,34.7,47.9z"/>
	<path fill="#00AAEB" d="M26.4,48.7c11.3-9.4-3-28.3-3-28.3s-1.3,15.1-5.5,6.5c-12.1,16.2-1.2,21.8-1.2,21.8S21.8,52.5,26.4,48.7z"
		/>
</g>
</svg>
