<?xml version="1.0" encoding="utf-8"?>
<!-- Generator: Adobe Illustrator 18.0.0, SVG Export Plug-In . SVG Version: 6.00 Build 0)  -->
<!DOCTYPE svg PUBLIC "-//W3C//DTD SVG 1.1//EN" "http://www.w3.org/Graphics/SVG/1.1/DTD/svg11.dtd">
<svg version="1.1" id="Layer_1" xmlns="http://www.w3.org/2000/svg" xmlns:xlink="http://www.w3.org/1999/xlink" x="0px" y="0px"
	 viewBox="0 0 100 100" enable-background="new 0 0 100 100" xml:space="preserve">
<g>
	<path fill="#FFFFFF" d="M55.9,55.1c-0.4,0-0.8,0.1-1.3,0.4c-0.4,0.2-1.2,0.6-1.2,1.1v-6.7h-3v21h3v-1.6c0,0.5,0.7,0.8,1.2,1
		c0.4,0.2,0.9,0.3,1.5,0.3c0.8,0,1.4-0.3,1.8-0.9c0.4-0.6,0.6-1.4,0.6-2.5v-8.4c0-1.2-0.1-2.2-0.6-2.8
		C57.3,55.4,56.8,55.1,55.9,55.1z M55.4,66.8c0,0.5,0.1,0.8-0.1,1c-0.2,0.2-0.3,0.3-0.7,0.3c-0.2,0-0.4-0.1-0.6-0.2
		c-0.2-0.1-0.6-0.3-0.6-0.5v-9.4c0-0.2,0.4-0.4,0.6-0.5c0.2-0.1,0.4-0.1,0.6-0.1c0.4,0,0.5,0.1,0.7,0.4c0.2,0.3,0.1,0.7,0.1,1.2
		V66.8z"/>
	<path fill="#FFFFFF" d="M65,54.9c-1.3,0-2.4,0.4-3.2,1.2c-0.8,0.8-1.3,1.9-1.3,3.2v6.8c0,1.5,0.5,2.6,1.2,3.4
		c0.7,0.8,1.8,1.2,3,1.2c1.4,0,2.7-0.4,3.4-1.2c0.7-0.8,1.3-1.9,1.3-3.5v-1.3h-3V66c0,0.9-0.3,1.5-0.4,1.7c-0.2,0.3-0.6,0.4-1.1,0.4
		c-0.4,0-0.9-0.2-1.1-0.5c-0.2-0.3-0.4-0.9-0.4-1.7v-3.3h6v-3.4c0-1.4-0.6-2.5-1.3-3.3C67.5,55.2,66.3,54.9,65,54.9z M66.4,60.8h-3
		v-1.5c0-0.6,0.2-1.1,0.4-1.4c0.2-0.3,0.6-0.4,1-0.4c0.4,0,0.9,0.1,1.1,0.4c0.2,0.3,0.5,0.7,0.5,1.4V60.8z"/>
	<path fill="#FFFFFF" d="M45.4,66.7c-1,0.3-0.8,0.6-1.1,0.8c-0.3,0.2-0.7,0.3-0.9,0.3c-0.3,0-0.6-0.1-0.7-0.2
		c-0.1-0.2-0.3-0.4-0.3-0.8V54.8h-3v13.1c0,0.9,0.3,1.6,0.7,2c0.3,0.4,0.9,0.7,1.6,0.7c0.5,0,1.3-0.2,1.9-0.5
		c0.6-0.3,0.9-0.8,1.9-1.4v2.1h2v-16h-2V66.7z"/>
	<polygon fill="#FFFFFF" points="39.4,49.8 30.4,49.8 30.4,52.8 33.4,52.8 33.4,70.8 36.4,70.8 36.4,52.8 39.4,52.8 	"/>
	<path fill="#FFFFFF" d="M50,4.3C24.7,4.3,4.3,24.7,4.3,50S24.7,95.8,50,95.8S95.8,75.3,95.8,50S75.3,4.3,50,4.3z M56.4,26.8h3v12
		c0,0.4-0.2,0.6,0,0.8c0.1,0.2,0.2,0.2,0.5,0.2c0.2,0,0.4-0.1,0.8-0.3c0.3-0.2,0.8-0.5,0.8-0.8V26.8h3v16h-3v-2.2
		c-1,0.6-1.1,1.1-1.6,1.4c-0.6,0.3-1.1,0.5-1.6,0.5c-0.6,0-1-0.2-1.3-0.7c-0.3-0.4-0.4-1.1-0.4-2V26.8z M49.8,26.8
		c1.2,0,1.9,0.4,2.7,1.1c0.7,0.7,0.9,1.7,0.9,2.8v7.8c0,1.3-0.2,2.3-0.9,3c-0.7,0.7-1.6,1.1-2.9,1.1c-1.2,0-2.3-0.4-3-1.1
		c-0.7-0.8-1.2-1.8-1.2-3.1v-7.8c0-1.2,0.5-2.1,1.2-2.8C47.4,27.1,48.5,26.8,49.8,26.8z M38.3,21.8l2.1,8h0.2l2-8h3.2l-3.3,12v9h-3
		v-8.6l-4.3-12.4H38.3z M72.5,69.3c0,3.6-3,6.6-6.7,6.6c-5.3,0.2-10.7,0.3-16.2,0.3c-5.5,0-10.9-0.1-16.2-0.3c-3.7,0-6.7-3-6.7-6.6
		c-0.2-2.9-0.3-5.8-0.3-8.7c0-2.9,0.1-5.8,0.3-8.7c0-3.6,3-6.6,6.7-6.6c5.3-0.2,10.7-0.3,16.2-0.3c5.5,0,10.9,0.1,16.2,0.3
		c3.7,0,6.7,3,6.7,6.6c0.2,2.9,0.3,5.8,0.3,8.7C72.8,63.5,72.7,66.4,72.5,69.3z"/>
	<path fill="#FFFFFF" d="M49.7,40c0.4,0,0.4-0.1,0.7-0.3c0.2-0.2,0.1-0.5,0.1-1v-8.2c0-0.3,0.1-0.6-0.1-0.8
		c-0.2-0.2-0.4-0.3-0.8-0.3c-0.3,0-0.6,0.1-0.8,0.3c-0.2,0.2-0.3,0.5-0.3,0.8v8.2c0,0.4,0.1,0.7,0.3,1C49,39.9,49.3,40,49.7,40z"/>
	<path fill="#FFFFFF" d="M48.4,30.5c0-0.3,0.2-0.6,0.4-0.8c0.2-0.2,0.5-0.3,0.9-0.3c0.4,0,0.4,0.1,0.7,0.3c0.2,0.2,0.1,0.5,0.1,0.8
		v8.2c0,0.4,0.1,0.7-0.1,1c-0.2,0.2-0.4,0.3-0.8,0.3c-0.4,0-0.6-0.1-0.8-0.3c-0.2-0.2-0.3-0.5-0.3-1V30.5z"/>
</g>
</svg>
