<?xml version="1.0" encoding="utf-8"?>
<!-- Generator: Adobe Illustrator 18.0.0, SVG Export Plug-In . SVG Version: 6.00 Build 0)  -->
<!DOCTYPE svg PUBLIC "-//W3C//DTD SVG 1.1//EN" "http://www.w3.org/Graphics/SVG/1.1/DTD/svg11.dtd">
<svg version="1.1" id="Layer_1" xmlns="http://www.w3.org/2000/svg" xmlns:xlink="http://www.w3.org/1999/xlink" x="0px" y="0px"
	 viewBox="0 0 100 100" enable-background="new 0 0 100 100" xml:space="preserve">
<g>
	<path fill="#FFFFFF" d="M50,4.3C24.7,4.3,4.3,24.7,4.3,50S24.7,95.8,50,95.8S95.8,75.3,95.8,50S75.3,4.3,50,4.3z M37.7,69.5
		c-3.2,0-5.8-2.6-5.8-5.8c0-3.2,2.6-5.8,5.8-5.8c3.2,0,5.8,2.6,5.8,5.8C43.5,66.9,40.9,69.5,37.7,69.5z M52.2,69
		c0-5-2.1-10.3-5.9-14.1C42.5,51,38,49.2,32,49.2v-8.3C48,40.8,60.6,54,60.6,69H52.2z M67,69c0-18-16-34.6-35-34.6v-8.3
		C56,26.1,75.3,46,75.3,69H67z"/>
</g>
</svg>
