<?xml version="1.0" encoding="utf-8"?>
<!-- Generator: Adobe Illustrator 18.0.0, SVG Export Plug-In . SVG Version: 6.00 Build 0)  -->
<!DOCTYPE svg PUBLIC "-//W3C//DTD SVG 1.1//EN" "http://www.w3.org/Graphics/SVG/1.1/DTD/svg11.dtd">
<svg version="1.1" id="Layer_1" xmlns="http://www.w3.org/2000/svg" xmlns:xlink="http://www.w3.org/1999/xlink" x="0px" y="0px"
	 viewBox="0 0 100 100" enable-background="new 0 0 100 100" xml:space="preserve">
<path fill="#FFFFFF" d="M50.3,4.5C25,4.5,4.5,25,4.5,50.3S25,96,50.3,96S96,75.5,96,50.3S75.5,4.5,50.3,4.5z M73,51.3
	c-4.8,19.3-36.7,27.5-51.4,7.5c5.6,5.4,15.4,5.8,21.6-0.6c-3.6,0.5-6.3-3-1.8-5c-4,0.4-6.3-1.7-7.2-3.5c0.9-1,2-1.5,4-1.6
	c-4.4-1-6-3.2-6.5-5.8c1.2-0.3,2.8-0.5,3.6-0.4c-3.9-2-5.2-5.1-5-7.3c6.9,2.6,11.3,4.6,15,6.6c1.3,0.7,2.8,2,4.4,3.6
	c2.1-5.6,4.7-11.3,9.1-14.1c-0.1,0.6-0.4,1.2-0.9,1.7c1.3-1.1,2.9-1.9,4.6-2.2c-0.2,1.3-2,2-3.1,2.4c0.8-0.3,5.2-2.2,5.7-1.1
	c0.6,1.3-3,1.8-3.6,2.1c-0.5,0.2-0.9,0.3-1.4,0.5c5.5-0.6,10.8,4,12.4,9.7c0.1,0.4,0.2,0.9,0.3,1.3c2,0.8,5.7,0,6.9-0.8
	c-0.9,2-3.1,3.5-6.4,3.8c1.6,0.7,4.6,1,6.6,0.7C78.6,50.1,76.5,51.3,73,51.3z"/>
</svg>
