<?xml version="1.0" encoding="utf-8"?>
<!-- Generator: Adobe Illustrator 18.0.0, SVG Export Plug-In . SVG Version: 6.00 Build 0)  -->
<!DOCTYPE svg PUBLIC "-//W3C//DTD SVG 1.1//EN" "http://www.w3.org/Graphics/SVG/1.1/DTD/svg11.dtd">
<svg version="1.1" id="steps_1_" xmlns="http://www.w3.org/2000/svg" xmlns:xlink="http://www.w3.org/1999/xlink" x="0px" y="0px"
	 viewBox="0 0 327.1 68.4" enable-background="new 0 0 327.1 68.4" xml:space="preserve">
<g id="grey_box_copy_2_1_">
	<g id="Rectangle_14_copy_2_">
		<g>
			<polygon fill-rule="evenodd" clip-rule="evenodd" fill="#646361" points="205.9,38.9 198.1,46.7 205.9,54.5 213.7,46.7 			"/>
		</g>
	</g>
	<g id="Rounded_Rectangle_1_2_">
		<g>
			<path fill-rule="evenodd" clip-rule="evenodd" fill="#646361" d="M239.8,41.8h-66c-0.6,0-1.1,0.6-1.1,1.4V67
				c0,0.8,0.5,1.4,1.1,1.4h66c0.6,0,1.1-0.6,1.1-1.4V43.2C240.9,42.4,240.4,41.8,239.8,41.8z"/>
		</g>
	</g>
</g>
<g id="Rectangle_13_copy_4">
	<g>
		<rect x="31" y="11.2" fill-rule="evenodd" clip-rule="evenodd" fill="#AFAFAF" width="253.1" height="0.7"/>
	</g>
</g>
<g id="grey_box_1_">
	<g id="Rectangle_14_copy">
		<g>
			<polygon fill-rule="evenodd" clip-rule="evenodd" fill="#EAEAEA" points="33.2,38.9 25.4,46.7 33.2,54.5 41,46.7 			"/>
		</g>
	</g>
	<g id="Rounded_Rectangle_1">
		<g>
			<path fill-rule="evenodd" clip-rule="evenodd" fill="#EAEAEA" d="M67.1,41.8h-66c-0.6,0-1.1,0.6-1.1,1.4V67
				c0,0.8,0.5,1.4,1.1,1.4h66c0.6,0,1.1-0.6,1.1-1.4V43.2C68.1,42.4,67.7,41.8,67.1,41.8z"/>
		</g>
	</g>
</g>
<g id="grey_box_copy_1_">
	<g id="Rectangle_14_copy_1_">
		<g>
			<polygon fill-rule="evenodd" clip-rule="evenodd" fill="#646361" points="119.5,38.9 111.7,46.7 119.5,54.5 127.3,46.7 			"/>
		</g>
	</g>
	<g id="Rounded_Rectangle_1_1_">
		<g>
			<path fill-rule="evenodd" clip-rule="evenodd" fill="#646361" d="M153.3,41.8h-66c-0.6,0-1.1,0.6-1.1,1.4V67
				c0,0.8,0.5,1.4,1.1,1.4h66c0.6,0,1.1-0.6,1.1-1.4V43.2C154.4,42.4,153.9,41.8,153.3,41.8z"/>
		</g>
	</g>
</g>
<g id="grey_box_copy_3_1_">
	<g id="Rectangle_14_copy_3_">
		<g>
			<polygon fill-rule="evenodd" clip-rule="evenodd" fill="#646361" points="292.1,38.9 284.3,46.7 292.1,54.5 299.9,46.7 			"/>
		</g>
	</g>
	<g id="Rounded_Rectangle_1_3_">
		<g>
			<path fill-rule="evenodd" clip-rule="evenodd" fill="#646361" d="M326,41.8h-66c-0.6,0-1.1,0.6-1.1,1.4V67c0,0.8,0.5,1.4,1.1,1.4
				h66c0.6,0,1.1-0.6,1.1-1.4V43.2C327.1,42.4,326.6,41.8,326,41.8z"/>
		</g>
	</g>
</g>
<g id="Step4_1_" enable-background="new    ">
	<g id="Ellipse_5">
		<g>
			<ellipse fill-rule="evenodd" clip-rule="evenodd" fill="#002D6D" cx="292.9" cy="11.1" rx="11.1" ry="11.1"/>
		</g>
	</g>
	<g id="Rectangle_14">
		<g>
			<polygon fill-rule="evenodd" clip-rule="evenodd" fill="#002D6D" points="292.8,11 285,18.8 292.8,26.7 300.7,18.8 			"/>
		</g>
	</g>
	<g id="Vector_Smart_Object_xA0_Image_7_">
	</g>
	<g id="STEP_4">
		<text transform="matrix(1.001 0 0 1 282.363 34.1644)"><tspan x="0" y="0" fill="#646361" font-family="'Arial-BoldMT'" font-size="6.2222">S</tspan><tspan x="3.9" y="0" fill="#646361" font-family="'Arial-BoldMT'" font-size="6.2222">T</tspan><tspan x="7.7" y="0" fill="#646361" font-family="'Arial-BoldMT'" font-size="6.2222">EP</tspan><tspan x="15.5" y="0" fill="#646361" font-family="'Arial-BoldMT'" font-size="6.2222"> </tspan><tspan x="17.4" y="0" fill="#646361" font-family="'Arial-BoldMT'" font-size="6.2222">4</tspan></text>
	</g>
	<g id="Text_4_1_">
		<g id="Rectangle_14_copy_4_">
			<g>
				<polygon fill-rule="evenodd" clip-rule="evenodd" fill="#646361" points="292.3,43.8 284.5,51.6 292.3,59.4 300.1,51.6 				"/>
			</g>
		</g>
		<g id="We_x2019_ll_take_care_of_the_rest_and_you_x2019_ll_be_with_us_within_5_week_1_">
			<rect x="264.8" y="46.7" fill="none" width="58" height="27.4"/>
			<text transform="matrix(1.0007 0 0 1 264.8216 50.4748)"><tspan x="0" y="0" fill="#FFFFFF" font-family="'ArialMT'" font-size="5.3333">We’ll take care of the </tspan><tspan x="0" y="6.4" fill="#FFFFFF" font-family="'ArialMT'" font-size="5.3333">rest and you’ll be with us </tspan><tspan x="0" y="12.8" fill="#FFFFFF" font-family="'ArialMT'" font-size="5.3333">within 5 weeks </tspan></text>
			<rect x="178" y="46.7" fill="none" width="58" height="27.4"/>
			<text transform="matrix(1.0007 0 0 1 178.0218 50.4748)"><tspan x="0" y="0" fill="#FFFFFF" font-family="'ArialMT'" font-size="5.3333">You’ll get a welcome </tspan><tspan x="0" y="6.4" fill="#FFFFFF" font-family="'ArialMT'" font-size="5.3333">pack in the post or by </tspan><tspan x="0" y="12.8" fill="#FFFFFF" font-family="'ArialMT'" font-size="5.3333">email</tspan><tspan x="12.5" y="12.8" fill="#FFFFFF" font-family="'FontAwesome'" font-size="5.3333"> </tspan><tspan x="13.8" y="12.8" fill="#FFFFFF" font-family="'ArialMT'" font-size="5.3333"> </tspan></text>
			<rect x="91.2" y="50" fill="none" width="58" height="27.4"/>
			<text transform="matrix(1.0007 0 0 1 91.222 53.7824)"><tspan x="0" y="0" fill="#FFFFFF" font-family="'ArialMT'" font-size="5.3333">You’ll get an email </tspan><tspan x="0" y="6.4" fill="#FFFFFF" font-family="'ArialMT'" font-size="5.3333">confirming your details</tspan></text>
		</g>
	</g>
</g>
<g id="Step3_1_" enable-background="new    ">
	<g id="Ellipse_5_1_">
		<g>
			<ellipse fill-rule="evenodd" clip-rule="evenodd" fill="#002D6D" cx="119.3" cy="11.1" rx="11.1" ry="11.1"/>
		</g>
	</g>
	<g id="Rectangle_14_1_">
		<g>
			<polygon fill-rule="evenodd" clip-rule="evenodd" fill="#002D6D" points="205.7,11 197.8,18.8 205.7,26.7 213.6,18.8 			"/>
		</g>
	</g>
	<g id="STEP_3">
		<text transform="matrix(1.001 0 0 1 196.1413 34.1644)"><tspan x="0" y="0" fill="#646361" font-family="'Arial-BoldMT'" font-size="6.2222">S</tspan><tspan x="3.9" y="0" fill="#646361" font-family="'Arial-BoldMT'" font-size="6.2222">T</tspan><tspan x="7.7" y="0" fill="#646361" font-family="'Arial-BoldMT'" font-size="6.2222">EP</tspan><tspan x="15.5" y="0" fill="#646361" font-family="'Arial-BoldMT'" font-size="6.2222"> </tspan><tspan x="17.4" y="0" fill="#646361" font-family="'Arial-BoldMT'" font-size="6.2222">3</tspan></text>
	</g>
	<g id="Text_3_1_">
		<g id="You_x2019_ll_get_a_welcome_pack_in_the_post_or_by_email_1_">
		</g>
	</g>
</g>
<g id="Step2_1_" enable-background="new    ">
	<g id="Rectangle_14_2_">
		<g>
			<polygon fill-rule="evenodd" clip-rule="evenodd" fill="#002D6D" points="119.3,11 111.4,18.8 119.3,26.7 127.1,18.8 			"/>
		</g>
	</g>
	<g id="Ellipse_5_2_">
		<g>
			<ellipse fill-rule="evenodd" clip-rule="evenodd" fill="#002D6D" cx="205.6" cy="11.1" rx="11.1" ry="11.1"/>
		</g>
	</g>
	<g id="Vector_Smart_Object_xA0_Image_3_">
		<g>
			<path fill="#FFFFFF" d="M291.7,10.9c0-0.5-0.4-0.9-0.9-0.9h-1.9l1.9-1.9c0.7-0.7,1.5-1,2.5-1c0.9,0,1.8,0.4,2.5,1
				c0.2,0.2,0.4,0.3,0.6,0.3c0.2,0,0.5-0.1,0.6-0.3c0.2-0.2,0.3-0.4,0.3-0.6c0-0.2-0.1-0.5-0.3-0.6c-1-1-2.3-1.5-3.7-1.5
				c-1.4,0-2.7,0.6-3.7,1.5l-1.9,1.9V6.9c0-0.5-0.4-0.9-0.9-0.9c-0.5,0-0.9,0.4-0.9,0.9v4c0,0.1,0,0.2,0.1,0.3
				c0.1,0.2,0.3,0.4,0.5,0.5c0.1,0,0.2,0.1,0.3,0.1h4C291.3,11.8,291.7,11.4,291.7,10.9z M286.6,11.3c-0.1,0-0.2-0.1-0.2-0.2
				c0-0.1,0-0.1,0-0.2v-4c0-0.2,0.2-0.4,0.4-0.4s0.4,0.2,0.4,0.4v3l2.7-2.7c0.9-0.9,2.1-1.4,3.4-1.4s2.5,0.5,3.4,1.4
				c0.2,0.2,0.2,0.4,0,0.6c-0.1,0.1-0.2,0.1-0.3,0.1c-0.1,0-0.2,0-0.3-0.1c-0.7-0.7-1.7-1.2-2.8-1.2s-2.1,0.4-2.8,1.2l-2.7,2.7h3
				c0.2,0,0.4,0.2,0.4,0.4c0,0.2-0.2,0.4-0.4,0.4h-4C286.7,11.4,286.7,11.3,286.6,11.3z"/>
			<path fill="#FFFFFF" d="M299,12.2c0-0.1,0-0.1,0-0.2c0-0.1-0.1-0.2-0.2-0.2c-0.1,0-0.1,0-0.2,0h-4c-0.2,0-0.4,0.2-0.4,0.4
				s0.2,0.4,0.4,0.4h3l-2.7,2.7c-1.5,1.5-4.1,1.5-5.6,0c-0.2-0.2-0.4-0.2-0.6,0c-0.2,0.2-0.2,0.4,0,0.6c0.9,0.9,2.2,1.4,3.4,1.4
				c1.2,0,2.5-0.5,3.4-1.4l2.7-2.7v3c0,0.2,0.2,0.4,0.4,0.4s0.4-0.2,0.4-0.4L299,12.2C299,12.2,299,12.2,299,12.2z"/>
		</g>
	</g>
	<g id="STEP_2">
		<text transform="matrix(1.001 0 0 1 110.1411 34.1644)"><tspan x="0" y="0" fill="#646361" font-family="'Arial-BoldMT'" font-size="6.2222">S</tspan><tspan x="3.9" y="0" fill="#646361" font-family="'Arial-BoldMT'" font-size="6.2222">T</tspan><tspan x="7.7" y="0" fill="#646361" font-family="'Arial-BoldMT'" font-size="6.2222">EP</tspan><tspan x="15.5" y="0" fill="#646361" font-family="'Arial-BoldMT'" font-size="6.2222"> </tspan><tspan x="17.4" y="0" fill="#646361" font-family="'Arial-BoldMT'" font-size="6.2222">2</tspan></text>
	</g>
	<g id="Text_2_1_">
		<g id="You_x2019_ll_get_an_email_confirming_your_details_1_">
		</g>
	</g>
	<g id="Vector_Smart_Object_xA0_Image_5_">
	</g>
</g>
<g id="Step1_1_" enable-background="new    ">
	<g id="Ellipse_5_copy_2">
		<g>
			<circle fill-rule="evenodd" clip-rule="evenodd" fill="#009BE1" cx="32.6" cy="11.6" r="11"/>
		</g>
	</g>
	<g id="Rectangle_14_copy_5">
		<g>
			<polygon fill-rule="evenodd" clip-rule="evenodd" fill="#009BE1" points="40.2,3.6 32.4,11.6 40.2,19.6 48,11.6 			"/>
		</g>
	</g>
	<g id="Vector_Smart_Object_xA0_Image_1_">
		<path fill="#FFFFFF" d="M124.6,6.5h-10.8c-0.6,0-1.1,0.5-1.1,1.1v7.3c0,0.6,0.5,1.1,1.1,1.1h10.8c0.6,0,1.1-0.5,1.1-1.1V7.5
			C125.7,7,125.2,6.5,124.6,6.5z M113.9,7h10.8c0.3,0,0.5,0.2,0.5,0.5v0.6l-5.2,3.7c-0.4,0.2-1,0.2-1.3,0l-5.3-3.7V7.5
			C113.4,7.3,113.6,7,113.9,7z M125.1,8.5V14l-3.9-2.8L125.1,8.5z M117.3,11.2l-4,2.8V8.4L117.3,11.2z M124.6,15.4h-10.8
			c-0.3,0-0.5-0.2-0.5-0.5v-0.6l4.2-3l1,0.7c0.2,0.1,0.5,0.2,0.8,0.2c0.3,0,0.6-0.1,0.8-0.2l1-0.7l4.1,2.9v0.6
			C125.1,15.2,124.9,15.4,124.6,15.4z"/>
	</g>
	<g id="_x0D_">
		<rect x="-2.4" y="30.7" fill="none" width="71.1" height="32"/>
	</g>
	<g id="STEP_1">
		<text transform="matrix(1.001 0 0 1 23.9188 34.1644)"><tspan x="0" y="0" fill="#646361" font-family="'Arial-BoldMT'" font-size="6.2222">S</tspan><tspan x="3.9" y="0" fill="#646361" font-family="'Arial-BoldMT'" font-size="6.2222">T</tspan><tspan x="7.7" y="0" fill="#646361" font-family="'Arial-BoldMT'" font-size="6.2222">EP</tspan><tspan x="15.5" y="0" fill="#646361" font-family="'Arial-BoldMT'" font-size="6.2222"> </tspan><tspan x="17.4" y="0" fill="#646361" font-family="'Arial-BoldMT'" font-size="6.2222">1</tspan></text>
	</g>
</g>
<g id="Sign_up_for_energy__xF00C__xA0___x0D_">
	<text transform="matrix(1 0 0 1 7.2676 56.4479)" fill="#646361" font-family="'ArialMT'" font-size="5.3333">Sign up for energy</text>
	<g>
		<path fill="#549F00" d="M56.6,53.8l-2.2,2.2l-0.4,0.4c-0.1,0.1-0.1,0.1-0.2,0.1s-0.1,0-0.2-0.1l-0.4-0.4l-1.1-1.1
			c-0.1-0.1-0.1-0.1-0.1-0.2c0-0.1,0-0.1,0.1-0.2l0.4-0.4c0.1-0.1,0.1-0.1,0.2-0.1s0.1,0,0.2,0.1l0.9,0.9l2-2
			c0.1-0.1,0.1-0.1,0.2-0.1s0.1,0,0.2,0.1l0.4,0.4c0.1,0.1,0.1,0.1,0.1,0.2C56.7,53.6,56.7,53.7,56.6,53.8z"/>
	</g>
	<g>
		<g>
			<path fill="#FFFFFF" d="M37.1,17.6c-0.1,0-0.3-0.1-0.3-0.3c0-0.1,0.1-0.3,0.3-0.3c0.3,0,0.3-0.3,0.3-0.5v-7
				c0-0.1,0.1-0.3,0.3-0.3c0.1,0,0.3,0.1,0.3,0.3v7C37.9,17.4,37.5,17.6,37.1,17.6z"/>
			<path fill="#FFFFFF" d="M28.1,17.6c-0.4,0-0.8-0.3-0.8-1v-7c0-0.1,0.1-0.3,0.3-0.3s0.3,0.1,0.3,0.3v7c0,0.3,0.1,0.5,0.3,0.5
				c0.1,0,0.3,0.1,0.3,0.3C28.4,17.5,28.3,17.6,28.1,17.6z"/>
		</g>
		<g>
			<path fill="#FFFFFF" d="M39,11.3c-0.1,0-0.3,0-0.4-0.1l-6.4-6.4c-0.2-0.2-0.2-0.5,0-0.7c0.2-0.2,0.5-0.2,0.7,0l6.4,6.4
				c0.2,0.2,0.2,0.5,0,0.7C39.2,11.2,39.1,11.3,39,11.3z"/>
			<path fill="#FFFFFF" d="M26.2,11.3c-0.1,0-0.3,0-0.4-0.1c-0.2-0.2-0.2-0.5,0-0.7l6.4-6.4c0.2-0.2,0.5-0.2,0.7,0
				c0.2,0.2,0.2,0.5,0,0.7l-6.4,6.4C26.5,11.2,26.4,11.3,26.2,11.3z"/>
		</g>
		<g>
			
				<path fill="none" stroke="#FFFFFF" stroke-width="0.5067" stroke-linecap="round" stroke-linejoin="round" stroke-miterlimit="10" d="
				M33.6,12.7"/>
			<path fill="#FFFFFF" d="M37.1,17.6h-2.6c-0.4,0-0.7-0.3-0.7-0.7v-3.8c0-0.1-0.1-0.2-0.2-0.2h-2c-0.1,0-0.2,0.1-0.2,0.2V17
				c0,0.4-0.3,0.7-0.7,0.7h-2.6c-0.1,0-0.3-0.1-0.3-0.3c0-0.1,0.1-0.3,0.3-0.3h2.6c0.1,0,0.2-0.1,0.2-0.2v-3.8
				c0-0.4,0.3-0.7,0.7-0.7h2c0.4,0,0.7,0.3,0.7,0.7V17c0,0.1,0.1,0.2,0.2,0.2h2.6c0.1,0,0.3,0.1,0.3,0.3
				C37.3,17.5,37.2,17.6,37.1,17.6z"/>
		</g>
	</g>
	<g>
		<path fill="#FFFFFF" d="M210.5,8.1L210.5,8.1l0-0.1c0-0.1,0-0.2-0.1-0.2l-2.7-2.7c-0.1-0.1-0.1-0.1-0.2-0.1h-5.7
			c-0.6,0-0.9,0.4-0.9,1v10.5c0,0.6,0.4,1,0.9,1h7.8c0.6,0,1-0.4,1-1L210.5,8.1L210.5,8.1z M207.6,5.9l2,2h-1.5
			c-0.3,0-0.5-0.2-0.5-0.5V5.9z M209.9,8.1v8.4c0,0.3-0.2,0.3-0.3,0.3h-7.8c-0.2,0-0.3,0-0.3-0.3V6c0-0.3,0.1-0.3,0.3-0.3h5.6l0,0
			v1.7c0,0.5,0.3,0.8,0.8,0.8L209.9,8.1L209.9,8.1z"/>
		<path fill="#FFFFFF" d="M202.6,11c0,0.1,0.1,0.1,0.1,0.1h5.6c0.1,0,0.1-0.1,0.1-0.1s-0.1-0.1-0.1-0.1h-5.6
			C202.7,10.8,202.6,10.9,202.6,11z"/>
		<path fill="#FFFFFF" d="M208.3,12h-5.6c-0.1,0-0.1,0.1-0.1,0.1s0.1,0.1,0.1,0.1h5.6c0.1,0,0.1-0.1,0.1-0.1S208.4,12,208.3,12z"/>
		<path fill="#FFFFFF" d="M202.6,9.8c0,0.1,0.1,0.1,0.1,0.1h5.6c0.1,0,0.1-0.1,0.1-0.1s-0.1-0.1-0.1-0.1h-5.6
			C202.7,9.6,202.6,9.7,202.6,9.8z"/>
		<path fill="#FFFFFF" d="M208.3,13.2h-5.6c-0.1,0-0.1,0.1-0.1,0.1c0,0.1,0.1,0.1,0.1,0.1h5.6c0.1,0,0.1-0.1,0.1-0.1
			C208.4,13.3,208.4,13.2,208.3,13.2z"/>
		<path fill="#FFFFFF" d="M208.3,14.4h-1.8c-0.1,0-0.1,0.1-0.1,0.1s0.1,0.1,0.1,0.1h1.8c0.1,0,0.1-0.1,0.1-0.1
			S208.4,14.4,208.3,14.4z"/>
	</g>
</g>
</svg>
