<?xml version="1.0" encoding="utf-8"?>
<!-- Generator: Adobe Illustrator 18.0.0, SVG Export Plug-In . SVG Version: 6.00 Build 0)  -->
<!DOCTYPE svg PUBLIC "-//W3C//DTD SVG 1.1//EN" "http://www.w3.org/Graphics/SVG/1.1/DTD/svg11.dtd">
<svg version="1.1" xmlns="http://www.w3.org/2000/svg" xmlns:xlink="http://www.w3.org/1999/xlink" x="0px" y="0px" width="327.1px"
	 height="68.4px" viewBox="0 0 327.1 68.4" enable-background="new 0 0 327.1 68.4" xml:space="preserve">
<g id="steps_1_">
	<g id="grey_box_copy_2_1_">
	</g>
	<g id="Rectangle_13_copy_4">
		<g>
			<rect x="35.8" y="11.2" fill-rule="evenodd" clip-rule="evenodd" fill="#AFAFAF" width="244.3" height="0.7"/>
		</g>
	</g>
	<g id="grey_box_1_">
		<g id="Rectangle_14_copy">
			<g>
				<polygon fill-rule="evenodd" clip-rule="evenodd" fill="#EAEAEA" points="37.6,38.9 29.8,46.7 37.6,54.5 45.4,46.7 				"/>
			</g>
		</g>
		<g id="Rounded_Rectangle_1">
			<g>
				<path fill-rule="evenodd" clip-rule="evenodd" fill="#EAEAEA" d="M76.1,41.8h-75c-0.6,0-1.1,0.6-1.1,1.4V67
					c0,0.8,0.5,1.4,1.1,1.4h75c0.6,0,1.1-0.6,1.1-1.4V43.2C77.1,42.4,76.7,41.8,76.1,41.8z"/>
			</g>
		</g>
	</g>
	<g id="grey_box_copy_1_">
	</g>
	<g id="grey_box_copy_3_1_">
		<g id="Rectangle_14_copy_3_">
			<g>
				<polygon fill-rule="evenodd" clip-rule="evenodd" fill="#646361" points="287.7,38.9 279.9,46.7 287.7,54.5 295.5,46.7 				"/>
			</g>
		</g>
		<g id="Rounded_Rectangle_1_3_">
			<g>
				<path fill-rule="evenodd" clip-rule="evenodd" fill="#646361" d="M325.7,41.8h-74.4c-0.6,0-1.1,0.6-1.1,1.4V67
					c0,0.8,0.5,1.4,1.1,1.4h74.4c0.6,0,1.1-0.6,1.1-1.4V43.2C326.7,42.4,326.2,41.8,325.7,41.8z"/>
			</g>
		</g>
	</g>
	<g id="Step4_1_" enable-background="new    ">
		<g id="Vector_Smart_Object_xA0_Image_7_">
		</g>
		<g id="STEP_4">
			<g>
				<path fill="#646361" d="M278.2,32.7l0.9-0.1c0.1,0.3,0.2,0.5,0.3,0.6s0.4,0.2,0.7,0.2c0.3,0,0.5-0.1,0.7-0.2
					c0.1-0.1,0.2-0.3,0.2-0.4c0-0.1,0-0.2-0.1-0.3c-0.1-0.1-0.2-0.1-0.3-0.2c-0.1,0-0.3-0.1-0.7-0.2c-0.5-0.1-0.8-0.3-1-0.4
					c-0.3-0.2-0.4-0.5-0.4-0.9c0-0.2,0.1-0.4,0.2-0.6s0.3-0.3,0.6-0.5s0.5-0.2,0.9-0.2c0.6,0,1,0.1,1.3,0.4c0.3,0.2,0.4,0.6,0.4,1
					l-0.9,0c0-0.2-0.1-0.4-0.2-0.5s-0.3-0.2-0.6-0.2c-0.3,0-0.5,0.1-0.6,0.2c-0.1,0.1-0.1,0.2-0.1,0.3c0,0.1,0,0.2,0.1,0.3
					c0.1,0.1,0.4,0.2,0.8,0.3c0.4,0.1,0.8,0.2,1,0.3s0.4,0.3,0.5,0.5c0.1,0.2,0.2,0.4,0.2,0.7c0,0.3-0.1,0.5-0.2,0.7
					c-0.1,0.2-0.3,0.4-0.6,0.5s-0.6,0.2-1,0.2c-0.6,0-1-0.1-1.3-0.4C278.4,33.6,278.3,33.2,278.2,32.7z"/>
				<path fill="#646361" d="M283.3,34.2v-3.7H282v-0.8h3.5v0.8h-1.3v3.7H283.3z"/>
				<path fill="#646361" d="M286.2,34.2v-4.5h3.3v0.8h-2.4v1h2.2v0.8h-2.2v1.2h2.5v0.8H286.2z"/>
				<path fill="#646361" d="M290.1,34.2v-4.5h1.4c0.5,0,0.9,0,1.1,0.1c0.3,0.1,0.5,0.2,0.6,0.4c0.2,0.2,0.3,0.5,0.3,0.9
					c0,0.3,0,0.5-0.1,0.7s-0.2,0.3-0.4,0.4s-0.3,0.2-0.5,0.2c-0.2,0-0.5,0.1-0.9,0.1H291v1.7H290.1z M291,30.5v1.3h0.5
					c0.4,0,0.6,0,0.7-0.1c0.1,0,0.2-0.1,0.3-0.2c0.1-0.1,0.1-0.2,0.1-0.3c0-0.2,0-0.3-0.1-0.4c-0.1-0.1-0.2-0.2-0.4-0.2
					c-0.1,0-0.3,0-0.6,0H291z"/>
				<path fill="#646361" d="M297.3,34.2v-0.9h-1.8v-0.7l1.9-2.8h0.7v2.8h0.6v0.8h-0.6v0.9H297.3z M297.3,32.5V31l-1,1.5H297.3z"/>
			</g>
		</g>
		<g id="Text_4_1_">
			<g id="Rectangle_14_copy_7_">
				<g>
					<polygon fill-rule="evenodd" clip-rule="evenodd" fill="#646361" points="288,43.8 280.2,51.6 288,59.4 295.8,51.6 					"/>
				</g>
			</g>
			<g id="We_x2019_ll_take_care_of_the_rest_and_you_x2019_ll_be_with_us_within_5_week_1_">
			</g>
		</g>
	</g>
	<g id="Step3_1_" enable-background="new    ">
		<g id="STEP_3">
		</g>
		<g id="Text_3_1_">
			<g id="You_x2019_ll_get_a_welcome_pack_in_the_post_or_by_email_1_">
			</g>
		</g>
	</g>
	<g id="Step2_1_" enable-background="new    ">
		<g id="Rectangle_14_copy_1_">
			<g>
				<polygon fill-rule="evenodd" clip-rule="evenodd" fill="#646361" points="163.1,38.9 155.3,46.7 163.1,54.5 170.9,46.7 				"/>
			</g>
		</g>
		<g id="Rounded_Rectangle_1_1_">
			<g>
				<path fill-rule="evenodd" clip-rule="evenodd" fill="#646361" d="M201.2,41.8h-74.8c-0.6,0-1.1,0.6-1.1,1.4V67
					c0,0.8,0.5,1.4,1.1,1.4h74.8c0.6,0,1.1-0.6,1.1-1.4V43.2C202.3,42.4,201.8,41.8,201.2,41.8z"/>
			</g>
		</g>
		<g>
			<path fill="#646361" d="M154,32.7l0.9-0.1c0.1,0.3,0.2,0.5,0.3,0.6s0.4,0.2,0.7,0.2c0.3,0,0.5-0.1,0.7-0.2s0.2-0.3,0.2-0.4
				c0-0.1,0-0.2-0.1-0.3c-0.1-0.1-0.2-0.1-0.3-0.2c-0.1,0-0.3-0.1-0.7-0.2c-0.5-0.1-0.8-0.3-1-0.4c-0.3-0.2-0.4-0.5-0.4-0.9
				c0-0.2,0.1-0.4,0.2-0.6c0.1-0.2,0.3-0.3,0.6-0.5c0.2-0.1,0.5-0.2,0.9-0.2c0.6,0,1,0.1,1.3,0.4c0.3,0.2,0.4,0.6,0.4,1l-0.9,0
				c0-0.2-0.1-0.4-0.2-0.5c-0.1-0.1-0.3-0.2-0.6-0.2c-0.3,0-0.5,0.1-0.6,0.2c-0.1,0.1-0.1,0.2-0.1,0.3c0,0.1,0,0.2,0.1,0.3
				c0.1,0.1,0.4,0.2,0.8,0.3c0.4,0.1,0.8,0.2,1,0.3s0.4,0.3,0.5,0.5s0.2,0.4,0.2,0.7c0,0.3-0.1,0.5-0.2,0.7
				c-0.1,0.2-0.3,0.4-0.6,0.5c-0.3,0.1-0.6,0.2-1,0.2c-0.6,0-1-0.1-1.3-0.4C154.3,33.6,154.1,33.2,154,32.7z"/>
			<path fill="#646361" d="M159.1,34.2v-3.7h-1.3v-0.8h3.5v0.8H160v3.7H159.1z"/>
			<path fill="#646361" d="M162,34.2v-4.5h3.3v0.8h-2.4v1h2.2v0.8h-2.2v1.2h2.5v0.8H162z"/>
			<path fill="#646361" d="M165.9,34.2v-4.5h1.4c0.5,0,0.9,0,1.1,0.1c0.3,0.1,0.5,0.2,0.6,0.4c0.2,0.2,0.3,0.5,0.3,0.9
				c0,0.3,0,0.5-0.1,0.7c-0.1,0.2-0.2,0.3-0.4,0.4s-0.3,0.2-0.5,0.2c-0.2,0-0.5,0.1-0.9,0.1h-0.6v1.7H165.9z M166.8,30.5v1.3h0.5
				c0.4,0,0.6,0,0.7-0.1c0.1,0,0.2-0.1,0.3-0.2c0.1-0.1,0.1-0.2,0.1-0.3c0-0.2,0-0.3-0.1-0.4c-0.1-0.1-0.2-0.2-0.4-0.2
				c-0.1,0-0.3,0-0.6,0H166.8z"/>
			<path fill="#646361" d="M174.3,33.4v0.8h-3c0-0.3,0.1-0.6,0.3-0.9c0.2-0.3,0.5-0.6,1-1.1c0.4-0.4,0.6-0.6,0.7-0.7
				c0.1-0.2,0.2-0.4,0.2-0.5c0-0.2-0.1-0.3-0.2-0.4c-0.1-0.1-0.2-0.2-0.4-0.2c-0.2,0-0.3,0.1-0.4,0.2c-0.1,0.1-0.2,0.3-0.2,0.5
				l-0.9-0.1c0.1-0.5,0.2-0.8,0.5-1s0.6-0.3,1-0.3c0.4,0,0.8,0.1,1,0.4c0.3,0.2,0.4,0.5,0.4,0.9c0,0.2,0,0.4-0.1,0.6
				c-0.1,0.2-0.2,0.4-0.3,0.6c-0.1,0.1-0.3,0.3-0.6,0.6s-0.4,0.4-0.5,0.5s-0.1,0.2-0.2,0.2H174.3z"/>
		</g>
		<g>
			<g id="Ellipse_5">
				<g>
					<ellipse fill-rule="evenodd" clip-rule="evenodd" fill="#002D6D" cx="288.5" cy="11.1" rx="11.1" ry="11.1"/>
				</g>
			</g>
			<g id="Rectangle_14">
				<g>
					<polygon fill-rule="evenodd" clip-rule="evenodd" fill="#002D6D" points="288.4,11 280.6,18.8 288.4,26.7 296.3,18.8 					"/>
				</g>
			</g>
			<g id="Ellipse_5_1_">
				<g>
					<ellipse fill-rule="evenodd" clip-rule="evenodd" fill="#002D6D" cx="163" cy="11.1" rx="11.1" ry="11.1"/>
				</g>
			</g>
			<g id="Rectangle_14_1_">
				<g>
					<polygon fill-rule="evenodd" clip-rule="evenodd" fill="#002D6D" points="162.9,11 155.1,18.8 162.9,26.7 170.8,18.8 					"/>
				</g>
			</g>
		</g>
		<g id="Vector_Smart_Object_xA0_Image_3_">
		</g>
		<g id="STEP_2">
		</g>
		<g id="Text_2_1_">
			<g id="You_x2019_ll_get_an_email_confirming_your_details_1_">
			</g>
		</g>
		<g id="Vector_Smart_Object_xA0_Image_5_">
		</g>
	</g>
	<g id="Step1_1_" enable-background="new    ">
		<g>
			<g id="Ellipse_5_copy_2_1_">
				<g>
					<circle fill-rule="evenodd" clip-rule="evenodd" fill="#009BE1" cx="37" cy="11.6" r="11"/>
				</g>
			</g>
			<g id="Rectangle_14_copy_5_1_">
				<g>
					<polygon fill-rule="evenodd" clip-rule="evenodd" fill="#009BE1" points="44.6,3.6 36.8,11.6 44.6,19.6 52.4,11.6 					"/>
				</g>
			</g>
		</g>
		<g id="Vector_Smart_Object_xA0_Image_1_">
		</g>
		<g id="_x0D_">
			<rect x="2" y="30.7" fill="none" width="71.1" height="32"/>
		</g>
		<g id="STEP_1">
			<g>
				<path fill="#646361" d="M28.5,32.7l0.9-0.1c0.1,0.3,0.2,0.5,0.3,0.6s0.4,0.2,0.7,0.2c0.3,0,0.5-0.1,0.7-0.2s0.2-0.3,0.2-0.4
					c0-0.1,0-0.2-0.1-0.3c-0.1-0.1-0.2-0.1-0.3-0.2c-0.1,0-0.3-0.1-0.7-0.2c-0.5-0.1-0.8-0.3-1-0.4c-0.3-0.2-0.4-0.5-0.4-0.9
					c0-0.2,0.1-0.4,0.2-0.6c0.1-0.2,0.3-0.3,0.6-0.5c0.2-0.1,0.5-0.2,0.9-0.2c0.6,0,1,0.1,1.3,0.4c0.3,0.2,0.4,0.6,0.4,1l-0.9,0
					c0-0.2-0.1-0.4-0.2-0.5c-0.1-0.1-0.3-0.2-0.6-0.2c-0.3,0-0.5,0.1-0.6,0.2c-0.1,0.1-0.1,0.2-0.1,0.3c0,0.1,0,0.2,0.1,0.3
					c0.1,0.1,0.4,0.2,0.8,0.3c0.4,0.1,0.8,0.2,1,0.3s0.4,0.3,0.5,0.5c0.1,0.2,0.2,0.4,0.2,0.7c0,0.3-0.1,0.5-0.2,0.7
					c-0.1,0.2-0.3,0.4-0.6,0.5c-0.3,0.1-0.6,0.2-1,0.2c-0.6,0-1-0.1-1.3-0.4C28.8,33.6,28.6,33.2,28.5,32.7z"/>
				<path fill="#646361" d="M33.6,34.2v-3.7h-1.3v-0.8h3.5v0.8h-1.3v3.7H33.6z"/>
				<path fill="#646361" d="M36.5,34.2v-4.5h3.3v0.8h-2.4v1h2.2v0.8h-2.2v1.2h2.5v0.8H36.5z"/>
				<path fill="#646361" d="M40.4,34.2v-4.5h1.4c0.5,0,0.9,0,1.1,0.1c0.3,0.1,0.5,0.2,0.6,0.4s0.3,0.5,0.3,0.9c0,0.3,0,0.5-0.1,0.7
					c-0.1,0.2-0.2,0.3-0.4,0.4c-0.2,0.1-0.3,0.2-0.5,0.2c-0.2,0-0.5,0.1-0.9,0.1h-0.6v1.7H40.4z M41.3,30.5v1.3h0.5
					c0.4,0,0.6,0,0.7-0.1c0.1,0,0.2-0.1,0.3-0.2c0.1-0.1,0.1-0.2,0.1-0.3c0-0.2,0-0.3-0.1-0.4s-0.2-0.2-0.4-0.2c-0.1,0-0.3,0-0.6,0
					H41.3z"/>
				<path fill="#646361" d="M48.1,34.2h-0.9v-3.2c-0.3,0.3-0.7,0.5-1.1,0.6v-0.8c0.2-0.1,0.5-0.2,0.7-0.4c0.3-0.2,0.4-0.4,0.5-0.7
					h0.7V34.2z"/>
			</g>
			<g>
				<path fill="#FFFFFF" d="M38.3,15.4h-1.5V9.7c-0.6,0.5-1.2,0.9-2,1.1V9.5c0.4-0.1,0.8-0.4,1.3-0.7c0.5-0.4,0.8-0.8,1-1.3h1.2
					V15.4z"/>
			</g>
			<g>
				<path fill="#FFFFFF" d="M165.3,14v1.4H160c0.1-0.5,0.2-1,0.5-1.5c0.3-0.5,0.9-1.1,1.7-1.9c0.7-0.6,1.1-1.1,1.3-1.3
					c0.2-0.3,0.3-0.6,0.3-0.9c0-0.3-0.1-0.6-0.3-0.8c-0.2-0.2-0.4-0.3-0.8-0.3c-0.3,0-0.6,0.1-0.8,0.3c-0.2,0.2-0.3,0.5-0.3,0.9
					l-1.5-0.2c0.1-0.8,0.4-1.4,0.8-1.8s1.1-0.5,1.8-0.5c0.8,0,1.4,0.2,1.8,0.6s0.7,0.9,0.7,1.6c0,0.4-0.1,0.7-0.2,1
					c-0.1,0.3-0.3,0.7-0.6,1c-0.2,0.2-0.5,0.6-1,1s-0.8,0.7-0.9,0.9c-0.1,0.1-0.2,0.3-0.3,0.4H165.3z"/>
			</g>
			<g>
				<path fill="#FFFFFF" d="M285.9,13.3l1.5-0.2c0,0.4,0.2,0.7,0.4,0.9c0.2,0.2,0.5,0.3,0.7,0.3c0.3,0,0.6-0.1,0.8-0.4
					s0.3-0.6,0.3-1c0-0.4-0.1-0.7-0.3-0.9s-0.5-0.3-0.7-0.3c-0.2,0-0.4,0-0.7,0.1l0.2-1.2c0.4,0,0.7-0.1,0.9-0.3
					c0.2-0.2,0.3-0.4,0.3-0.7c0-0.3-0.1-0.5-0.2-0.6c-0.2-0.2-0.4-0.2-0.6-0.2c-0.3,0-0.5,0.1-0.7,0.3c-0.2,0.2-0.3,0.4-0.3,0.8
					L286,9.6c0.1-0.5,0.2-0.9,0.4-1.1c0.2-0.3,0.5-0.5,0.8-0.7c0.3-0.2,0.7-0.2,1.2-0.2c0.7,0,1.3,0.2,1.8,0.7
					c0.4,0.4,0.6,0.8,0.6,1.3c0,0.7-0.4,1.2-1.1,1.7c0.5,0.1,0.8,0.3,1.1,0.6c0.3,0.3,0.4,0.7,0.4,1.2c0,0.7-0.3,1.3-0.8,1.8
					c-0.5,0.5-1.1,0.7-1.9,0.7c-0.7,0-1.3-0.2-1.8-0.6C286.2,14.5,286,14,285.9,13.3z"/>
			</g>
		</g>
	</g>
	<g id="Sign_up_for_energy__xF00C__xA0___x0D_">
	</g>
</g>
<g id="Layer_26">
</g>
</svg>
