<?xml version="1.0" encoding="utf-8"?>
<!-- Generator: Adobe Illustrator 18.0.0, SVG Export Plug-In . SVG Version: 6.00 Build 0)  -->
<!DOCTYPE svg PUBLIC "-//W3C//DTD SVG 1.1//EN" "http://www.w3.org/Graphics/SVG/1.1/DTD/svg11.dtd">
<svg version="1.1" id="steps_1_" xmlns="http://www.w3.org/2000/svg" xmlns:xlink="http://www.w3.org/1999/xlink" x="0px" y="0px"
	 width="327.1111px" height="68.4444px" viewBox="0 0 327.1111 68.4444" enable-background="new 0 0 327.1111 68.4444"
	 xml:space="preserve">
<g id="grey_box_copy_2_1_">
</g>
<g id="Rectangle_13_copy_4">
	<g>
		<rect x="35.8196" y="11.2241" fill-rule="evenodd" clip-rule="evenodd" fill="#AFAFAF" width="244.3354" height="0.6633"/>
	</g>
</g>
<g id="grey_box_1_">
	<g id="Rectangle_14_copy">
		<g>
			<polygon fill-rule="evenodd" clip-rule="evenodd" fill="#EAEAEA" points="37.6227,38.8931 29.82,46.6911 37.6227,54.4893 
				45.4253,46.6911 			"/>
		</g>
	</g>
	<g id="Rounded_Rectangle_1">
		<g>
			<path fill-rule="evenodd" clip-rule="evenodd" fill="#EAEAEA" d="M76.062,41.7817H1.0769C0.4821,41.7817,0,42.4088,0,43.1824
				v23.8573c0,0.7736,0.4821,1.4008,1.0768,1.4008H76.062c0.5948,0,1.0769-0.6272,1.0769-1.4008V43.1824
				C77.1389,42.4088,76.6568,41.7817,76.062,41.7817z"/>
		</g>
	</g>
</g>
<g id="grey_box_copy_1_">
</g>
<g id="grey_box_copy_3_1_">
	<g id="Rectangle_14_copy_3_">
		<g>
			<polygon fill-rule="evenodd" clip-rule="evenodd" fill="#646361" points="287.7371,38.8931 279.9344,46.6911 287.7371,54.4893 
				295.5398,46.6911 			"/>
		</g>
	</g>
	<g id="Rounded_Rectangle_1_3_">
		<g>
			<path fill-rule="evenodd" clip-rule="evenodd" fill="#646361" d="M325.6516,41.7817h-74.4358
				c-0.5948,0-1.0769,0.6271-1.0769,1.4008v23.8573c0,0.7736,0.4821,1.4008,1.0769,1.4008h74.4358
				c0.5947,0,1.0769-0.6272,1.0769-1.4008V43.1824C326.7285,42.4088,326.2463,41.7817,325.6516,41.7817z"/>
		</g>
	</g>
</g>
<g id="Step4_1_" enable-background="new    ">
	<g id="Vector_Smart_Object_xA0_Image_7_">
	</g>
	<g id="STEP_4">
		<g>
			<path fill="#646361" d="M278.205,32.7154l0.876-0.085c0.0527,0.2935,0.1602,0.5093,0.3213,0.647s0.3789,0.2065,0.6523,0.2065
				c0.29,0,0.5088-0.061,0.6553-0.1836c0.1475-0.1226,0.2207-0.2661,0.2207-0.4302c0-0.105-0.0313-0.1948-0.0928-0.2686
				c-0.0615-0.0742-0.1699-0.1382-0.3242-0.1929c-0.1055-0.0366-0.3457-0.1016-0.7207-0.1948
				c-0.4824-0.1191-0.8213-0.2661-1.0156-0.4404c-0.2734-0.2451-0.4102-0.5439-0.4102-0.896c0-0.2271,0.0635-0.4395,0.1924-0.6367
				s0.3145-0.3477,0.5566-0.4512s0.5352-0.1548,0.8779-0.1548c0.5596,0,0.9805,0.1226,1.2637,0.3677
				c0.2822,0.2451,0.4307,0.5718,0.4453,0.981l-0.9004,0.0396c-0.0381-0.2285-0.1211-0.3936-0.248-0.4937
				s-0.3164-0.1504-0.5703-0.1504c-0.2607,0-0.4658,0.0537-0.6143,0.1611c-0.0947,0.0688-0.1426,0.1611-0.1426,0.2764
				c0,0.1055,0.0449,0.1953,0.1338,0.2705c0.1133,0.0952,0.3896,0.1943,0.8271,0.2979c0.4375,0.103,0.7617,0.21,0.9717,0.3203
				s0.374,0.2612,0.4932,0.4526c0.1182,0.1914,0.1777,0.4282,0.1777,0.7095c0,0.2554-0.0713,0.4941-0.2129,0.7173
				c-0.1426,0.2227-0.3428,0.3882-0.6025,0.4966s-0.583,0.1626-0.9697,0.1626c-0.5645,0-0.9971-0.1304-1.2988-0.3906
				C278.4442,33.5928,278.2645,33.2134,278.205,32.7154z"/>
			<path fill="#646361" d="M283.3124,34.1646v-3.7007h-1.3232v-0.7534h3.543v0.7534h-1.3193v3.7007H283.3124z"/>
			<path fill="#646361" d="M286.1844,34.1646v-4.4541h3.3057v0.7534h-2.4053v0.9878h2.2383v0.75h-2.2383v1.2124h2.4902v0.7505
				H286.1844z"/>
			<path fill="#646361" d="M290.0594,34.1646v-4.4541h1.4443c0.5479,0,0.9043,0.0225,1.0713,0.0669
				c0.2549,0.0669,0.4688,0.2124,0.6416,0.436c0.1719,0.2236,0.2578,0.5132,0.2578,0.8672c0,0.2734-0.0488,0.5034-0.1484,0.6899
				s-0.2256,0.3325-0.3789,0.439s-0.3086,0.1768-0.4668,0.2109c-0.2148,0.043-0.5264,0.064-0.9336,0.064h-0.5869v1.6802H290.0594z
				 M290.9598,30.4639v1.2642h0.4922c0.3555,0,0.5928-0.0234,0.7119-0.0698c0.1201-0.0469,0.2139-0.1196,0.2813-0.2188
				c0.0684-0.0996,0.1025-0.2148,0.1025-0.3467c0-0.1616-0.0479-0.2954-0.1436-0.4009c-0.0947-0.1055-0.2158-0.1709-0.3613-0.1973
				c-0.1084-0.0205-0.3242-0.0308-0.6484-0.0308H290.9598z"/>
			<path fill="#646361" d="M295.5917,32.983l0.8271-0.1006c0.0264,0.2109,0.0977,0.3716,0.2129,0.4834
				c0.1152,0.1113,0.2559,0.167,0.4199,0.167c0.1758,0,0.3242-0.0669,0.4453-0.2007c0.1201-0.1338,0.1807-0.314,0.1807-0.5405
				c0-0.2148-0.0576-0.3853-0.1729-0.5107c-0.1162-0.1255-0.2568-0.1885-0.4229-0.1885c-0.1094,0-0.2402,0.0215-0.3926,0.064
				l0.0947-0.6958c0.2305,0.0063,0.4072-0.0439,0.5293-0.1504c0.1211-0.1064,0.1816-0.2476,0.1816-0.4238
				c0-0.1499-0.0439-0.269-0.1338-0.3584c-0.0889-0.0889-0.208-0.1338-0.3555-0.1338c-0.1465,0-0.2705,0.0508-0.374,0.1519
				c-0.1035,0.1016-0.166,0.2495-0.1885,0.4438l-0.7881-0.1338c0.0547-0.2695,0.1377-0.4844,0.248-0.6455
				s0.2646-0.2876,0.4619-0.3799c0.1982-0.0923,0.4199-0.1382,0.665-0.1382c0.4199,0,0.7559,0.1338,1.0098,0.4009
				c0.209,0.2188,0.3135,0.4658,0.3135,0.7412c0,0.3911-0.2139,0.7031-0.6426,0.936c0.2559,0.0547,0.46,0.1772,0.6133,0.3677
				s0.2295,0.4204,0.2295,0.6895c0,0.3911-0.1426,0.7241-0.4287,0.9995c-0.2861,0.2759-0.6416,0.4136-1.0674,0.4136
				c-0.4033,0-0.7383-0.1162-1.0039-0.3481S295.6337,33.3575,295.5917,32.983z"/>
		</g>
	</g>
	<g id="Text_4_1_">
		<g id="Rectangle_14_copy_7_">
			<g>
				<polygon fill-rule="evenodd" clip-rule="evenodd" fill="#646361" points="287.9594,43.782 280.1567,51.58 287.9594,59.3782 
					295.762,51.58 				"/>
			</g>
		</g>
		<g id="We_x2019_ll_take_care_of_the_rest_and_you_x2019_ll_be_with_us_within_5_week_1_">
			<g>
				<path fill="#FFFFFF" d="M263.7977,50.4752V48.858l-1.4727-2.2002h0.6152l0.7529,1.1504
					c0.1387,0.2158,0.2686,0.4307,0.3887,0.6465c0.1143-0.2002,0.2529-0.4248,0.417-0.6748l0.7393-1.1221h0.5898l-1.5254,2.2002
					v1.6172H263.7977z"/>
				<path fill="#FFFFFF" d="M265.5018,49.0923c0-0.5117,0.1426-0.8916,0.4277-1.1377c0.2383-0.2051,0.5283-0.3076,0.8701-0.3076
					c0.3809,0,0.6914,0.125,0.9336,0.374c0.2412,0.249,0.3623,0.5928,0.3623,1.0322c0,0.3555-0.0537,0.6357-0.1602,0.8398
					c-0.1074,0.2041-0.2627,0.3623-0.4668,0.4756c-0.2041,0.1123-0.4268,0.1689-0.6689,0.1689c-0.3867,0-0.7002-0.124-0.9395-0.3721
					C265.6219,49.9166,265.5018,49.5591,265.5018,49.0923z M265.9843,49.0923c0,0.3545,0.0771,0.6191,0.2324,0.7959
					c0.1543,0.1758,0.3486,0.2637,0.583,0.2637c0.2334,0,0.4268-0.0879,0.5811-0.2656c0.1553-0.1768,0.2324-0.4463,0.2324-0.8096
					c0-0.3418-0.0781-0.6016-0.2334-0.7773s-0.3486-0.2646-0.5801-0.2646c-0.2344,0-0.4287,0.0879-0.583,0.2637
					C266.0614,48.4732,265.9843,48.7378,265.9843,49.0923z"/>
				<path fill="#FFFFFF" d="M270.4061,50.4752v-0.4063c-0.2158,0.3125-0.5088,0.4688-0.8789,0.4688
					c-0.1631,0-0.3154-0.0313-0.457-0.0938s-0.2471-0.1406-0.3154-0.2354s-0.1172-0.2109-0.1445-0.3477
					c-0.0195-0.0928-0.0283-0.2383-0.0283-0.4375v-1.7139h0.4688v1.5342c0,0.2441,0.0098,0.4092,0.0283,0.4941
					c0.0293,0.124,0.0928,0.2207,0.1875,0.291c0.0957,0.0703,0.2139,0.1055,0.3545,0.1055s0.2734-0.0361,0.3965-0.1084
					s0.2109-0.1699,0.2617-0.2939c0.0518-0.124,0.0771-0.3047,0.0771-0.541v-1.4814h0.4688v2.7656H270.4061z"/>
				<path fill="#FFFFFF" d="M271.4774,47.1627v-0.5439h0.5029v0.4297c0,0.2324-0.0273,0.3994-0.0811,0.502
					c-0.0742,0.1406-0.1914,0.2471-0.3486,0.3184l-0.1152-0.1855c0.0938-0.0381,0.1641-0.0986,0.21-0.1807
					s0.0713-0.1953,0.0771-0.3398H271.4774z"/>
				<path fill="#FFFFFF" d="M272.6278,50.4752v-3.8174h0.4688v3.8174H272.6278z"/>
				<path fill="#FFFFFF" d="M273.7606,50.4752v-3.8174h0.4688v3.8174H273.7606z"/>
				<path fill="#FFFFFF" d="M276.326,50.4752v-2.7656h0.4219v0.4189c0.1084-0.1963,0.207-0.3252,0.2988-0.3877
					c0.0908-0.0625,0.1914-0.0938,0.3008-0.0938c0.1582,0,0.3184,0.0508,0.4824,0.1514l-0.1621,0.4346
					c-0.1143-0.0674-0.2295-0.1016-0.3438-0.1016c-0.1025,0-0.1943,0.0313-0.2764,0.0928s-0.1396,0.1465-0.1748,0.2559
					c-0.0518,0.167-0.0781,0.3496-0.0781,0.5469v1.4482H276.326z"/>
				<path fill="#FFFFFF" d="M279.9501,49.5845l0.4854,0.0596c-0.0771,0.2832-0.2188,0.5029-0.4248,0.6592
					c-0.207,0.1563-0.4707,0.2344-0.793,0.2344c-0.4043,0-0.7256-0.125-0.9629-0.374c-0.2363-0.249-0.3555-0.5986-0.3555-1.0479
					c0-0.4648,0.1201-0.8262,0.3594-1.083c0.2402-0.2568,0.5508-0.3857,0.9336-0.3857c0.3701,0,0.6719,0.126,0.9063,0.3779
					c0.2354,0.251,0.3525,0.6055,0.3525,1.0625c0,0.0273-0.001,0.0693-0.0029,0.125h-2.0645
					c0.0176,0.3037,0.1035,0.5361,0.2588,0.6973c0.1543,0.1621,0.3467,0.2422,0.5781,0.2422c0.1719,0,0.3193-0.0449,0.4404-0.1348
					C279.7831,49.9263,279.8788,49.7828,279.9501,49.5845z M278.41,48.8267h1.5459c-0.0215-0.2324-0.0801-0.4072-0.1777-0.5234
					c-0.1494-0.1807-0.3428-0.2705-0.5811-0.2705c-0.2158,0-0.3965,0.0713-0.543,0.2158
					C278.5067,48.3931,278.4257,48.5855,278.41,48.8267z"/>
				<path fill="#FFFFFF" d="M282.7762,49.4625l0.4609,0.0596c-0.0508,0.3174-0.1797,0.5664-0.3867,0.7461
					c-0.208,0.1797-0.4629,0.2695-0.7656,0.2695c-0.3779,0-0.6826-0.124-0.9131-0.3711s-0.3457-0.6016-0.3457-1.0635
					c0-0.2988,0.0498-0.5605,0.1494-0.7842c0.0986-0.2236,0.249-0.3916,0.4521-0.5039c0.2021-0.1123,0.4219-0.168,0.6602-0.168
					c0.3008,0,0.5469,0.0762,0.7373,0.2275c0.1914,0.1523,0.3135,0.3682,0.3682,0.6475l-0.4561,0.0703
					c-0.0439-0.1855-0.1211-0.3252-0.2314-0.4189s-0.2432-0.1406-0.3994-0.1406c-0.2363,0-0.4287,0.084-0.5762,0.2539
					c-0.1475,0.1689-0.2217,0.4365-0.2217,0.8027c0,0.3721,0.0713,0.6416,0.2139,0.8105c0.1426,0.168,0.3281,0.252,0.5576,0.252
					c0.1846,0,0.3379-0.0557,0.4609-0.1689C282.6649,49.8697,282.743,49.6968,282.7762,49.4625z"/>
				<path fill="#FFFFFF" d="M285.4794,49.5845l0.4854,0.0596c-0.0771,0.2832-0.2188,0.5029-0.4248,0.6592
					c-0.207,0.1563-0.4707,0.2344-0.793,0.2344c-0.4043,0-0.7256-0.125-0.9629-0.374c-0.2363-0.249-0.3555-0.5986-0.3555-1.0479
					c0-0.4648,0.1201-0.8262,0.3594-1.083c0.2402-0.2568,0.5508-0.3857,0.9336-0.3857c0.3701,0,0.6719,0.126,0.9063,0.3779
					c0.2354,0.251,0.3525,0.6055,0.3525,1.0625c0,0.0273-0.001,0.0693-0.0029,0.125h-2.0645
					c0.0176,0.3037,0.1035,0.5361,0.2588,0.6973c0.1543,0.1621,0.3467,0.2422,0.5781,0.2422c0.1719,0,0.3193-0.0449,0.4404-0.1348
					C285.3124,49.9263,285.4081,49.7828,285.4794,49.5845z M283.9393,48.8267h1.5459c-0.0215-0.2324-0.0801-0.4072-0.1777-0.5234
					c-0.1494-0.1807-0.3428-0.2705-0.5811-0.2705c-0.2158,0-0.3965,0.0713-0.543,0.2158
					C284.036,48.3931,283.955,48.5855,283.9393,48.8267z"/>
				<path fill="#FFFFFF" d="M286.5028,47.1968v-0.5391h0.4688v0.5391H286.5028z M286.5028,50.4752v-2.7656h0.4688v2.7656H286.5028z"
					/>
				<path fill="#FFFFFF" d="M288.4003,50.4752l-1.0527-2.7656h0.4951l0.5947,1.6563c0.0645,0.1787,0.123,0.3643,0.1768,0.5576
					c0.042-0.1465,0.1006-0.3213,0.1748-0.5264l0.6152-1.6875h0.4824l-1.0479,2.7656H288.4003z"/>
				<path fill="#FFFFFF" d="M292.1425,49.5845l0.4854,0.0596c-0.0771,0.2832-0.2188,0.5029-0.4248,0.6592
					c-0.207,0.1563-0.4707,0.2344-0.793,0.2344c-0.4043,0-0.7256-0.125-0.9629-0.374c-0.2363-0.249-0.3555-0.5986-0.3555-1.0479
					c0-0.4648,0.1201-0.8262,0.3594-1.083c0.2402-0.2568,0.5508-0.3857,0.9336-0.3857c0.3701,0,0.6719,0.126,0.9063,0.3779
					c0.2354,0.251,0.3525,0.6055,0.3525,1.0625c0,0.0273-0.001,0.0693-0.0029,0.125h-2.0645
					c0.0176,0.3037,0.1035,0.5361,0.2588,0.6973c0.1543,0.1621,0.3467,0.2422,0.5781,0.2422c0.1719,0,0.3193-0.0449,0.4404-0.1348
					C291.9755,49.9263,292.0712,49.7828,292.1425,49.5845z M290.6024,48.8267h1.5459c-0.0215-0.2324-0.0801-0.4072-0.1777-0.5234
					c-0.1494-0.1807-0.3428-0.2705-0.5811-0.2705c-0.2158,0-0.3965,0.0713-0.543,0.2158
					C290.6991,48.3931,290.618,48.5855,290.6024,48.8267z"/>
				<path fill="#FFFFFF" d="M296.3973,50.1343c-0.1738,0.1475-0.3418,0.251-0.502,0.3125c-0.1611,0.0605-0.333,0.0908-0.5176,0.0908
					c-0.3037,0-0.5371-0.0742-0.7012-0.2227c-0.1631-0.1484-0.2451-0.3379-0.2451-0.5693c0-0.1348,0.0313-0.2588,0.0928-0.3711
					c0.0615-0.1113,0.1426-0.2012,0.2422-0.2695c0.1006-0.0674,0.2129-0.1182,0.3379-0.1533
					c0.0918-0.0244,0.2314-0.0479,0.417-0.0703c0.3789-0.0449,0.6572-0.0986,0.8369-0.1611c0.001-0.0645,0.002-0.1055,0.002-0.123
					c0-0.1904-0.0439-0.3252-0.1328-0.4033c-0.1201-0.1055-0.2979-0.1592-0.5342-0.1592c-0.2207,0-0.3838,0.0391-0.4883,0.1162
					c-0.1055,0.0771-0.1836,0.2139-0.2334,0.4102l-0.459-0.0625c0.042-0.1963,0.1104-0.3545,0.2061-0.4756
					c0.0957-0.1201,0.2334-0.2129,0.4141-0.2783s0.3906-0.0977,0.6279-0.0977c0.2363,0,0.4287,0.0273,0.5762,0.083
					s0.2568,0.126,0.3262,0.21s0.1182,0.1904,0.1455,0.3193c0.0156,0.0791,0.0234,0.2236,0.0234,0.4316v0.625
					c0,0.4365,0.0098,0.7119,0.0303,0.8271c0.0195,0.1152,0.0596,0.2266,0.1182,0.332h-0.4893
					C296.4423,50.3775,296.411,50.2642,296.3973,50.1343z M296.3583,49.0875c-0.1709,0.0693-0.4258,0.1279-0.7666,0.1768
					c-0.1934,0.0273-0.3291,0.0586-0.4092,0.0938s-0.1416,0.0859-0.1846,0.1523c-0.0439,0.0664-0.0654,0.1406-0.0654,0.2227
					c0,0.125,0.0469,0.2295,0.1416,0.3125s0.2334,0.125,0.416,0.125c0.1807,0,0.3408-0.0391,0.4824-0.1182
					c0.1406-0.0791,0.2432-0.1875,0.3096-0.3242c0.0508-0.1064,0.0762-0.2627,0.0762-0.4688V49.0875z"/>
				<path fill="#FFFFFF" d="M297.5057,50.4752v-2.7656h0.4229v0.3936c0.2031-0.3037,0.4961-0.4561,0.8809-0.4561
					c0.166,0,0.3193,0.0303,0.46,0.0898c0.1396,0.0596,0.2441,0.1387,0.3135,0.2354c0.0693,0.0977,0.1182,0.2129,0.1465,0.3467
					c0.0166,0.0869,0.0254,0.2383,0.0254,0.4561v1.7002h-0.4688v-1.6826c0-0.1904-0.0186-0.333-0.0547-0.4277
					c-0.0371-0.0947-0.1016-0.1709-0.1943-0.2266c-0.0928-0.0566-0.2021-0.085-0.3271-0.085c-0.1992,0-0.3721,0.0635-0.5176,0.1904
					c-0.1445,0.126-0.2168,0.3672-0.2168,0.7207v1.5107H297.5057z"/>
				<path fill="#FFFFFF" d="M303.743,49.5845l0.4854,0.0596c-0.0771,0.2832-0.2188,0.5029-0.4248,0.6592
					c-0.207,0.1563-0.4707,0.2344-0.793,0.2344c-0.4043,0-0.7256-0.125-0.9629-0.374c-0.2363-0.249-0.3555-0.5986-0.3555-1.0479
					c0-0.4648,0.1201-0.8262,0.3594-1.083c0.2402-0.2568,0.5508-0.3857,0.9336-0.3857c0.3701,0,0.6719,0.126,0.9063,0.3779
					c0.2354,0.251,0.3525,0.6055,0.3525,1.0625c0,0.0273-0.001,0.0693-0.0029,0.125h-2.0645
					c0.0176,0.3037,0.1035,0.5361,0.2588,0.6973c0.1543,0.1621,0.3467,0.2422,0.5781,0.2422c0.1719,0,0.3193-0.0449,0.4404-0.1348
					C303.576,49.9263,303.6718,49.7828,303.743,49.5845z M302.203,48.8267h1.5459c-0.0215-0.2324-0.0801-0.4072-0.1777-0.5234
					c-0.1494-0.1807-0.3428-0.2705-0.5811-0.2705c-0.2158,0-0.3965,0.0713-0.543,0.2158
					C302.2997,48.3931,302.2186,48.5855,302.203,48.8267z"/>
				<path fill="#FFFFFF" d="M304.7635,50.4752v-2.7656h0.4199v0.3877c0.0869-0.1348,0.2021-0.2441,0.3467-0.3262
					c0.1436-0.083,0.3086-0.124,0.4922-0.124c0.2051,0,0.373,0.043,0.5049,0.1279c0.1309,0.085,0.2236,0.2041,0.2773,0.3564
					c0.2188-0.3232,0.5039-0.4844,0.8545-0.4844c0.2744,0,0.4854,0.0762,0.6328,0.2275c0.1484,0.1523,0.2217,0.3857,0.2217,0.7021
					v1.8984h-0.4658V48.733c0-0.1875-0.0156-0.3223-0.0459-0.4053c-0.0303-0.082-0.0859-0.1484-0.166-0.1992
					c-0.0791-0.0498-0.1729-0.0752-0.2813-0.0752c-0.1943,0-0.3555,0.0645-0.4844,0.1943
					c-0.1289,0.1289-0.1934,0.3359-0.1934,0.6211v1.6064h-0.4688v-1.7969c0-0.208-0.0381-0.3643-0.1143-0.4688
					c-0.0771-0.1045-0.2021-0.1563-0.376-0.1563c-0.1318,0-0.2539,0.0352-0.3662,0.1045c-0.1113,0.0693-0.1924,0.1709-0.2432,0.3047
					s-0.0752,0.3262-0.0752,0.5781v1.4346H304.7635z"/>
				<path fill="#FFFFFF" d="M310.9628,50.1343c-0.1738,0.1475-0.3418,0.251-0.502,0.3125c-0.1611,0.0605-0.333,0.0908-0.5176,0.0908
					c-0.3037,0-0.5371-0.0742-0.7012-0.2227c-0.1631-0.1484-0.2451-0.3379-0.2451-0.5693c0-0.1348,0.0313-0.2588,0.0928-0.3711
					c0.0615-0.1113,0.1426-0.2012,0.2422-0.2695c0.1006-0.0674,0.2129-0.1182,0.3379-0.1533
					c0.0918-0.0244,0.2314-0.0479,0.417-0.0703c0.3789-0.0449,0.6572-0.0986,0.8369-0.1611c0.001-0.0645,0.002-0.1055,0.002-0.123
					c0-0.1904-0.0439-0.3252-0.1328-0.4033c-0.1201-0.1055-0.2979-0.1592-0.5342-0.1592c-0.2207,0-0.3838,0.0391-0.4883,0.1162
					c-0.1055,0.0771-0.1836,0.2139-0.2334,0.4102l-0.459-0.0625c0.042-0.1963,0.1104-0.3545,0.2061-0.4756
					c0.0957-0.1201,0.2334-0.2129,0.4141-0.2783s0.3906-0.0977,0.6279-0.0977c0.2363,0,0.4287,0.0273,0.5762,0.083
					s0.2568,0.126,0.3262,0.21s0.1182,0.1904,0.1455,0.3193c0.0156,0.0791,0.0234,0.2236,0.0234,0.4316v0.625
					c0,0.4365,0.0098,0.7119,0.0303,0.8271c0.0195,0.1152,0.0596,0.2266,0.1182,0.332h-0.4893
					C311.0077,50.3775,310.9764,50.2642,310.9628,50.1343z M310.9237,49.0875c-0.1709,0.0693-0.4258,0.1279-0.7666,0.1768
					c-0.1934,0.0273-0.3291,0.0586-0.4092,0.0938s-0.1416,0.0859-0.1846,0.1523c-0.0439,0.0664-0.0654,0.1406-0.0654,0.2227
					c0,0.125,0.0469,0.2295,0.1416,0.3125s0.2334,0.125,0.416,0.125c0.1807,0,0.3408-0.0391,0.4824-0.1182
					c0.1406-0.0791,0.2432-0.1875,0.3096-0.3242c0.0508-0.1064,0.0762-0.2627,0.0762-0.4688V49.0875z"/>
				<path fill="#FFFFFF" d="M312.0731,47.1968v-0.5391h0.4688v0.5391H312.0731z M312.0731,50.4752v-2.7656h0.4688v2.7656H312.0731z"
					/>
				<path fill="#FFFFFF" d="M313.1932,50.4752v-3.8174h0.4688v3.8174H313.1932z"/>
				<path fill="#FFFFFF" d="M265.6786,55.8628l0.4609,0.0596c-0.0508,0.3174-0.1797,0.5664-0.3867,0.7461
					c-0.208,0.1797-0.4629,0.2695-0.7656,0.2695c-0.3779,0-0.6826-0.124-0.9131-0.3711s-0.3457-0.6016-0.3457-1.0635
					c0-0.2988,0.0498-0.5605,0.1494-0.7842c0.0986-0.2236,0.249-0.3916,0.4521-0.5039c0.2021-0.1123,0.4219-0.168,0.6602-0.168
					c0.3008,0,0.5469,0.0762,0.7373,0.2275c0.1914,0.1523,0.3135,0.3682,0.3682,0.6475l-0.4561,0.0703
					c-0.0439-0.1855-0.1211-0.3252-0.2314-0.4189s-0.2432-0.1406-0.3994-0.1406c-0.2363,0-0.4287,0.084-0.5762,0.2539
					c-0.1475,0.1689-0.2217,0.4365-0.2217,0.8027c0,0.3721,0.0713,0.6416,0.2139,0.8105c0.1426,0.168,0.3281,0.252,0.5576,0.252
					c0.1846,0,0.3379-0.0557,0.4609-0.1689C265.5673,56.2701,265.6454,56.0972,265.6786,55.8628z"/>
				<path fill="#FFFFFF" d="M266.3124,55.4927c0-0.5117,0.1426-0.8916,0.4277-1.1377c0.2383-0.2051,0.5283-0.3076,0.8701-0.3076
					c0.3809,0,0.6914,0.125,0.9336,0.374c0.2412,0.249,0.3623,0.5928,0.3623,1.0322c0,0.3555-0.0537,0.6357-0.1602,0.8398
					c-0.1074,0.2041-0.2627,0.3623-0.4668,0.4756c-0.2041,0.1123-0.4268,0.1689-0.6689,0.1689c-0.3867,0-0.7002-0.124-0.9395-0.3721
					C266.4325,56.3169,266.3124,55.9595,266.3124,55.4927z M266.7948,55.4927c0,0.3545,0.0771,0.6191,0.2324,0.7959
					c0.1543,0.1758,0.3486,0.2637,0.583,0.2637c0.2334,0,0.4268-0.0879,0.5811-0.2656c0.1553-0.1768,0.2324-0.4463,0.2324-0.8096
					c0-0.3418-0.0781-0.6016-0.2334-0.7773s-0.3486-0.2646-0.5801-0.2646c-0.2344,0-0.4287,0.0879-0.583,0.2637
					C266.8719,54.8736,266.7948,55.1382,266.7948,55.4927z"/>
				<path fill="#FFFFFF" d="M269.4022,56.8755v-2.7656h0.4229v0.3936c0.2031-0.3037,0.4961-0.4561,0.8809-0.4561
					c0.166,0,0.3193,0.0303,0.46,0.0898c0.1396,0.0596,0.2441,0.1387,0.3135,0.2354c0.0693,0.0977,0.1182,0.2129,0.1465,0.3467
					c0.0166,0.0869,0.0254,0.2383,0.0254,0.4561v1.7002h-0.4688v-1.6826c0-0.1904-0.0186-0.333-0.0547-0.4277
					c-0.0371-0.0947-0.1016-0.1709-0.1943-0.2266c-0.0928-0.0566-0.2021-0.085-0.3271-0.085c-0.1992,0-0.3721,0.0635-0.5176,0.1904
					c-0.1445,0.126-0.2168,0.3672-0.2168,0.7207v1.5107H269.4022z"/>
				<path fill="#FFFFFF" d="M272.4286,56.8755v-2.4014h-0.4141v-0.3643h0.4141V53.816c0-0.1865,0.0166-0.3242,0.0498-0.4141
					c0.0449-0.1221,0.124-0.2207,0.2383-0.2959c0.1133-0.0752,0.2734-0.1133,0.4785-0.1133c0.1318,0,0.2773,0.0156,0.4375,0.0469
					l-0.0703,0.4092c-0.0977-0.0176-0.1895-0.0264-0.2764-0.0264c-0.1426,0-0.2432,0.0303-0.3027,0.0908
					c-0.0586,0.0615-0.0879,0.1748-0.0879,0.3418v0.2549h0.5391v0.3643h-0.5391v2.4014H272.4286z"/>
				<path fill="#FFFFFF" d="M273.7479,53.5972v-0.5391h0.4688v0.5391H273.7479z M273.7479,56.8755v-2.7656h0.4688v2.7656H273.7479z"
					/>
				<path fill="#FFFFFF" d="M274.8729,56.8755v-2.7656h0.4219v0.4189c0.1084-0.1963,0.207-0.3252,0.2988-0.3877
					c0.0908-0.0625,0.1914-0.0938,0.3008-0.0938c0.1582,0,0.3184,0.0508,0.4824,0.1514l-0.1621,0.4346
					c-0.1143-0.0674-0.2295-0.1016-0.3438-0.1016c-0.1025,0-0.1943,0.0313-0.2764,0.0928s-0.1396,0.1465-0.1748,0.2559
					c-0.0518,0.167-0.0781,0.3496-0.0781,0.5469v1.4482H274.8729z"/>
				<path fill="#FFFFFF" d="M276.6014,56.8755v-2.7656h0.4199v0.3877c0.0869-0.1348,0.2021-0.2441,0.3467-0.3262
					c0.1436-0.083,0.3086-0.124,0.4922-0.124c0.2051,0,0.373,0.043,0.5049,0.1279c0.1309,0.085,0.2236,0.2041,0.2773,0.3564
					c0.2188-0.3232,0.5039-0.4844,0.8545-0.4844c0.2744,0,0.4854,0.0762,0.6328,0.2275c0.1484,0.1523,0.2217,0.3857,0.2217,0.7021
					v1.8984h-0.4658v-1.7422c0-0.1875-0.0156-0.3223-0.0459-0.4053c-0.0303-0.082-0.0859-0.1484-0.166-0.1992
					c-0.0791-0.0498-0.1729-0.0752-0.2813-0.0752c-0.1943,0-0.3555,0.0645-0.4844,0.1943
					c-0.1289,0.1289-0.1934,0.3359-0.1934,0.6211v1.6064h-0.4688v-1.7969c0-0.208-0.0381-0.3643-0.1143-0.4688
					c-0.0771-0.1045-0.2021-0.1563-0.376-0.1563c-0.1318,0-0.2539,0.0352-0.3662,0.1045c-0.1113,0.0693-0.1924,0.1709-0.2432,0.3047
					s-0.0752,0.3262-0.0752,0.5781v1.4346H276.6014z"/>
				<path fill="#FFFFFF" d="M280.9969,53.5972v-0.5391h0.4688v0.5391H280.9969z M280.9969,56.8755v-2.7656h0.4688v2.7656H280.9969z"
					/>
				<path fill="#FFFFFF" d="M282.1268,56.8755v-2.7656h0.4229v0.3936c0.2031-0.3037,0.4961-0.4561,0.8809-0.4561
					c0.166,0,0.3193,0.0303,0.46,0.0898c0.1396,0.0596,0.2441,0.1387,0.3135,0.2354c0.0693,0.0977,0.1182,0.2129,0.1465,0.3467
					c0.0166,0.0869,0.0254,0.2383,0.0254,0.4561v1.7002h-0.4688v-1.6826c0-0.1904-0.0186-0.333-0.0547-0.4277
					c-0.0371-0.0947-0.1016-0.1709-0.1943-0.2266c-0.0928-0.0566-0.2021-0.085-0.3271-0.085c-0.1992,0-0.3721,0.0635-0.5176,0.1904
					c-0.1445,0.126-0.2168,0.3672-0.2168,0.7207v1.5107H282.1268z"/>
				<path fill="#FFFFFF" d="M284.955,57.105l0.4561,0.0674c0.0195,0.1406,0.0723,0.2432,0.1592,0.3076
					c0.1162,0.0869,0.2754,0.1299,0.4766,0.1299c0.2178,0,0.3848-0.043,0.5029-0.1299s0.1982-0.209,0.2402-0.3652
					c0.0244-0.0947,0.0352-0.2959,0.0342-0.6016c-0.2051,0.2412-0.4609,0.3623-0.7666,0.3623c-0.3809,0-0.6748-0.1367-0.8838-0.4111
					c-0.208-0.2744-0.3125-0.6035-0.3125-0.9873c0-0.2637,0.0479-0.5078,0.1436-0.7305s0.2344-0.3955,0.416-0.5166
					c0.1807-0.1221,0.3945-0.1826,0.6396-0.1826c0.3262,0,0.5957,0.1318,0.8076,0.3955v-0.333h0.4326v2.3906
					c0,0.4307-0.0439,0.7354-0.1318,0.915s-0.2266,0.3223-0.417,0.4258c-0.1904,0.1045-0.4238,0.1563-0.7021,0.1563
					c-0.3301,0-0.5967-0.0742-0.7998-0.2227S284.9481,57.4029,284.955,57.105z M285.3436,55.4429
					c0,0.3633,0.0723,0.6279,0.2158,0.7949c0.1445,0.166,0.3252,0.25,0.542,0.25c0.2158,0,0.3965-0.083,0.542-0.249
					c0.1465-0.166,0.2197-0.4258,0.2197-0.7803c0-0.3379-0.0752-0.5938-0.2256-0.7656s-0.332-0.2578-0.5439-0.2578
					c-0.208,0-0.3857,0.085-0.5313,0.2539C285.4169,54.8589,285.3436,55.1099,285.3436,55.4429z"/>
				<path fill="#FFFFFF" d="M290.4091,56.4566l0.0674,0.4141c-0.1318,0.0273-0.25,0.041-0.3545,0.041
					c-0.1699,0-0.3018-0.0264-0.3955-0.0801s-0.1602-0.125-0.1982-0.2129c-0.0381-0.0869-0.0576-0.2715-0.0576-0.5527v-1.5918
					h-0.3438v-0.3643h0.3438v-0.6846l0.4668-0.2813v0.9658h0.4717v0.3643h-0.4717v1.6172c0,0.1338,0.0078,0.2197,0.0244,0.2578
					s0.0439,0.0693,0.0811,0.0918s0.0908,0.0332,0.1602,0.0332C290.2557,56.4742,290.3241,56.4683,290.4091,56.4566z"/>
				<path fill="#FFFFFF" d="M290.8134,56.8755v-3.8174h0.4697v1.3691c0.2188-0.2529,0.4951-0.3799,0.8281-0.3799
					c0.2051,0,0.3828,0.04,0.5342,0.1211s0.2598,0.1924,0.3242,0.335c0.0654,0.1416,0.0986,0.3486,0.0986,0.6191v1.7529h-0.4697
					v-1.7529c0-0.2344-0.0508-0.4043-0.1523-0.5117c-0.1016-0.1064-0.2451-0.1602-0.4316-0.1602
					c-0.1387,0-0.2695,0.0361-0.3916,0.1084c-0.123,0.0723-0.21,0.1699-0.2617,0.293c-0.0527,0.123-0.0781,0.293-0.0781,0.5107
					v1.5127H290.8134z"/>
				<path fill="#FFFFFF" d="M295.6229,55.9849l0.4854,0.0596c-0.0771,0.2832-0.2188,0.5029-0.4248,0.6592
					c-0.207,0.1563-0.4707,0.2344-0.793,0.2344c-0.4043,0-0.7256-0.125-0.9629-0.374c-0.2363-0.249-0.3555-0.5986-0.3555-1.0479
					c0-0.4648,0.1201-0.8262,0.3594-1.083c0.2402-0.2568,0.5508-0.3857,0.9336-0.3857c0.3701,0,0.6719,0.126,0.9063,0.3779
					c0.2354,0.251,0.3525,0.6055,0.3525,1.0625c0,0.0273-0.001,0.0693-0.0029,0.125h-2.0645
					c0.0176,0.3037,0.1035,0.5361,0.2588,0.6973c0.1543,0.1621,0.3467,0.2422,0.5781,0.2422c0.1719,0,0.3193-0.0449,0.4404-0.1348
					C295.4559,56.3267,295.5516,56.1832,295.6229,55.9849z M294.0829,55.2271h1.5459c-0.0215-0.2324-0.0801-0.4072-0.1777-0.5234
					c-0.1494-0.1807-0.3428-0.2705-0.5811-0.2705c-0.2158,0-0.3965,0.0713-0.543,0.2158
					C294.1796,54.7935,294.0985,54.9859,294.0829,55.2271z"/>
				<path fill="#FFFFFF" d="M299.8671,56.8755v-0.3486c-0.1758,0.2744-0.4336,0.4111-0.7744,0.4111
					c-0.2207,0-0.4229-0.0605-0.6084-0.1826c-0.1846-0.1211-0.3281-0.291-0.4297-0.5088s-0.1523-0.4688-0.1523-0.751
					c0-0.2764,0.0459-0.5264,0.1377-0.752c0.0928-0.2246,0.2305-0.3965,0.415-0.5166c0.1836-0.1201,0.3896-0.1797,0.6172-0.1797
					c0.167,0,0.3154,0.0352,0.4453,0.1055c0.1309,0.0703,0.2363,0.1621,0.3184,0.2744v-1.3691h0.4668v3.8174H299.8671z
					 M298.3837,55.4957c0,0.3535,0.0752,0.6182,0.2246,0.7939s0.3262,0.2627,0.5293,0.2627c0.2051,0,0.3789-0.083,0.5225-0.251
					c0.1426-0.168,0.2148-0.4229,0.2148-0.7666c0-0.3789-0.0732-0.6563-0.2188-0.834c-0.1465-0.1768-0.3262-0.2656-0.54-0.2656
					c-0.208,0-0.3828,0.085-0.5225,0.2559C298.454,54.8609,298.3837,55.1294,298.3837,55.4957z"/>
				<path fill="#FFFFFF" d="M302.8807,55.9849l0.4854,0.0596c-0.0771,0.2832-0.2188,0.5029-0.4248,0.6592
					c-0.207,0.1563-0.4707,0.2344-0.793,0.2344c-0.4043,0-0.7256-0.125-0.9629-0.374c-0.2363-0.249-0.3555-0.5986-0.3555-1.0479
					c0-0.4648,0.1201-0.8262,0.3594-1.083c0.2402-0.2568,0.5508-0.3857,0.9336-0.3857c0.3701,0,0.6719,0.126,0.9063,0.3779
					c0.2354,0.251,0.3525,0.6055,0.3525,1.0625c0,0.0273-0.001,0.0693-0.0029,0.125h-2.0645
					c0.0176,0.3037,0.1035,0.5361,0.2588,0.6973c0.1543,0.1621,0.3467,0.2422,0.5781,0.2422c0.1719,0,0.3193-0.0449,0.4404-0.1348
					C302.7137,56.3267,302.8094,56.1832,302.8807,55.9849z M301.3407,55.2271h1.5459c-0.0215-0.2324-0.0801-0.4072-0.1777-0.5234
					c-0.1494-0.1807-0.3428-0.2705-0.5811-0.2705c-0.2158,0-0.3965,0.0713-0.543,0.2158
					C301.4374,54.7935,301.3563,54.9859,301.3407,55.2271z"/>
				<path fill="#FFFFFF" d="M304.9247,56.4566l0.0674,0.4141c-0.1318,0.0273-0.25,0.041-0.3545,0.041
					c-0.1699,0-0.3018-0.0264-0.3955-0.0801s-0.1602-0.125-0.1982-0.2129c-0.0381-0.0869-0.0576-0.2715-0.0576-0.5527v-1.5918
					h-0.3438v-0.3643h0.3438v-0.6846l0.4668-0.2813v0.9658h0.4717v0.3643h-0.4717v1.6172c0,0.1338,0.0078,0.2197,0.0244,0.2578
					s0.0439,0.0693,0.0811,0.0918s0.0908,0.0332,0.1602,0.0332C304.7714,56.4742,304.8397,56.4683,304.9247,56.4566z"/>
				<path fill="#FFFFFF" d="M307.1356,56.5347c-0.1738,0.1475-0.3418,0.251-0.502,0.3125c-0.1611,0.0605-0.333,0.0908-0.5176,0.0908
					c-0.3037,0-0.5371-0.0742-0.7012-0.2227c-0.1631-0.1484-0.2451-0.3379-0.2451-0.5693c0-0.1348,0.0313-0.2588,0.0928-0.3711
					c0.0615-0.1113,0.1426-0.2012,0.2422-0.2695c0.1006-0.0674,0.2129-0.1182,0.3379-0.1533
					c0.0918-0.0244,0.2314-0.0479,0.417-0.0703c0.3789-0.0449,0.6572-0.0986,0.8369-0.1611c0.001-0.0645,0.002-0.1055,0.002-0.123
					c0-0.1904-0.0439-0.3252-0.1328-0.4033c-0.1201-0.1055-0.2979-0.1592-0.5342-0.1592c-0.2207,0-0.3838,0.0391-0.4883,0.1162
					c-0.1055,0.0771-0.1836,0.2139-0.2334,0.4102l-0.459-0.0625c0.042-0.1963,0.1104-0.3545,0.2061-0.4756
					c0.0957-0.1201,0.2334-0.2129,0.4141-0.2783s0.3906-0.0977,0.6279-0.0977c0.2363,0,0.4287,0.0273,0.5762,0.083
					s0.2568,0.126,0.3262,0.21s0.1182,0.1904,0.1455,0.3193c0.0156,0.0791,0.0234,0.2236,0.0234,0.4316v0.625
					c0,0.4365,0.0098,0.7119,0.0303,0.8271c0.0195,0.1152,0.0596,0.2266,0.1182,0.332h-0.4893
					C307.1805,56.7779,307.1493,56.6646,307.1356,56.5347z M307.0966,55.4878c-0.1709,0.0693-0.4258,0.1279-0.7666,0.1768
					c-0.1934,0.0273-0.3291,0.0586-0.4092,0.0938s-0.1416,0.0859-0.1846,0.1523c-0.0439,0.0664-0.0654,0.1406-0.0654,0.2227
					c0,0.125,0.0469,0.2295,0.1416,0.3125s0.2334,0.125,0.416,0.125c0.1807,0,0.3408-0.0391,0.4824-0.1182
					c0.1406-0.0791,0.2432-0.1875,0.3096-0.3242c0.0508-0.1064,0.0762-0.2627,0.0762-0.4688V55.4878z"/>
				<path fill="#FFFFFF" d="M308.2469,53.5972v-0.5391h0.4688v0.5391H308.2469z M308.2469,56.8755v-2.7656h0.4688v2.7656H308.2469z"
					/>
				<path fill="#FFFFFF" d="M309.3661,56.8755v-3.8174h0.4688v3.8174H309.3661z"/>
				<path fill="#FFFFFF" d="M310.3202,56.0503l0.4639-0.0732c0.0264,0.1855,0.0986,0.3281,0.2178,0.4268
					c0.1191,0.0996,0.2852,0.1484,0.499,0.1484c0.2158,0,0.375-0.0439,0.4795-0.1309c0.1045-0.0879,0.1563-0.1904,0.1563-0.3086
					c0-0.1064-0.0459-0.1895-0.1377-0.25c-0.0645-0.042-0.2246-0.0947-0.4795-0.1592c-0.3447-0.0869-0.583-0.1621-0.7158-0.2256
					s-0.2334-0.1504-0.3018-0.2627c-0.0693-0.1123-0.1035-0.2354-0.1035-0.3711c0-0.123,0.0283-0.2373,0.085-0.3428
					c0.0566-0.1045,0.1328-0.1924,0.2305-0.2617c0.0732-0.0537,0.1729-0.0986,0.2988-0.1367
					c0.126-0.0371,0.2607-0.0557,0.4053-0.0557c0.2168,0,0.4072,0.0313,0.5713,0.0938s0.2861,0.1475,0.3643,0.2539
					s0.1318,0.25,0.1611,0.4287l-0.459,0.0625c-0.0205-0.1426-0.0811-0.2539-0.1807-0.334
					c-0.0996-0.0791-0.2412-0.1191-0.4238-0.1191c-0.2148,0-0.3691,0.0352-0.4609,0.1064s-0.1387,0.1543-0.1387,0.25
					c0,0.0605,0.0195,0.1152,0.0576,0.1641c0.0381,0.0508,0.0986,0.0918,0.1797,0.125c0.0469,0.0176,0.1855,0.0576,0.415,0.1201
					c0.3311,0.0879,0.5625,0.1611,0.6943,0.2168c0.1309,0.0566,0.2344,0.1387,0.3086,0.2461
					c0.0742,0.1084,0.1123,0.2412,0.1123,0.4014c0,0.1563-0.0459,0.3037-0.1367,0.4414c-0.0918,0.1377-0.2227,0.2451-0.3955,0.3203
					c-0.1719,0.0752-0.3662,0.1133-0.583,0.1133c-0.3604,0-0.6338-0.0742-0.8223-0.2236S310.3719,56.3433,310.3202,56.0503z"/>
				<path fill="#FFFFFF" d="M274.0145,61.8921c0-0.5117,0.1426-0.8916,0.4277-1.1377c0.2383-0.2051,0.5283-0.3076,0.8701-0.3076
					c0.3809,0,0.6914,0.125,0.9336,0.374c0.2412,0.249,0.3623,0.5928,0.3623,1.0322c0,0.3555-0.0537,0.6357-0.1602,0.8398
					c-0.1074,0.2041-0.2627,0.3623-0.4668,0.4756c-0.2041,0.1123-0.4268,0.1689-0.6689,0.1689c-0.3867,0-0.7002-0.124-0.9395-0.3721
					C274.1346,62.7164,274.0145,62.3589,274.0145,61.8921z M274.4969,61.8921c0,0.3545,0.0771,0.6191,0.2324,0.7959
					c0.1543,0.1758,0.3486,0.2637,0.583,0.2637c0.2334,0,0.4268-0.0879,0.5811-0.2656c0.1553-0.1768,0.2324-0.4463,0.2324-0.8096
					c0-0.3418-0.0781-0.6016-0.2334-0.7773s-0.3486-0.2646-0.5801-0.2646c-0.2344,0-0.4287,0.0879-0.583,0.2637
					C274.5741,61.273,274.4969,61.5377,274.4969,61.8921z"/>
				<path fill="#FFFFFF" d="M277.2157,63.275v-2.4014h-0.4141v-0.3643h0.4141v-0.2939c0-0.1865,0.0166-0.3242,0.0498-0.4141
					c0.0449-0.1221,0.124-0.2207,0.2383-0.2959c0.1133-0.0752,0.2734-0.1133,0.4785-0.1133c0.1318,0,0.2773,0.0156,0.4375,0.0469
					l-0.0703,0.4092c-0.0977-0.0176-0.1895-0.0264-0.2764-0.0264c-0.1426,0-0.2432,0.0303-0.3027,0.0908
					c-0.0586,0.0615-0.0879,0.1748-0.0879,0.3418v0.2549h0.5391v0.3643h-0.5391v2.4014H277.2157z"/>
				<path fill="#FFFFFF" d="M280.9862,62.856l0.0674,0.4141c-0.1318,0.0273-0.25,0.041-0.3545,0.041
					c-0.1699,0-0.3018-0.0264-0.3955-0.0801s-0.1602-0.125-0.1982-0.2129c-0.0381-0.0869-0.0576-0.2715-0.0576-0.5527v-1.5918
					h-0.3438v-0.3643h0.3438v-0.6846l0.4668-0.2813v0.9658h0.4717v0.3643h-0.4717v1.6172c0,0.1338,0.0078,0.2197,0.0244,0.2578
					s0.0439,0.0693,0.0811,0.0918s0.0908,0.0332,0.1602,0.0332C280.8329,62.8736,280.9012,62.8677,280.9862,62.856z"/>
				<path fill="#FFFFFF" d="M281.3905,63.275v-3.8174h0.4697v1.3691c0.2188-0.2529,0.4951-0.3799,0.8281-0.3799
					c0.2051,0,0.3828,0.04,0.5342,0.1211s0.2598,0.1924,0.3242,0.335c0.0654,0.1416,0.0986,0.3486,0.0986,0.6191v1.7529h-0.4697
					V61.522c0-0.2344-0.0508-0.4043-0.1523-0.5117c-0.1016-0.1064-0.2451-0.1602-0.4316-0.1602
					c-0.1387,0-0.2695,0.0361-0.3916,0.1084c-0.123,0.0723-0.21,0.1699-0.2617,0.293c-0.0527,0.123-0.0781,0.293-0.0781,0.5107
					v1.5127H281.3905z"/>
				<path fill="#FFFFFF" d="M284.3085,59.9966v-0.5391h0.4688v0.5391H284.3085z M284.3085,63.275v-2.7656h0.4688v2.7656H284.3085z"
					/>
				<path fill="#FFFFFF" d="M285.2499,62.4498l0.4639-0.0732c0.0264,0.1855,0.0986,0.3281,0.2178,0.4268
					c0.1191,0.0996,0.2852,0.1484,0.499,0.1484c0.2158,0,0.375-0.0439,0.4795-0.1309c0.1045-0.0879,0.1563-0.1904,0.1563-0.3086
					c0-0.1064-0.0459-0.1895-0.1377-0.25c-0.0645-0.042-0.2246-0.0947-0.4795-0.1592c-0.3447-0.0869-0.583-0.1621-0.7158-0.2256
					s-0.2334-0.1504-0.3018-0.2627c-0.0693-0.1123-0.1035-0.2354-0.1035-0.3711c0-0.123,0.0283-0.2373,0.085-0.3428
					c0.0566-0.1045,0.1328-0.1924,0.2305-0.2617c0.0732-0.0537,0.1729-0.0986,0.2988-0.1367
					c0.126-0.0371,0.2607-0.0557,0.4053-0.0557c0.2168,0,0.4072,0.0313,0.5713,0.0938s0.2861,0.1475,0.3643,0.2539
					s0.1318,0.25,0.1611,0.4287l-0.459,0.0625c-0.0205-0.1426-0.0811-0.2539-0.1807-0.334
					c-0.0996-0.0791-0.2412-0.1191-0.4238-0.1191c-0.2148,0-0.3691,0.0352-0.4609,0.1064s-0.1387,0.1543-0.1387,0.25
					c0,0.0605,0.0195,0.1152,0.0576,0.1641c0.0381,0.0508,0.0986,0.0918,0.1797,0.125c0.0469,0.0176,0.1855,0.0576,0.415,0.1201
					c0.3311,0.0879,0.5625,0.1611,0.6943,0.2168c0.1309,0.0566,0.2344,0.1387,0.3086,0.2461
					c0.0742,0.1084,0.1123,0.2412,0.1123,0.4014c0,0.1563-0.0459,0.3037-0.1367,0.4414c-0.0918,0.1377-0.2227,0.2451-0.3955,0.3203
					c-0.1719,0.0752-0.3662,0.1133-0.583,0.1133c-0.3604,0-0.6338-0.0742-0.8223-0.2236S285.3016,62.7427,285.2499,62.4498z"/>
				<path fill="#FFFFFF" d="M289.3075,61.8921c0-0.5117,0.1426-0.8916,0.4277-1.1377c0.2383-0.2051,0.5283-0.3076,0.8701-0.3076
					c0.3809,0,0.6914,0.125,0.9336,0.374c0.2412,0.249,0.3623,0.5928,0.3623,1.0322c0,0.3555-0.0537,0.6357-0.1602,0.8398
					c-0.1074,0.2041-0.2627,0.3623-0.4668,0.4756c-0.2041,0.1123-0.4268,0.1689-0.6689,0.1689c-0.3867,0-0.7002-0.124-0.9395-0.3721
					C289.4276,62.7164,289.3075,62.3589,289.3075,61.8921z M289.7899,61.8921c0,0.3545,0.0771,0.6191,0.2324,0.7959
					c0.1543,0.1758,0.3486,0.2637,0.583,0.2637c0.2334,0,0.4268-0.0879,0.5811-0.2656c0.1553-0.1768,0.2324-0.4463,0.2324-0.8096
					c0-0.3418-0.0781-0.6016-0.2334-0.7773s-0.3486-0.2646-0.5801-0.2646c-0.2344,0-0.4287,0.0879-0.583,0.2637
					C289.8671,61.273,289.7899,61.5377,289.7899,61.8921z"/>
				<path fill="#FFFFFF" d="M292.3915,63.275v-2.7656h0.4219v0.4189c0.1084-0.1963,0.207-0.3252,0.2988-0.3877
					c0.0908-0.0625,0.1914-0.0938,0.3008-0.0938c0.1582,0,0.3184,0.0508,0.4824,0.1514l-0.1621,0.4346
					c-0.1143-0.0674-0.2295-0.1016-0.3438-0.1016c-0.1025,0-0.1943,0.0313-0.2764,0.0928s-0.1396,0.1465-0.1748,0.2559
					c-0.0518,0.167-0.0781,0.3496-0.0781,0.5469v1.4482H292.3915z"/>
				<path fill="#FFFFFF" d="M295.9159,63.275v-0.3486c-0.1758,0.2744-0.4336,0.4111-0.7744,0.4111
					c-0.2207,0-0.4229-0.0605-0.6084-0.1826c-0.1846-0.1211-0.3281-0.291-0.4297-0.5088s-0.1523-0.4688-0.1523-0.751
					c0-0.2764,0.0459-0.5264,0.1377-0.752c0.0928-0.2246,0.2305-0.3965,0.415-0.5166c0.1836-0.1201,0.3896-0.1797,0.6172-0.1797
					c0.167,0,0.3154,0.0352,0.4453,0.1055c0.1309,0.0703,0.2363,0.1621,0.3184,0.2744v-1.3691h0.4668v3.8174H295.9159z
					 M294.4325,61.8951c0,0.3535,0.0752,0.6182,0.2246,0.7939s0.3262,0.2627,0.5293,0.2627c0.2051,0,0.3789-0.083,0.5225-0.251
					c0.1426-0.168,0.2148-0.4229,0.2148-0.7666c0-0.3789-0.0732-0.6563-0.2188-0.834c-0.1465-0.1768-0.3262-0.2656-0.54-0.2656
					c-0.208,0-0.3828,0.085-0.5225,0.2559C294.5028,61.2603,294.4325,61.5289,294.4325,61.8951z"/>
				<path fill="#FFFFFF" d="M298.9296,62.3843l0.4854,0.0596c-0.0771,0.2832-0.2188,0.5029-0.4248,0.6592
					c-0.207,0.1563-0.4707,0.2344-0.793,0.2344c-0.4043,0-0.7256-0.125-0.9629-0.374c-0.2363-0.249-0.3555-0.5986-0.3555-1.0479
					c0-0.4648,0.1201-0.8262,0.3594-1.083c0.2402-0.2568,0.5508-0.3857,0.9336-0.3857c0.3701,0,0.6719,0.126,0.9063,0.3779
					c0.2354,0.251,0.3525,0.6055,0.3525,1.0625c0,0.0273-0.001,0.0693-0.0029,0.125h-2.0645
					c0.0176,0.3037,0.1035,0.5361,0.2588,0.6973c0.1543,0.1621,0.3467,0.2422,0.5781,0.2422c0.1719,0,0.3193-0.0449,0.4404-0.1348
					C298.7626,62.7261,298.8583,62.5826,298.9296,62.3843z M297.3895,61.6265h1.5459c-0.0215-0.2324-0.0801-0.4072-0.1777-0.5234
					c-0.1494-0.1807-0.3428-0.2705-0.5811-0.2705c-0.2158,0-0.3965,0.0713-0.543,0.2158
					C297.4862,61.1929,297.4052,61.3853,297.3895,61.6265z"/>
				<path fill="#FFFFFF" d="M299.9442,63.275v-2.7656h0.4219v0.4189c0.1084-0.1963,0.207-0.3252,0.2988-0.3877
					c0.0908-0.0625,0.1914-0.0938,0.3008-0.0938c0.1582,0,0.3184,0.0508,0.4824,0.1514l-0.1621,0.4346
					c-0.1143-0.0674-0.2295-0.1016-0.3438-0.1016c-0.1025,0-0.1943,0.0313-0.2764,0.0928s-0.1396,0.1465-0.1748,0.2559
					c-0.0518,0.167-0.0781,0.3496-0.0781,0.5469v1.4482H299.9442z"/>
				<path fill="#FFFFFF" d="M301.5116,63.275v-0.5342h0.5342v0.5342H301.5116z"/>
			</g>
		</g>
	</g>
</g>
<g id="Step3_1_" enable-background="new    ">
	<g id="STEP_3">
	</g>
	<g id="Text_3_1_">
		<g id="You_x2019_ll_get_a_welcome_pack_in_the_post_or_by_email_1_">
		</g>
	</g>
</g>
<g id="Step2_1_" enable-background="new    ">
	<g id="Rectangle_14_copy_1_">
		<g>
			<polygon fill-rule="evenodd" clip-rule="evenodd" fill="#646361" points="163.1188,38.8931 155.3161,46.6911 163.1188,54.4893 
				170.9215,46.6911 			"/>
		</g>
	</g>
	<g id="Rounded_Rectangle_1_1_">
		<g>
			<path fill-rule="evenodd" clip-rule="evenodd" fill="#646361" d="M201.2287,41.7817h-74.8462
				c-0.5948,0-1.0769,0.6271-1.0769,1.4008v23.8573c0,0.7736,0.4821,1.4008,1.0769,1.4008h74.8462
				c0.5947,0,1.0769-0.6272,1.0769-1.4008V43.1824C202.3056,42.4088,201.8234,41.7817,201.2287,41.7817z"/>
		</g>
	</g>
	<g>
		<path fill="#FFFFFF" d="M138.9491,53.7828l-1.0137-3.8174h0.5186l0.5811,2.502c0.0625,0.2627,0.1162,0.5225,0.1611,0.7813
			c0.0977-0.4072,0.1553-0.6426,0.1719-0.7051l0.7275-2.5781h0.6094l0.5479,1.9316c0.1367,0.4795,0.2363,0.9297,0.2969,1.3516
			c0.0488-0.2412,0.1123-0.5176,0.1904-0.8301l0.5996-2.4531h0.5078l-1.0479,3.8174h-0.4873l-0.8047-2.9092
			c-0.0684-0.2432-0.1084-0.3916-0.1201-0.4473c-0.04,0.1748-0.0771,0.3242-0.1123,0.4473l-0.8105,2.9092H138.9491z"/>
		<path fill="#FFFFFF" d="M145.0028,52.8921l0.4854,0.0596c-0.0771,0.2832-0.2188,0.5029-0.4248,0.6592
			c-0.207,0.1563-0.4707,0.2344-0.793,0.2344c-0.4043,0-0.7256-0.125-0.9629-0.374c-0.2363-0.249-0.3555-0.5986-0.3555-1.0479
			c0-0.4648,0.1201-0.8262,0.3594-1.083c0.2402-0.2568,0.5508-0.3857,0.9336-0.3857c0.3701,0,0.6719,0.126,0.9063,0.3779
			c0.2354,0.251,0.3525,0.6055,0.3525,1.0625c0,0.0273-0.001,0.0693-0.0029,0.125h-2.0645
			c0.0176,0.3037,0.1035,0.5361,0.2588,0.6973c0.1543,0.1621,0.3467,0.2422,0.5781,0.2422c0.1719,0,0.3193-0.0449,0.4404-0.1348
			C144.8358,53.2339,144.9315,53.0904,145.0028,52.8921z M143.4628,52.1343h1.5459c-0.0215-0.2324-0.0801-0.4072-0.1777-0.5234
			c-0.1494-0.1807-0.3428-0.2705-0.5811-0.2705c-0.2158,0-0.3965,0.0713-0.543,0.2158
			C143.5595,51.7007,143.4784,51.8931,143.4628,52.1343z"/>
		<path fill="#FFFFFF" d="M146.0263,51.3169l-0.1201-0.7139v-0.6377h0.5342v0.6377l-0.125,0.7139H146.0263z"/>
		<path fill="#FFFFFF" d="M146.9784,53.7828v-3.8174h0.4688v3.8174H146.9784z"/>
		<path fill="#FFFFFF" d="M148.1102,53.7828v-3.8174h0.4688v3.8174H148.1102z"/>
		<path fill="#FFFFFF" d="M152.496,53.7828v-0.4063c-0.2158,0.3125-0.5088,0.4688-0.8789,0.4688
			c-0.1631,0-0.3154-0.0313-0.457-0.0938s-0.2471-0.1406-0.3154-0.2354s-0.1172-0.2109-0.1445-0.3477
			c-0.0195-0.0928-0.0283-0.2383-0.0283-0.4375v-1.7139h0.4688v1.5342c0,0.2441,0.0098,0.4092,0.0283,0.4941
			c0.0293,0.124,0.0928,0.2207,0.1875,0.291c0.0957,0.0703,0.2139,0.1055,0.3545,0.1055s0.2734-0.0361,0.3965-0.1084
			s0.2109-0.1699,0.2617-0.2939c0.0518-0.124,0.0771-0.3047,0.0771-0.541v-1.4814h0.4688v2.7656H152.496z"/>
		<path fill="#FFFFFF" d="M153.5956,54.8423v-3.8252h0.4277v0.3594c0.1006-0.1406,0.2148-0.2461,0.3408-0.3164
			c0.127-0.0703,0.2813-0.1055,0.4619-0.1055c0.2363,0,0.4443,0.0605,0.625,0.1826c0.1807,0.1211,0.3174,0.293,0.4092,0.5137
			c0.0918,0.2217,0.1387,0.4639,0.1387,0.7285c0,0.2822-0.0508,0.5371-0.1523,0.7637c-0.1025,0.2266-0.25,0.4004-0.4434,0.5215
			c-0.1943,0.1201-0.3975,0.1807-0.6113,0.1807c-0.1563,0-0.2969-0.0332-0.4209-0.0986c-0.124-0.0664-0.2266-0.1494-0.3057-0.25
			v1.3457H153.5956z M154.0204,52.4156c0,0.3555,0.0723,0.6191,0.2168,0.7891c0.1436,0.1699,0.3184,0.2549,0.5234,0.2549
			c0.209,0,0.3867-0.0879,0.5352-0.2637c0.1494-0.1768,0.2236-0.4492,0.2236-0.8193c0-0.3525-0.0732-0.6162-0.2178-0.792
			c-0.1455-0.1748-0.3184-0.2627-0.5205-0.2627c-0.1992,0-0.376,0.0938-0.5303,0.2803
			C154.0975,51.7886,154.0204,52.0601,154.0204,52.4156z"/>
		<path fill="#FFFFFF" d="M158.3065,53.7828v-0.3486c-0.1758,0.2744-0.4336,0.4111-0.7744,0.4111
			c-0.2207,0-0.4229-0.0605-0.6084-0.1826c-0.1846-0.1211-0.3281-0.291-0.4297-0.5088s-0.1523-0.4688-0.1523-0.751
			c0-0.2764,0.0459-0.5264,0.1377-0.752c0.0928-0.2246,0.2305-0.3965,0.415-0.5166c0.1836-0.1201,0.3896-0.1797,0.6172-0.1797
			c0.167,0,0.3154,0.0352,0.4453,0.1055c0.1309,0.0703,0.2363,0.1621,0.3184,0.2744v-1.3691h0.4668v3.8174H158.3065z
			 M156.8231,52.4029c0,0.3535,0.0752,0.6182,0.2246,0.7939s0.3262,0.2627,0.5293,0.2627c0.2051,0,0.3789-0.083,0.5225-0.251
			c0.1426-0.168,0.2148-0.4229,0.2148-0.7666c0-0.3789-0.0732-0.6563-0.2188-0.834c-0.1465-0.1768-0.3262-0.2656-0.54-0.2656
			c-0.208,0-0.3828,0.085-0.5225,0.2559C156.8934,51.7681,156.8231,52.0367,156.8231,52.4029z"/>
		<path fill="#FFFFFF" d="M161.2313,53.4419c-0.1738,0.1475-0.3418,0.251-0.502,0.3125c-0.1611,0.0605-0.333,0.0908-0.5176,0.0908
			c-0.3037,0-0.5371-0.0742-0.7012-0.2227c-0.1631-0.1484-0.2451-0.3379-0.2451-0.5693c0-0.1348,0.0313-0.2588,0.0928-0.3711
			c0.0615-0.1113,0.1426-0.2012,0.2422-0.2695c0.1006-0.0674,0.2129-0.1182,0.3379-0.1533c0.0918-0.0244,0.2314-0.0479,0.417-0.0703
			c0.3789-0.0449,0.6572-0.0986,0.8369-0.1611c0.001-0.0645,0.002-0.1055,0.002-0.123c0-0.1904-0.0439-0.3252-0.1328-0.4033
			c-0.1201-0.1055-0.2979-0.1592-0.5342-0.1592c-0.2207,0-0.3838,0.0391-0.4883,0.1162c-0.1055,0.0771-0.1836,0.2139-0.2334,0.4102
			l-0.459-0.0625c0.042-0.1963,0.1104-0.3545,0.2061-0.4756c0.0957-0.1201,0.2334-0.2129,0.4141-0.2783s0.3906-0.0977,0.6279-0.0977
			c0.2363,0,0.4287,0.0273,0.5762,0.083s0.2568,0.126,0.3262,0.21s0.1182,0.1904,0.1455,0.3193
			c0.0156,0.0791,0.0234,0.2236,0.0234,0.4316v0.625c0,0.4365,0.0098,0.7119,0.0303,0.8271
			c0.0195,0.1152,0.0596,0.2266,0.1182,0.332h-0.4893C161.2763,53.6851,161.245,53.5718,161.2313,53.4419z M161.1923,52.3951
			c-0.1709,0.0693-0.4258,0.1279-0.7666,0.1768c-0.1934,0.0273-0.3291,0.0586-0.4092,0.0938s-0.1416,0.0859-0.1846,0.1523
			c-0.0439,0.0664-0.0654,0.1406-0.0654,0.2227c0,0.125,0.0469,0.2295,0.1416,0.3125s0.2334,0.125,0.416,0.125
			c0.1807,0,0.3408-0.0391,0.4824-0.1182c0.1406-0.0791,0.2432-0.1875,0.3096-0.3242c0.0508-0.1064,0.0762-0.2627,0.0762-0.4688
			V52.3951z"/>
		<path fill="#FFFFFF" d="M163.3632,53.3638l0.0674,0.4141c-0.1318,0.0273-0.25,0.041-0.3545,0.041
			c-0.1699,0-0.3018-0.0264-0.3955-0.0801s-0.1602-0.125-0.1982-0.2129c-0.0381-0.0869-0.0576-0.2715-0.0576-0.5527v-1.5918h-0.3438
			v-0.3643h0.3438v-0.6846l0.4668-0.2813v0.9658h0.4717v0.3643h-0.4717v1.6172c0,0.1338,0.0078,0.2197,0.0244,0.2578
			s0.0439,0.0693,0.0811,0.0918s0.0908,0.0332,0.1602,0.0332C163.2099,53.3814,163.2782,53.3755,163.3632,53.3638z"/>
		<path fill="#FFFFFF" d="M165.663,52.8921l0.4854,0.0596c-0.0771,0.2832-0.2188,0.5029-0.4248,0.6592
			c-0.207,0.1563-0.4707,0.2344-0.793,0.2344c-0.4043,0-0.7256-0.125-0.9629-0.374c-0.2363-0.249-0.3555-0.5986-0.3555-1.0479
			c0-0.4648,0.1201-0.8262,0.3594-1.083c0.2402-0.2568,0.5508-0.3857,0.9336-0.3857c0.3701,0,0.6719,0.126,0.9063,0.3779
			c0.2354,0.251,0.3525,0.6055,0.3525,1.0625c0,0.0273-0.001,0.0693-0.0029,0.125h-2.0645
			c0.0176,0.3037,0.1035,0.5361,0.2588,0.6973c0.1543,0.1621,0.3467,0.2422,0.5781,0.2422c0.1719,0,0.3193-0.0449,0.4404-0.1348
			C165.496,53.2339,165.5917,53.0904,165.663,52.8921z M164.1229,52.1343h1.5459c-0.0215-0.2324-0.0801-0.4072-0.1777-0.5234
			c-0.1494-0.1807-0.3428-0.2705-0.5811-0.2705c-0.2158,0-0.3965,0.0713-0.543,0.2158
			C164.2196,51.7007,164.1386,51.8931,164.1229,52.1343z"/>
		<path fill="#FFFFFF" d="M168.0917,54.8482l-0.0518-0.4404c0.1016,0.0273,0.1914,0.042,0.2676,0.042
			c0.1045,0,0.1885-0.0176,0.251-0.0527c0.0625-0.0342,0.1133-0.083,0.1533-0.1455c0.0293-0.0469,0.0771-0.1631,0.1436-0.3486
			c0.0088-0.0264,0.0225-0.0645,0.041-0.1152l-1.0498-2.7705h0.5059l0.5762,1.6016c0.0742,0.2031,0.1406,0.417,0.2002,0.6406
			c0.0537-0.2148,0.1182-0.4258,0.1924-0.6299l0.5918-1.6123h0.4697l-1.0537,2.8125c-0.1123,0.3037-0.2002,0.5127-0.2627,0.6279
			c-0.083,0.1543-0.1787,0.2676-0.2871,0.3398c-0.1074,0.0713-0.2363,0.1074-0.3857,0.1074
			C168.3036,54.9048,168.203,54.8863,168.0917,54.8482z"/>
		<path fill="#FFFFFF" d="M170.5526,52.4c0-0.5117,0.1426-0.8916,0.4277-1.1377c0.2383-0.2051,0.5283-0.3076,0.8701-0.3076
			c0.3809,0,0.6914,0.125,0.9336,0.374c0.2412,0.249,0.3623,0.5928,0.3623,1.0322c0,0.3555-0.0537,0.6357-0.1602,0.8398
			c-0.1074,0.2041-0.2627,0.3623-0.4668,0.4756c-0.2041,0.1123-0.4268,0.1689-0.6689,0.1689c-0.3867,0-0.7002-0.124-0.9395-0.3721
			C170.6727,53.2242,170.5526,52.8668,170.5526,52.4z M171.035,52.4c0,0.3545,0.0771,0.6191,0.2324,0.7959
			c0.1543,0.1758,0.3486,0.2637,0.583,0.2637c0.2334,0,0.4268-0.0879,0.5811-0.2656c0.1553-0.1768,0.2324-0.4463,0.2324-0.8096
			c0-0.3418-0.0781-0.6016-0.2334-0.7773s-0.3486-0.2646-0.5801-0.2646c-0.2344,0-0.4287,0.0879-0.583,0.2637
			C171.1122,51.7808,171.035,52.0455,171.035,52.4z"/>
		<path fill="#FFFFFF" d="M175.4559,53.7828v-0.4063c-0.2158,0.3125-0.5088,0.4688-0.8789,0.4688
			c-0.1631,0-0.3154-0.0313-0.457-0.0938s-0.2471-0.1406-0.3154-0.2354s-0.1172-0.2109-0.1445-0.3477
			c-0.0195-0.0928-0.0283-0.2383-0.0283-0.4375v-1.7139h0.4688v1.5342c0,0.2441,0.0098,0.4092,0.0283,0.4941
			c0.0293,0.124,0.0928,0.2207,0.1875,0.291c0.0957,0.0703,0.2139,0.1055,0.3545,0.1055s0.2734-0.0361,0.3965-0.1084
			s0.2109-0.1699,0.2617-0.2939c0.0518-0.124,0.0771-0.3047,0.0771-0.541v-1.4814h0.4688v2.7656H175.4559z"/>
		<path fill="#FFFFFF" d="M176.5517,53.7828v-2.7656h0.4219v0.4189c0.1084-0.1963,0.207-0.3252,0.2988-0.3877
			c0.0908-0.0625,0.1914-0.0938,0.3008-0.0938c0.1582,0,0.3184,0.0508,0.4824,0.1514l-0.1621,0.4346
			c-0.1143-0.0674-0.2295-0.1016-0.3438-0.1016c-0.1025,0-0.1943,0.0313-0.2764,0.0928s-0.1396,0.1465-0.1748,0.2559
			c-0.0518,0.167-0.0781,0.3496-0.0781,0.5469v1.4482H176.5517z"/>
		<path fill="#FFFFFF" d="M180.7333,53.3638l0.0674,0.4141c-0.1318,0.0273-0.25,0.041-0.3545,0.041
			c-0.1699,0-0.3018-0.0264-0.3955-0.0801s-0.1602-0.125-0.1982-0.2129c-0.0381-0.0869-0.0576-0.2715-0.0576-0.5527v-1.5918h-0.3438
			v-0.3643h0.3438v-0.6846l0.4668-0.2813v0.9658h0.4717v0.3643h-0.4717v1.6172c0,0.1338,0.0078,0.2197,0.0244,0.2578
			s0.0439,0.0693,0.0811,0.0918s0.0908,0.0332,0.1602,0.0332C180.58,53.3814,180.6483,53.3755,180.7333,53.3638z"/>
		<path fill="#FFFFFF" d="M182.9452,53.4419c-0.1738,0.1475-0.3418,0.251-0.502,0.3125c-0.1611,0.0605-0.333,0.0908-0.5176,0.0908
			c-0.3037,0-0.5371-0.0742-0.7012-0.2227c-0.1631-0.1484-0.2451-0.3379-0.2451-0.5693c0-0.1348,0.0313-0.2588,0.0928-0.3711
			c0.0615-0.1113,0.1426-0.2012,0.2422-0.2695c0.1006-0.0674,0.2129-0.1182,0.3379-0.1533c0.0918-0.0244,0.2314-0.0479,0.417-0.0703
			c0.3789-0.0449,0.6572-0.0986,0.8369-0.1611c0.001-0.0645,0.002-0.1055,0.002-0.123c0-0.1904-0.0439-0.3252-0.1328-0.4033
			c-0.1201-0.1055-0.2979-0.1592-0.5342-0.1592c-0.2207,0-0.3838,0.0391-0.4883,0.1162c-0.1055,0.0771-0.1836,0.2139-0.2334,0.4102
			l-0.459-0.0625c0.042-0.1963,0.1104-0.3545,0.2061-0.4756c0.0957-0.1201,0.2334-0.2129,0.4141-0.2783s0.3906-0.0977,0.6279-0.0977
			c0.2363,0,0.4287,0.0273,0.5762,0.083s0.2568,0.126,0.3262,0.21s0.1182,0.1904,0.1455,0.3193
			c0.0156,0.0791,0.0234,0.2236,0.0234,0.4316v0.625c0,0.4365,0.0098,0.7119,0.0303,0.8271
			c0.0195,0.1152,0.0596,0.2266,0.1182,0.332h-0.4893C182.9901,53.6851,182.9589,53.5718,182.9452,53.4419z M182.9061,52.3951
			c-0.1709,0.0693-0.4258,0.1279-0.7666,0.1768c-0.1934,0.0273-0.3291,0.0586-0.4092,0.0938s-0.1416,0.0859-0.1846,0.1523
			c-0.0439,0.0664-0.0654,0.1406-0.0654,0.2227c0,0.125,0.0469,0.2295,0.1416,0.3125s0.2334,0.125,0.416,0.125
			c0.1807,0,0.3408-0.0391,0.4824-0.1182c0.1406-0.0791,0.2432-0.1875,0.3096-0.3242c0.0508-0.1064,0.0762-0.2627,0.0762-0.4688
			V52.3951z"/>
		<path fill="#FFFFFF" d="M184.0477,53.7828v-2.7656h0.4219v0.4189c0.1084-0.1963,0.207-0.3252,0.2988-0.3877
			c0.0908-0.0625,0.1914-0.0938,0.3008-0.0938c0.1582,0,0.3184,0.0508,0.4824,0.1514l-0.1621,0.4346
			c-0.1143-0.0674-0.2295-0.1016-0.3438-0.1016c-0.1025,0-0.1943,0.0313-0.2764,0.0928s-0.1396,0.1465-0.1748,0.2559
			c-0.0518,0.167-0.0781,0.3496-0.0781,0.5469v1.4482H184.0477z"/>
		<path fill="#FFFFFF" d="M185.7792,50.5044v-0.5391h0.4688v0.5391H185.7792z M185.7792,53.7828v-2.7656h0.4688v2.7656H185.7792z"/>
		<path fill="#FFFFFF" d="M187.0214,53.7828v-2.4014h-0.4141v-0.3643h0.4141v-0.2939c0-0.1865,0.0166-0.3242,0.0498-0.4141
			c0.0449-0.1221,0.124-0.2207,0.2383-0.2959c0.1133-0.0752,0.2734-0.1133,0.4785-0.1133c0.1318,0,0.2773,0.0156,0.4375,0.0469
			l-0.0703,0.4092c-0.0977-0.0176-0.1895-0.0264-0.2764-0.0264c-0.1426,0-0.2432,0.0303-0.3027,0.0908
			c-0.0586,0.0615-0.0879,0.1748-0.0879,0.3418v0.2549h0.5391v0.3643h-0.5391v2.4014H187.0214z"/>
		<path fill="#FFFFFF" d="M188.3544,53.7828v-2.4014h-0.4141v-0.3643h0.4141v-0.2939c0-0.1865,0.0166-0.3242,0.0498-0.4141
			c0.0449-0.1221,0.124-0.2207,0.2383-0.2959c0.1133-0.0752,0.2734-0.1133,0.4785-0.1133c0.1318,0,0.2773,0.0156,0.4375,0.0469
			l-0.0703,0.4092c-0.0977-0.0176-0.1895-0.0264-0.2764-0.0264c-0.1426,0-0.2432,0.0303-0.3027,0.0908
			c-0.0586,0.0615-0.0879,0.1748-0.0879,0.3418v0.2549h0.5391v0.3643h-0.5391v2.4014H188.3544z"/>
		<path fill="#FFFFFF" d="M141.9872,59.1705l0.4609,0.0596c-0.0508,0.3174-0.1797,0.5664-0.3867,0.7461
			c-0.208,0.1797-0.4629,0.2695-0.7656,0.2695c-0.3779,0-0.6826-0.124-0.9131-0.3711s-0.3457-0.6016-0.3457-1.0635
			c0-0.2988,0.0498-0.5605,0.1494-0.7842c0.0986-0.2236,0.249-0.3916,0.4521-0.5039c0.2021-0.1123,0.4219-0.168,0.6602-0.168
			c0.3008,0,0.5469,0.0762,0.7373,0.2275c0.1914,0.1523,0.3135,0.3682,0.3682,0.6475l-0.4561,0.0703
			c-0.0439-0.1855-0.1211-0.3252-0.2314-0.4189s-0.2432-0.1406-0.3994-0.1406c-0.2363,0-0.4287,0.084-0.5762,0.2539
			c-0.1475,0.1689-0.2217,0.4365-0.2217,0.8027c0,0.3721,0.0713,0.6416,0.2139,0.8105c0.1426,0.168,0.3281,0.252,0.5576,0.252
			c0.1846,0,0.3379-0.0557,0.4609-0.1689C141.8759,59.5777,141.954,59.4048,141.9872,59.1705z"/>
		<path fill="#FFFFFF" d="M142.7958,60.1832v-3.8174h0.4697v1.3691c0.2188-0.2529,0.4951-0.3799,0.8281-0.3799
			c0.2051,0,0.3828,0.04,0.5342,0.1211s0.2598,0.1924,0.3242,0.335c0.0654,0.1416,0.0986,0.3486,0.0986,0.6191v1.7529h-0.4697
			v-1.7529c0-0.2344-0.0508-0.4043-0.1523-0.5117c-0.1016-0.1064-0.2451-0.1602-0.4316-0.1602
			c-0.1387,0-0.2695,0.0361-0.3916,0.1084c-0.123,0.0723-0.21,0.1699-0.2617,0.293c-0.0527,0.123-0.0781,0.293-0.0781,0.5107v1.5127
			H142.7958z"/>
		<path fill="#FFFFFF" d="M147.5175,59.8423c-0.1738,0.1475-0.3418,0.251-0.502,0.3125c-0.1611,0.0605-0.333,0.0908-0.5176,0.0908
			c-0.3037,0-0.5371-0.0742-0.7012-0.2227c-0.1631-0.1484-0.2451-0.3379-0.2451-0.5693c0-0.1348,0.0313-0.2588,0.0928-0.3711
			c0.0615-0.1113,0.1426-0.2012,0.2422-0.2695c0.1006-0.0674,0.2129-0.1182,0.3379-0.1533c0.0918-0.0244,0.2314-0.0479,0.417-0.0703
			c0.3789-0.0449,0.6572-0.0986,0.8369-0.1611c0.001-0.0645,0.002-0.1055,0.002-0.123c0-0.1904-0.0439-0.3252-0.1328-0.4033
			c-0.1201-0.1055-0.2979-0.1592-0.5342-0.1592c-0.2207,0-0.3838,0.0391-0.4883,0.1162c-0.1055,0.0771-0.1836,0.2139-0.2334,0.4102
			l-0.459-0.0625c0.042-0.1963,0.1104-0.3545,0.2061-0.4756c0.0957-0.1201,0.2334-0.2129,0.4141-0.2783s0.3906-0.0977,0.6279-0.0977
			c0.2363,0,0.4287,0.0273,0.5762,0.083s0.2568,0.126,0.3262,0.21s0.1182,0.1904,0.1455,0.3193
			c0.0156,0.0791,0.0234,0.2236,0.0234,0.4316v0.625c0,0.4365,0.0098,0.7119,0.0303,0.8271
			c0.0195,0.1152,0.0596,0.2266,0.1182,0.332h-0.4893C147.5624,60.0855,147.5311,59.9722,147.5175,59.8423z M147.4784,58.7955
			c-0.1709,0.0693-0.4258,0.1279-0.7666,0.1768c-0.1934,0.0273-0.3291,0.0586-0.4092,0.0938s-0.1416,0.0859-0.1846,0.1523
			c-0.0439,0.0664-0.0654,0.1406-0.0654,0.2227c0,0.125,0.0469,0.2295,0.1416,0.3125s0.2334,0.125,0.416,0.125
			c0.1807,0,0.3408-0.0391,0.4824-0.1182c0.1406-0.0791,0.2432-0.1875,0.3096-0.3242c0.0508-0.1064,0.0762-0.2627,0.0762-0.4688
			V58.7955z"/>
		<path fill="#FFFFFF" d="M148.6249,60.1832v-2.7656h0.4229v0.3936c0.2031-0.3037,0.4961-0.4561,0.8809-0.4561
			c0.166,0,0.3193,0.0303,0.46,0.0898c0.1396,0.0596,0.2441,0.1387,0.3135,0.2354c0.0693,0.0977,0.1182,0.2129,0.1465,0.3467
			c0.0166,0.0869,0.0254,0.2383,0.0254,0.4561v1.7002h-0.4688v-1.6826c0-0.1904-0.0186-0.333-0.0547-0.4277
			c-0.0371-0.0947-0.1016-0.1709-0.1943-0.2266c-0.0928-0.0566-0.2021-0.085-0.3271-0.085c-0.1992,0-0.3721,0.0635-0.5176,0.1904
			c-0.1445,0.126-0.2168,0.3672-0.2168,0.7207v1.5107H148.6249z"/>
		<path fill="#FFFFFF" d="M151.453,60.4127l0.4561,0.0674c0.0195,0.1406,0.0723,0.2432,0.1592,0.3076
			c0.1162,0.0869,0.2754,0.1299,0.4766,0.1299c0.2178,0,0.3848-0.043,0.5029-0.1299s0.1982-0.209,0.2402-0.3652
			c0.0244-0.0947,0.0352-0.2959,0.0342-0.6016c-0.2051,0.2412-0.4609,0.3623-0.7666,0.3623c-0.3809,0-0.6748-0.1367-0.8838-0.4111
			c-0.208-0.2744-0.3125-0.6035-0.3125-0.9873c0-0.2637,0.0479-0.5078,0.1436-0.7305s0.2344-0.3955,0.416-0.5166
			c0.1807-0.1221,0.3945-0.1826,0.6396-0.1826c0.3262,0,0.5957,0.1318,0.8076,0.3955v-0.333h0.4326v2.3906
			c0,0.4307-0.0439,0.7354-0.1318,0.915s-0.2266,0.3223-0.417,0.4258c-0.1904,0.1045-0.4238,0.1563-0.7021,0.1563
			c-0.3301,0-0.5967-0.0742-0.7998-0.2227S151.4462,60.7105,151.453,60.4127z M151.8417,58.7505
			c0,0.3633,0.0723,0.6279,0.2158,0.7949c0.1445,0.166,0.3252,0.25,0.542,0.25c0.2158,0,0.3965-0.083,0.542-0.249
			c0.1465-0.166,0.2197-0.4258,0.2197-0.7803c0-0.3379-0.0752-0.5938-0.2256-0.7656s-0.332-0.2578-0.5439-0.2578
			c-0.208,0-0.3857,0.085-0.5313,0.2539C151.9149,58.1666,151.8417,58.4175,151.8417,58.7505z"/>
		<path fill="#FFFFFF" d="M156.3485,59.2925l0.4854,0.0596c-0.0771,0.2832-0.2188,0.5029-0.4248,0.6592
			c-0.207,0.1563-0.4707,0.2344-0.793,0.2344c-0.4043,0-0.7256-0.125-0.9629-0.374c-0.2363-0.249-0.3555-0.5986-0.3555-1.0479
			c0-0.4648,0.1201-0.8262,0.3594-1.083c0.2402-0.2568,0.5508-0.3857,0.9336-0.3857c0.3701,0,0.6719,0.126,0.9063,0.3779
			c0.2354,0.251,0.3525,0.6055,0.3525,1.0625c0,0.0273-0.001,0.0693-0.0029,0.125h-2.0645
			c0.0176,0.3037,0.1035,0.5361,0.2588,0.6973c0.1543,0.1621,0.3467,0.2422,0.5781,0.2422c0.1719,0,0.3193-0.0449,0.4404-0.1348
			C156.1815,59.6343,156.2772,59.4908,156.3485,59.2925z M154.8085,58.5347h1.5459c-0.0215-0.2324-0.0801-0.4072-0.1777-0.5234
			c-0.1494-0.1807-0.3428-0.2705-0.5811-0.2705c-0.2158,0-0.3965,0.0713-0.543,0.2158
			C154.9052,58.1011,154.8241,58.2935,154.8085,58.5347z"/>
		<path fill="#FFFFFF" d="M158.7997,56.9048v-0.5391h0.4688v0.5391H158.7997z M158.7997,60.1832v-2.7656h0.4688v2.7656H158.7997z"/>
		<path fill="#FFFFFF" d="M159.9296,60.1832v-2.7656h0.4199v0.3877c0.0869-0.1348,0.2021-0.2441,0.3467-0.3262
			c0.1436-0.083,0.3086-0.124,0.4922-0.124c0.2051,0,0.373,0.043,0.5049,0.1279c0.1309,0.085,0.2236,0.2041,0.2773,0.3564
			c0.2188-0.3232,0.5039-0.4844,0.8545-0.4844c0.2744,0,0.4854,0.0762,0.6328,0.2275c0.1484,0.1523,0.2217,0.3857,0.2217,0.7021
			v1.8984h-0.4658V58.441c0-0.1875-0.0156-0.3223-0.0459-0.4053c-0.0303-0.082-0.0859-0.1484-0.166-0.1992
			c-0.0791-0.0498-0.1729-0.0752-0.2813-0.0752c-0.1943,0-0.3555,0.0645-0.4844,0.1943c-0.1289,0.1289-0.1934,0.3359-0.1934,0.6211
			v1.6064h-0.4688v-1.7969c0-0.208-0.0381-0.3643-0.1143-0.4688c-0.0771-0.1045-0.2021-0.1563-0.376-0.1563
			c-0.1318,0-0.2539,0.0352-0.3662,0.1045c-0.1113,0.0693-0.1924,0.1709-0.2432,0.3047s-0.0752,0.3262-0.0752,0.5781v1.4346
			H159.9296z"/>
		<path fill="#FFFFFF" d="M164.3222,60.1832v-2.7656h0.4199v0.3877c0.0869-0.1348,0.2021-0.2441,0.3467-0.3262
			c0.1436-0.083,0.3086-0.124,0.4922-0.124c0.2051,0,0.373,0.043,0.5049,0.1279c0.1309,0.085,0.2236,0.2041,0.2773,0.3564
			c0.2188-0.3232,0.5039-0.4844,0.8545-0.4844c0.2744,0,0.4854,0.0762,0.6328,0.2275c0.1484,0.1523,0.2217,0.3857,0.2217,0.7021
			v1.8984h-0.4658V58.441c0-0.1875-0.0156-0.3223-0.0459-0.4053c-0.0303-0.082-0.0859-0.1484-0.166-0.1992
			c-0.0791-0.0498-0.1729-0.0752-0.2813-0.0752c-0.1943,0-0.3555,0.0645-0.4844,0.1943c-0.1289,0.1289-0.1934,0.3359-0.1934,0.6211
			v1.6064h-0.4688v-1.7969c0-0.208-0.0381-0.3643-0.1143-0.4688c-0.0771-0.1045-0.2021-0.1563-0.376-0.1563
			c-0.1318,0-0.2539,0.0352-0.3662,0.1045c-0.1113,0.0693-0.1924,0.1709-0.2432,0.3047s-0.0752,0.3262-0.0752,0.5781v1.4346
			H164.3222z"/>
		<path fill="#FFFFFF" d="M170.6093,59.2925l0.4854,0.0596c-0.0771,0.2832-0.2188,0.5029-0.4248,0.6592
			c-0.207,0.1563-0.4707,0.2344-0.793,0.2344c-0.4043,0-0.7256-0.125-0.9629-0.374c-0.2363-0.249-0.3555-0.5986-0.3555-1.0479
			c0-0.4648,0.1201-0.8262,0.3594-1.083c0.2402-0.2568,0.5508-0.3857,0.9336-0.3857c0.3701,0,0.6719,0.126,0.9063,0.3779
			c0.2354,0.251,0.3525,0.6055,0.3525,1.0625c0,0.0273-0.001,0.0693-0.0029,0.125h-2.0645
			c0.0176,0.3037,0.1035,0.5361,0.2588,0.6973c0.1543,0.1621,0.3467,0.2422,0.5781,0.2422c0.1719,0,0.3193-0.0449,0.4404-0.1348
			C170.4423,59.6343,170.538,59.4908,170.6093,59.2925z M169.0692,58.5347h1.5459c-0.0215-0.2324-0.0801-0.4072-0.1777-0.5234
			c-0.1494-0.1807-0.3428-0.2705-0.5811-0.2705c-0.2158,0-0.3965,0.0713-0.543,0.2158
			C169.1659,58.1011,169.0849,58.2935,169.0692,58.5347z"/>
		<path fill="#FFFFFF" d="M173.4257,60.1832v-0.3486c-0.1758,0.2744-0.4336,0.4111-0.7744,0.4111
			c-0.2207,0-0.4229-0.0605-0.6084-0.1826c-0.1846-0.1211-0.3281-0.291-0.4297-0.5088s-0.1523-0.4688-0.1523-0.751
			c0-0.2764,0.0459-0.5264,0.1377-0.752c0.0928-0.2246,0.2305-0.3965,0.415-0.5166c0.1836-0.1201,0.3896-0.1797,0.6172-0.1797
			c0.167,0,0.3154,0.0352,0.4453,0.1055c0.1309,0.0703,0.2363,0.1621,0.3184,0.2744v-1.3691h0.4668v3.8174H173.4257z
			 M171.9423,58.8033c0,0.3535,0.0752,0.6182,0.2246,0.7939s0.3262,0.2627,0.5293,0.2627c0.2051,0,0.3789-0.083,0.5225-0.251
			c0.1426-0.168,0.2148-0.4229,0.2148-0.7666c0-0.3789-0.0732-0.6563-0.2188-0.834c-0.1465-0.1768-0.3262-0.2656-0.54-0.2656
			c-0.208,0-0.3828,0.085-0.5225,0.2559C172.0126,58.1685,171.9423,58.4371,171.9423,58.8033z"/>
		<path fill="#FFFFFF" d="M174.5468,56.9048v-0.5391h0.4688v0.5391H174.5468z M174.5468,60.1832v-2.7656h0.4688v2.7656H174.5468z"/>
		<path fill="#FFFFFF" d="M177.4833,59.8423c-0.1738,0.1475-0.3418,0.251-0.502,0.3125c-0.1611,0.0605-0.333,0.0908-0.5176,0.0908
			c-0.3037,0-0.5371-0.0742-0.7012-0.2227c-0.1631-0.1484-0.2451-0.3379-0.2451-0.5693c0-0.1348,0.0313-0.2588,0.0928-0.3711
			c0.0615-0.1113,0.1426-0.2012,0.2422-0.2695c0.1006-0.0674,0.2129-0.1182,0.3379-0.1533c0.0918-0.0244,0.2314-0.0479,0.417-0.0703
			c0.3789-0.0449,0.6572-0.0986,0.8369-0.1611c0.001-0.0645,0.002-0.1055,0.002-0.123c0-0.1904-0.0439-0.3252-0.1328-0.4033
			c-0.1201-0.1055-0.2979-0.1592-0.5342-0.1592c-0.2207,0-0.3838,0.0391-0.4883,0.1162c-0.1055,0.0771-0.1836,0.2139-0.2334,0.4102
			l-0.459-0.0625c0.042-0.1963,0.1104-0.3545,0.2061-0.4756c0.0957-0.1201,0.2334-0.2129,0.4141-0.2783s0.3906-0.0977,0.6279-0.0977
			c0.2363,0,0.4287,0.0273,0.5762,0.083s0.2568,0.126,0.3262,0.21s0.1182,0.1904,0.1455,0.3193
			c0.0156,0.0791,0.0234,0.2236,0.0234,0.4316v0.625c0,0.4365,0.0098,0.7119,0.0303,0.8271
			c0.0195,0.1152,0.0596,0.2266,0.1182,0.332h-0.4893C177.5282,60.0855,177.497,59.9722,177.4833,59.8423z M177.4442,58.7955
			c-0.1709,0.0693-0.4258,0.1279-0.7666,0.1768c-0.1934,0.0273-0.3291,0.0586-0.4092,0.0938s-0.1416,0.0859-0.1846,0.1523
			c-0.0439,0.0664-0.0654,0.1406-0.0654,0.2227c0,0.125,0.0469,0.2295,0.1416,0.3125s0.2334,0.125,0.416,0.125
			c0.1807,0,0.3408-0.0391,0.4824-0.1182c0.1406-0.0791,0.2432-0.1875,0.3096-0.3242c0.0508-0.1064,0.0762-0.2627,0.0762-0.4688
			V58.7955z"/>
		<path fill="#FFFFFF" d="M179.6151,59.7642l0.0674,0.4141c-0.1318,0.0273-0.25,0.041-0.3545,0.041
			c-0.1699,0-0.3018-0.0264-0.3955-0.0801s-0.1602-0.125-0.1982-0.2129c-0.0381-0.0869-0.0576-0.2715-0.0576-0.5527v-1.5918h-0.3438
			v-0.3643h0.3438V56.733l0.4668-0.2813v0.9658h0.4717v0.3643h-0.4717v1.6172c0,0.1338,0.0078,0.2197,0.0244,0.2578
			s0.0439,0.0693,0.0811,0.0918s0.0908,0.0332,0.1602,0.0332C179.4618,59.7818,179.5302,59.7759,179.6151,59.7642z"/>
		<path fill="#FFFFFF" d="M181.914,59.2925l0.4854,0.0596c-0.0771,0.2832-0.2188,0.5029-0.4248,0.6592
			c-0.207,0.1563-0.4707,0.2344-0.793,0.2344c-0.4043,0-0.7256-0.125-0.9629-0.374c-0.2363-0.249-0.3555-0.5986-0.3555-1.0479
			c0-0.4648,0.1201-0.8262,0.3594-1.083c0.2402-0.2568,0.5508-0.3857,0.9336-0.3857c0.3701,0,0.6719,0.126,0.9063,0.3779
			c0.2354,0.251,0.3525,0.6055,0.3525,1.0625c0,0.0273-0.001,0.0693-0.0029,0.125h-2.0645
			c0.0176,0.3037,0.1035,0.5361,0.2588,0.6973c0.1543,0.1621,0.3467,0.2422,0.5781,0.2422c0.1719,0,0.3193-0.0449,0.4404-0.1348
			C181.747,59.6343,181.8427,59.4908,181.914,59.2925z M180.3739,58.5347h1.5459c-0.0215-0.2324-0.0801-0.4072-0.1777-0.5234
			c-0.1494-0.1807-0.3428-0.2705-0.5811-0.2705c-0.2158,0-0.3965,0.0713-0.543,0.2158
			C180.4706,58.1011,180.3895,58.2935,180.3739,58.5347z"/>
		<path fill="#FFFFFF" d="M182.9247,60.1832v-3.8174h0.4688v3.8174H182.9247z"/>
		<path fill="#FFFFFF" d="M184.0458,61.2486l-0.0518-0.4404c0.1016,0.0273,0.1914,0.042,0.2676,0.042
			c0.1045,0,0.1885-0.0176,0.251-0.0527c0.0625-0.0342,0.1133-0.083,0.1533-0.1455c0.0293-0.0469,0.0771-0.1631,0.1436-0.3486
			c0.0088-0.0264,0.0225-0.0645,0.041-0.1152l-1.0498-2.7705h0.5059l0.5762,1.6016c0.0742,0.2031,0.1406,0.417,0.2002,0.6406
			c0.0537-0.2148,0.1182-0.4258,0.1924-0.6299l0.5918-1.6123h0.4697l-1.0537,2.8125c-0.1123,0.3037-0.2002,0.5127-0.2627,0.6279
			c-0.083,0.1543-0.1787,0.2676-0.2871,0.3398c-0.1074,0.0713-0.2363,0.1074-0.3857,0.1074
			C184.2577,61.3052,184.1571,61.2867,184.0458,61.2486z"/>
		<path fill="#FFFFFF" d="M186.4179,60.1832V59.649h0.5342v0.5342H186.4179z"/>
	</g>
	<g>
		<path fill="#646361" d="M154.0316,32.7154l0.876-0.085c0.0527,0.2935,0.1597,0.5093,0.3208,0.647s0.3784,0.2065,0.6523,0.2065
			c0.29,0,0.5083-0.061,0.6553-0.1836s0.2207-0.2661,0.2207-0.4302c0-0.105-0.0313-0.1948-0.0928-0.2686
			c-0.062-0.0742-0.1699-0.1382-0.3242-0.1929c-0.1055-0.0366-0.3457-0.1016-0.7207-0.1948
			c-0.4824-0.1191-0.8208-0.2661-1.0156-0.4404c-0.2739-0.2451-0.4106-0.5439-0.4106-0.896c0-0.2271,0.0645-0.4395,0.1934-0.6367
			c0.1284-0.1973,0.314-0.3477,0.5562-0.4512c0.2427-0.1035,0.5352-0.1548,0.8774-0.1548c0.5596,0,0.981,0.1226,1.2637,0.3677
			c0.2832,0.2451,0.4316,0.5718,0.4458,0.981l-0.9004,0.0396c-0.0386-0.2285-0.1211-0.3936-0.2476-0.4937
			c-0.127-0.1001-0.3169-0.1504-0.5703-0.1504c-0.2617,0-0.4663,0.0537-0.6147,0.1611c-0.0952,0.0688-0.1426,0.1611-0.1426,0.2764
			c0,0.1055,0.0444,0.1953,0.1338,0.2705c0.1133,0.0952,0.3892,0.1943,0.8271,0.2979c0.438,0.103,0.7617,0.21,0.9717,0.3203
			s0.374,0.2612,0.4927,0.4526s0.1777,0.4282,0.1777,0.7095c0,0.2554-0.0708,0.4941-0.2129,0.7173
			c-0.1416,0.2227-0.3423,0.3882-0.6021,0.4966c-0.2593,0.1084-0.583,0.1626-0.9702,0.1626c-0.5635,0-0.9966-0.1304-1.2983-0.3906
			C154.2709,33.5928,154.0902,33.2134,154.0316,32.7154z"/>
		<path fill="#646361" d="M159.1391,34.1646v-3.7007h-1.3232v-0.7534h3.543v0.7534h-1.3198v3.7007H159.1391z"/>
		<path fill="#646361" d="M162.0106,34.1646v-4.4541h3.3066v0.7534h-2.4063v0.9878h2.2383v0.75h-2.2383v1.2124h2.4912v0.7505
			H162.0106z"/>
		<path fill="#646361" d="M165.8866,34.1646v-4.4541h1.4443c0.5479,0,0.9043,0.0225,1.0703,0.0669
			c0.2559,0.0669,0.4697,0.2124,0.6416,0.436c0.1729,0.2236,0.2588,0.5132,0.2588,0.8672c0,0.2734-0.0498,0.5034-0.1484,0.6899
			c-0.0996,0.1865-0.2256,0.3325-0.3789,0.439s-0.3086,0.1768-0.4668,0.2109c-0.2148,0.043-0.5264,0.064-0.9336,0.064h-0.5869
			v1.6802H165.8866z M166.787,30.4639v1.2642h0.4922c0.3545,0,0.5918-0.0234,0.7119-0.0698
			c0.1191-0.0469,0.2129-0.1196,0.2813-0.2188c0.0674-0.0996,0.1016-0.2148,0.1016-0.3467c0-0.1616-0.0479-0.2954-0.1426-0.4009
			c-0.0957-0.1055-0.2158-0.1709-0.3623-0.1973c-0.1074-0.0205-0.3232-0.0308-0.6475-0.0308H166.787z"/>
		<path fill="#646361" d="M174.3349,33.3716v0.793h-2.9961c0.0322-0.2998,0.1299-0.584,0.292-0.8521
			c0.1621-0.2686,0.4824-0.6245,0.9609-1.0679c0.3857-0.3589,0.6221-0.6016,0.709-0.7295c0.1172-0.1763,0.1758-0.3501,0.1758-0.5225
			c0-0.1904-0.0508-0.3369-0.1533-0.439c-0.1025-0.1025-0.2441-0.1533-0.4238-0.1533c-0.1787,0-0.3203,0.0537-0.4258,0.1606
			c-0.1055,0.1074-0.167,0.2856-0.1826,0.5352l-0.8516-0.0854c0.0508-0.4697,0.21-0.8071,0.4775-1.0117s0.6016-0.3066,1.0039-0.3066
			c0.4395,0,0.7852,0.1187,1.0371,0.3555c0.251,0.2368,0.377,0.5317,0.377,0.8843c0,0.2002-0.0361,0.3911-0.1084,0.5723
			c-0.0723,0.1816-0.1855,0.3716-0.3418,0.5698c-0.1035,0.1318-0.29,0.3213-0.5596,0.5684s-0.4404,0.4111-0.5127,0.4922
			s-0.1299,0.1597-0.1748,0.2368H174.3349z"/>
	</g>
	<g>
		<g id="Ellipse_5">
			<g>
				<ellipse fill-rule="evenodd" clip-rule="evenodd" fill="#002D6D" cx="288.5071" cy="11.0547" rx="11.111" ry="11.0547"/>
			</g>
		</g>
		<g id="Rectangle_14">
			<g>
				<polygon fill-rule="evenodd" clip-rule="evenodd" fill="#002D6D" points="288.4258,11.0303 280.5694,18.8472 288.4258,26.6641 
					296.2823,18.8472 				"/>
			</g>
		</g>
		<g id="Ellipse_5_1_">
			<g>
				<ellipse fill-rule="evenodd" clip-rule="evenodd" fill="#002D6D" cx="162.9999" cy="11.0547" rx="11.111" ry="11.0547"/>
			</g>
		</g>
		<g id="Rectangle_14_1_">
			<g>
				<polygon fill-rule="evenodd" clip-rule="evenodd" fill="#002D6D" points="162.9187,11.0303 155.0621,18.8472 162.9187,26.6641 
					170.7751,18.8472 				"/>
			</g>
		</g>
	</g>
	<g id="Vector_Smart_Object_xA0_Image_3_">
	</g>
	<g id="STEP_2">
	</g>
	<g id="Text_2_1_">
		<g id="You_x2019_ll_get_an_email_confirming_your_details_1_">
		</g>
	</g>
	<g id="Vector_Smart_Object_xA0_Image_5_">
	</g>
</g>
<g id="Step1_1_" enable-background="new    ">
	<g>
		<g id="Ellipse_5_copy_2_1_">
			<g>
				<circle fill-rule="evenodd" clip-rule="evenodd" fill="#009BE1" cx="36.9978" cy="11.5916" r="11.045"/>
			</g>
		</g>
		<g id="Rectangle_14_copy_5_1_">
			<g>
				<polygon fill-rule="evenodd" clip-rule="evenodd" fill="#009BE1" points="44.5821,3.5581 36.77,11.5902 44.5821,19.6224 
					52.3942,11.5902 				"/>
			</g>
		</g>
	</g>
	<g id="Vector_Smart_Object_xA0_Image_1_">
	</g>
	<g id="_x0D_">
	</g>
	<g id="STEP_1">
		<g>
			<path fill="#646361" d="M28.5355,32.7154l0.876-0.085c0.0527,0.2935,0.1597,0.5093,0.3208,0.647s0.3784,0.2065,0.6523,0.2065
				c0.29,0,0.5083-0.061,0.6553-0.1836s0.2207-0.2661,0.2207-0.4302c0-0.105-0.0313-0.1948-0.0928-0.2686
				c-0.062-0.0742-0.1699-0.1382-0.3242-0.1929c-0.1055-0.0366-0.3457-0.1016-0.7207-0.1948
				c-0.4824-0.1191-0.8208-0.2661-1.0156-0.4404c-0.2739-0.2451-0.4106-0.5439-0.4106-0.896c0-0.2271,0.0645-0.4395,0.1934-0.6367
				c0.1284-0.1973,0.314-0.3477,0.5562-0.4512c0.2427-0.1035,0.5352-0.1548,0.8774-0.1548c0.5596,0,0.981,0.1226,1.2637,0.3677
				c0.2832,0.2451,0.4316,0.5718,0.4458,0.981l-0.9004,0.0396c-0.0386-0.2285-0.1211-0.3936-0.2476-0.4937
				c-0.127-0.1001-0.3169-0.1504-0.5703-0.1504c-0.2617,0-0.4663,0.0537-0.6147,0.1611c-0.0952,0.0688-0.1426,0.1611-0.1426,0.2764
				c0,0.1055,0.0444,0.1953,0.1338,0.2705c0.1133,0.0952,0.3892,0.1943,0.8271,0.2979c0.438,0.103,0.7617,0.21,0.9717,0.3203
				s0.374,0.2612,0.4927,0.4526c0.1187,0.1914,0.1777,0.4282,0.1777,0.7095c0,0.2554-0.0708,0.4941-0.2129,0.7173
				c-0.1416,0.2227-0.3423,0.3882-0.6021,0.4966c-0.2593,0.1084-0.583,0.1626-0.9702,0.1626c-0.5635,0-0.9966-0.1304-1.2983-0.3906
				C28.7748,33.5928,28.5941,33.2134,28.5355,32.7154z"/>
			<path fill="#646361" d="M33.643,34.1646v-3.7007h-1.3232v-0.7534h3.543v0.7534h-1.3198v3.7007H33.643z"/>
			<path fill="#646361" d="M36.5145,34.1646v-4.4541h3.3062v0.7534h-2.4058v0.9878h2.2383v0.75h-2.2383v1.2124h2.4907v0.7505
				H36.5145z"/>
			<path fill="#646361" d="M40.39,34.1646v-4.4541h1.4448c0.5474,0,0.9043,0.0225,1.0703,0.0669
				c0.2554,0.0669,0.4692,0.2124,0.6416,0.436s0.2588,0.5132,0.2588,0.8672c0,0.2734-0.0498,0.5034-0.1489,0.6899
				c-0.0996,0.1865-0.2256,0.3325-0.3789,0.439c-0.1528,0.1064-0.3086,0.1768-0.4668,0.2109
				c-0.2148,0.043-0.5259,0.064-0.9336,0.064h-0.5869v1.6802H40.39z M41.2904,30.4639v1.2642h0.4927
				c0.3545,0,0.5918-0.0234,0.7114-0.0698c0.1196-0.0469,0.2134-0.1196,0.2813-0.2188c0.0679-0.0996,0.1021-0.2148,0.1021-0.3467
				c0-0.1616-0.0479-0.2954-0.1431-0.4009s-0.2158-0.1709-0.3618-0.1973c-0.1074-0.0205-0.3232-0.0308-0.6479-0.0308H41.2904z"/>
			<path fill="#646361" d="M48.1386,34.1646h-0.8545v-3.2173c-0.312,0.2915-0.6802,0.5073-1.104,0.647v-0.7749
				c0.2231-0.0728,0.4653-0.2109,0.7271-0.4146c0.2612-0.2036,0.4409-0.4409,0.5381-0.7124h0.6934V34.1646z"/>
		</g>
		<g>
			<path fill="#FFFFFF" d="M38.3109,15.4146h-1.5107v-5.688c-0.5522,0.5156-1.2026,0.897-1.9517,1.144V9.501
				c0.394-0.1289,0.8228-0.3735,1.2852-0.7329c0.4624-0.3604,0.7793-0.7798,0.9517-1.2598h1.2256V15.4146z"/>
		</g>
		<g>
			<path fill="#FFFFFF" d="M165.2977,14.0127v1.4019h-5.2959c0.0571-0.5298,0.229-1.0322,0.5161-1.5068
				c0.2866-0.4741,0.853-1.1035,1.6987-1.8877c0.6812-0.6338,1.0986-1.0635,1.2529-1.2891c0.208-0.3115,0.3115-0.6196,0.3115-0.9238
				c0-0.3364-0.0908-0.5952-0.2715-0.7764c-0.1807-0.1807-0.4307-0.271-0.75-0.271c-0.3154,0-0.5664,0.0947-0.7524,0.2847
				c-0.1865,0.1899-0.2939,0.5049-0.3228,0.9453l-1.5054-0.1504c0.0894-0.8306,0.3711-1.4268,0.8442-1.7886
				s1.0645-0.5425,1.7739-0.5425c0.7778,0,1.3892,0.2095,1.8335,0.6284s0.667,0.9399,0.667,1.563
				c0,0.3545-0.0645,0.6919-0.1914,1.0127c-0.127,0.3203-0.3291,0.6558-0.6045,1.0068c-0.1826,0.2329-0.5127,0.5674-0.9893,1.0044
				s-0.7788,0.7271-0.9058,0.8701c-0.1274,0.1431-0.2305,0.2827-0.3096,0.4189H165.2977z"/>
		</g>
		<g>
			<path fill="#FFFFFF" d="M285.8915,13.3252l1.4619-0.1772c0.0469,0.3726,0.1719,0.6572,0.377,0.854
				c0.2041,0.1968,0.4512,0.2954,0.7412,0.2954c0.3125,0,0.5752-0.1182,0.7881-0.3545s0.3203-0.5552,0.3203-0.9561
				c0-0.3794-0.1025-0.6802-0.3066-0.9023s-0.4541-0.333-0.748-0.333c-0.1934,0-0.4238,0.0376-0.6934,0.1128l0.167-1.23
				c0.4082,0.0107,0.7207-0.0781,0.9355-0.2656c0.2148-0.1885,0.3223-0.438,0.3223-0.7495c0-0.2651-0.0791-0.4761-0.2363-0.6338
				c-0.1582-0.1577-0.3672-0.2363-0.6289-0.2363c-0.2578,0-0.4785,0.0894-0.6611,0.2686c-0.1836,0.1792-0.2939,0.4404-0.334,0.7842
				l-1.3926-0.2363c0.0967-0.4761,0.2432-0.8569,0.4385-1.1411c0.1953-0.2852,0.4678-0.5088,0.8174-0.6719
				c0.3496-0.1626,0.7412-0.2441,1.1748-0.2441c0.7422,0,1.3369,0.2363,1.7852,0.709c0.3691,0.3867,0.5537,0.8237,0.5537,1.3105
				c0,0.6909-0.3779,1.2427-1.1348,1.6543c0.4521,0.0967,0.8125,0.3135,1.084,0.6499c0.2705,0.3364,0.4053,0.7432,0.4053,1.2192
				c0,0.6909-0.2529,1.2803-0.7578,1.7671c-0.5059,0.4868-1.1348,0.73-1.8877,0.73c-0.7129,0-1.3047-0.2046-1.7734-0.6143
				C286.2391,14.524,285.9667,13.9878,285.8915,13.3252z"/>
		</g>
	</g>
</g>
<g id="Sign_up_for_energy__xF00C__xA0___x0D_">
	<g>
		<path fill="#646361" d="M10.0619,55.1089l0.5054,0.1279c-0.106,0.415-0.2964,0.7314-0.5718,0.9492
			c-0.2749,0.2178-0.6113,0.3271-1.0088,0.3271c-0.4116,0-0.7461-0.084-1.0039-0.252c-0.2578-0.167-0.4541-0.4102-0.5889-0.7275
			c-0.1343-0.3174-0.2017-0.6592-0.2017-1.0234c0-0.3975,0.0757-0.7441,0.228-1.04c0.1519-0.2959,0.3677-0.5215,0.6484-0.6748
			c0.2803-0.1533,0.5889-0.2305,0.9258-0.2305c0.3818,0,0.7031,0.0977,0.9634,0.292s0.4419,0.4678,0.5444,0.8203l-0.4976,0.1172
			c-0.0884-0.2783-0.2173-0.4805-0.3853-0.6074c-0.1685-0.126-0.3804-0.1895-0.6357-0.1895c-0.2935,0-0.5386,0.0703-0.7354,0.2109
			c-0.1973,0.1406-0.3359,0.3291-0.4155,0.5664c-0.0801,0.2363-0.1196,0.4814-0.1196,0.7324c0,0.3252,0.0469,0.6084,0.1416,0.8506
			s0.2417,0.4229,0.4414,0.543s0.416,0.1797,0.6484,0.1797c0.2832,0,0.5225-0.082,0.7188-0.2451S9.9926,55.4302,10.0619,55.1089z"/>
		<path fill="#646361" d="M11.0766,56.4478v-3.8174h0.4688v1.3691c0.2188-0.2529,0.4946-0.3799,0.8281-0.3799
			c0.2046,0,0.3828,0.04,0.5337,0.1211c0.1514,0.0811,0.2593,0.1924,0.3242,0.335c0.0654,0.1416,0.0977,0.3486,0.0977,0.6191v1.7529
			h-0.4688v-1.7529c0-0.2344-0.0508-0.4043-0.1523-0.5117c-0.1016-0.1064-0.2451-0.1602-0.4307-0.1602
			c-0.1392,0-0.2695,0.0361-0.3921,0.1084s-0.2095,0.1699-0.2617,0.293s-0.0781,0.293-0.0781,0.5107v1.5127H11.0766z"/>
		<path fill="#646361" d="M13.8148,55.065c0-0.5117,0.1421-0.8916,0.4268-1.1377c0.2378-0.2051,0.5278-0.3076,0.8701-0.3076
			c0.3799,0,0.6909,0.125,0.9321,0.374s0.3618,0.5928,0.3618,1.0322c0,0.3555-0.0532,0.6357-0.1602,0.8398
			c-0.1064,0.2041-0.2622,0.3623-0.4658,0.4756c-0.2041,0.1123-0.4268,0.1689-0.668,0.1689c-0.3872,0-0.7002-0.124-0.939-0.3721
			C13.934,55.8892,13.8148,55.5318,13.8148,55.065z M14.2963,55.065c0,0.3545,0.0771,0.6191,0.2319,0.7959
			c0.1543,0.1758,0.3491,0.2637,0.5835,0.2637c0.2324,0,0.4258-0.0879,0.5806-0.2656c0.1543-0.1768,0.2319-0.4463,0.2319-0.8096
			c0-0.3418-0.0781-0.6016-0.2334-0.7773s-0.3486-0.2646-0.5791-0.2646c-0.2344,0-0.4292,0.0879-0.5835,0.2637
			C14.3734,54.4459,14.2963,54.7105,14.2963,55.065z"/>
		<path fill="#646361" d="M16.7279,55.065c0-0.5117,0.1421-0.8916,0.4268-1.1377c0.2378-0.2051,0.5278-0.3076,0.8701-0.3076
			c0.3799,0,0.6909,0.125,0.9321,0.374s0.3618,0.5928,0.3618,1.0322c0,0.3555-0.0532,0.6357-0.1602,0.8398
			c-0.1064,0.2041-0.2622,0.3623-0.4658,0.4756c-0.2041,0.1123-0.4268,0.1689-0.668,0.1689c-0.3872,0-0.7002-0.124-0.939-0.3721
			C16.8471,55.8892,16.7279,55.5318,16.7279,55.065z M17.2094,55.065c0,0.3545,0.0771,0.6191,0.2319,0.7959
			c0.1543,0.1758,0.3491,0.2637,0.5835,0.2637c0.2324,0,0.4258-0.0879,0.5806-0.2656c0.1543-0.1768,0.2319-0.4463,0.2319-0.8096
			c0-0.3418-0.0781-0.6016-0.2334-0.7773s-0.3486-0.2646-0.5791-0.2646c-0.2344,0-0.4292,0.0879-0.5835,0.2637
			C17.2865,54.4459,17.2094,54.7105,17.2094,55.065z"/>
		<path fill="#646361" d="M19.6273,55.6226l0.4634-0.0732c0.0264,0.1855,0.0986,0.3281,0.2178,0.4268
			c0.1187,0.0996,0.2852,0.1484,0.4985,0.1484c0.2153,0,0.375-0.0439,0.479-0.1309c0.1045-0.0879,0.1563-0.1904,0.1563-0.3086
			c0-0.1064-0.0459-0.1895-0.1377-0.25c-0.0645-0.042-0.2241-0.0947-0.4795-0.1592c-0.3438-0.0869-0.582-0.1621-0.7148-0.2256
			s-0.2334-0.1504-0.3018-0.2627c-0.0688-0.1123-0.103-0.2354-0.103-0.3711c0-0.123,0.0283-0.2373,0.0845-0.3428
			c0.0566-0.1045,0.1333-0.1924,0.2305-0.2617c0.0732-0.0537,0.1724-0.0986,0.2983-0.1367c0.126-0.0371,0.2607-0.0557,0.4048-0.0557
			c0.2173,0,0.4077,0.0313,0.5718,0.0938s0.2852,0.1475,0.3633,0.2539s0.1318,0.25,0.1616,0.4287l-0.4585,0.0625
			c-0.021-0.1426-0.0811-0.2539-0.1812-0.334c-0.0996-0.0791-0.2407-0.1191-0.4229-0.1191c-0.2153,0-0.3691,0.0352-0.4609,0.1064
			c-0.0923,0.0713-0.1382,0.1543-0.1382,0.25c0,0.0605,0.019,0.1152,0.0571,0.1641c0.0381,0.0508,0.0981,0.0918,0.1797,0.125
			c0.0469,0.0176,0.1851,0.0576,0.4141,0.1201c0.3315,0.0879,0.563,0.1611,0.6943,0.2168c0.1309,0.0566,0.2339,0.1387,0.3086,0.2461
			c0.0742,0.1084,0.1118,0.2412,0.1118,0.4014c0,0.1563-0.0454,0.3037-0.1367,0.4414s-0.2227,0.2451-0.3945,0.3203
			s-0.3662,0.1133-0.5835,0.1133c-0.3594,0-0.6333-0.0742-0.8213-0.2236C19.7997,56.1373,19.6796,55.9156,19.6273,55.6226z"/>
		<path fill="#646361" d="M24.3212,55.5572l0.4844,0.0596c-0.0762,0.2832-0.2178,0.5029-0.4243,0.6592s-0.4707,0.2344-0.7915,0.2344
			c-0.4048,0-0.7256-0.125-0.9624-0.374s-0.3555-0.5986-0.3555-1.0479c0-0.4648,0.1196-0.8262,0.3594-1.083
			s0.5503-0.3857,0.9321-0.3857c0.3701,0,0.6719,0.126,0.9063,0.3779c0.2344,0.251,0.3516,0.6055,0.3516,1.0625
			c0,0.0273-0.001,0.0693-0.0024,0.125h-2.0625c0.0171,0.3037,0.103,0.5361,0.2578,0.6973
			c0.1543,0.1621,0.3472,0.2422,0.5781,0.2422c0.1719,0,0.3184-0.0449,0.4399-0.1348
			C24.1537,55.899,24.2499,55.7554,24.3212,55.5572z M22.7821,54.7994h1.5444c-0.021-0.2324-0.0801-0.4072-0.1772-0.5234
			c-0.1494-0.1807-0.3428-0.2705-0.5806-0.2705c-0.2153,0-0.3965,0.0713-0.543,0.2158
			C22.8788,54.3658,22.7977,54.5582,22.7821,54.7994z"/>
		<path fill="#646361" d="M26.7484,57.5132l-0.0518-0.4404c0.1021,0.0273,0.1914,0.042,0.2681,0.042
			c0.104,0,0.1875-0.0176,0.25-0.0527c0.0625-0.0342,0.1138-0.083,0.1538-0.1455c0.0293-0.0469,0.0771-0.1631,0.1431-0.3486
			c0.0088-0.0264,0.0225-0.0645,0.0415-0.1152l-1.0493-2.7705h0.5054l0.5752,1.6016c0.0747,0.2031,0.1416,0.417,0.2007,0.6406
			c0.0537-0.2148,0.1182-0.4258,0.1929-0.6299l0.5908-1.6123h0.4688l-1.0518,2.8125c-0.1133,0.3037-0.2007,0.5127-0.2632,0.6279
			c-0.0835,0.1543-0.1787,0.2676-0.2866,0.3398c-0.1074,0.0713-0.2358,0.1074-0.3853,0.1074
			C26.9603,57.5699,26.8598,57.5513,26.7484,57.5132z"/>
		<path fill="#646361" d="M29.2084,55.065c0-0.5117,0.1421-0.8916,0.4268-1.1377c0.2378-0.2051,0.5278-0.3076,0.8701-0.3076
			c0.3799,0,0.6909,0.125,0.9321,0.374s0.3618,0.5928,0.3618,1.0322c0,0.3555-0.0532,0.6357-0.1602,0.8398
			c-0.1064,0.2041-0.2622,0.3623-0.4658,0.4756c-0.2041,0.1123-0.4268,0.1689-0.668,0.1689c-0.3872,0-0.7002-0.124-0.939-0.3721
			C29.3275,55.8892,29.2084,55.5318,29.2084,55.065z M29.6898,55.065c0,0.3545,0.0771,0.6191,0.2319,0.7959
			c0.1543,0.1758,0.3491,0.2637,0.5835,0.2637c0.2324,0,0.4258-0.0879,0.5806-0.2656c0.1543-0.1768,0.2319-0.4463,0.2319-0.8096
			c0-0.3418-0.0781-0.6016-0.2334-0.7773s-0.3486-0.2646-0.5791-0.2646c-0.2344,0-0.4292,0.0879-0.5835,0.2637
			C29.767,54.4459,29.6898,54.7105,29.6898,55.065z"/>
		<path fill="#646361" d="M34.1078,56.4478v-0.4063c-0.2153,0.3125-0.5078,0.4688-0.8774,0.4688
			c-0.1636,0-0.3159-0.0313-0.457-0.0938c-0.1416-0.0625-0.2466-0.1406-0.3154-0.2354c-0.0684-0.0947-0.1167-0.2109-0.1445-0.3477
			c-0.019-0.0928-0.0283-0.2383-0.0283-0.4375v-1.7139h0.4688v1.5342c0,0.2441,0.0093,0.4092,0.0283,0.4941
			c0.0298,0.124,0.0923,0.2207,0.1875,0.291c0.0957,0.0703,0.2139,0.1055,0.3545,0.1055s0.2725-0.0361,0.3955-0.1084
			c0.1235-0.0723,0.2104-0.1699,0.2617-0.2939s0.0771-0.3047,0.0771-0.541v-1.4814h0.4688v2.7656H34.1078z"/>
		<path fill="#646361" d="M35.203,56.4478v-2.7656h0.4219v0.4189c0.1079-0.1963,0.207-0.3252,0.2983-0.3877
			s0.1914-0.0938,0.3008-0.0938c0.1577,0,0.3184,0.0508,0.4819,0.1514l-0.1616,0.4346c-0.1147-0.0674-0.229-0.1016-0.3438-0.1016
			c-0.1025,0-0.1943,0.0313-0.2759,0.0928c-0.082,0.0615-0.1401,0.1465-0.1748,0.2559c-0.0518,0.167-0.0781,0.3496-0.0781,0.5469
			v1.4482H35.203z"/>
		<path fill="#646361" d="M38.3593,56.4478v-2.7656h0.4219v0.3936c0.2031-0.3037,0.4966-0.4561,0.8804-0.4561
			c0.1665,0,0.3198,0.0303,0.4595,0.0898s0.2441,0.1387,0.314,0.2354c0.0693,0.0977,0.1177,0.2129,0.1455,0.3467
			c0.0176,0.0869,0.0264,0.2383,0.0264,0.4561v1.7002h-0.4688v-1.6826c0-0.1904-0.0186-0.333-0.0547-0.4277
			c-0.0366-0.0947-0.1016-0.1709-0.1943-0.2266c-0.0928-0.0566-0.2017-0.085-0.3267-0.085c-0.1997,0-0.3721,0.0635-0.5171,0.1904
			c-0.145,0.126-0.2173,0.3672-0.2173,0.7207v1.5107H38.3593z"/>
		<path fill="#646361" d="M43.1654,55.5572l0.4844,0.0596c-0.0762,0.2832-0.2178,0.5029-0.4243,0.6592s-0.4707,0.2344-0.7915,0.2344
			c-0.4048,0-0.7256-0.125-0.9624-0.374s-0.3555-0.5986-0.3555-1.0479c0-0.4648,0.1196-0.8262,0.3594-1.083
			s0.5503-0.3857,0.9321-0.3857c0.3701,0,0.6719,0.126,0.9063,0.3779c0.2344,0.251,0.3516,0.6055,0.3516,1.0625
			c0,0.0273-0.001,0.0693-0.0024,0.125h-2.0625c0.0171,0.3037,0.103,0.5361,0.2578,0.6973
			c0.1543,0.1621,0.3472,0.2422,0.5781,0.2422c0.1719,0,0.3184-0.0449,0.4399-0.1348
			C42.9979,55.899,43.0941,55.7554,43.1654,55.5572z M41.6264,54.7994h1.5444c-0.021-0.2324-0.0801-0.4072-0.1772-0.5234
			c-0.1494-0.1807-0.3428-0.2705-0.5806-0.2705c-0.2153,0-0.3965,0.0713-0.543,0.2158
			C41.723,54.3658,41.642,54.5582,41.6264,54.7994z"/>
		<path fill="#646361" d="M44.6952,56.4478l-0.8462-2.7656h0.4844l0.4399,1.5967l0.1641,0.5938
			c0.0068-0.0303,0.0547-0.2197,0.1436-0.5703l0.4399-1.6201h0.4819l0.4141,1.6045l0.1377,0.5283l0.1592-0.5342l0.4736-1.5986
			h0.4561l-0.8647,2.7656h-0.4868l-0.4404-1.6563l-0.1064-0.4717l-0.5601,2.1279H44.6952z"/>
		<path fill="#646361" d="M50.435,56.0289l0.0679,0.4141c-0.1323,0.0273-0.25,0.041-0.3545,0.041
			c-0.1699,0-0.3018-0.0264-0.3955-0.0801s-0.1602-0.125-0.1982-0.2129c-0.0381-0.0869-0.0571-0.2715-0.0571-0.5527v-1.5918h-0.3438
			v-0.3643h0.3438v-0.6846l0.4663-0.2813v0.9658h0.4712v0.3643h-0.4712v1.6172c0,0.1338,0.0078,0.2197,0.0244,0.2578
			s0.0435,0.0693,0.0811,0.0918c0.0371,0.0225,0.0903,0.0332,0.1602,0.0332C50.2811,56.0464,50.35,56.0406,50.435,56.0289z"/>
		<path fill="#646361" d="M52.6449,56.107c-0.1738,0.1475-0.3408,0.251-0.5015,0.3125c-0.1606,0.0605-0.333,0.0908-0.5166,0.0908
			c-0.3042,0-0.5376-0.0742-0.7007-0.2227s-0.2446-0.3379-0.2446-0.5693c0-0.1348,0.0308-0.2588,0.0923-0.3711
			c0.0615-0.1113,0.1421-0.2012,0.2422-0.2695c0.0996-0.0674,0.2124-0.1182,0.3374-0.1533
			c0.0918-0.0244,0.2305-0.0479,0.4165-0.0703c0.3784-0.0449,0.6572-0.0986,0.8359-0.1611c0.0015-0.0645,0.0024-0.1055,0.0024-0.123
			c0-0.1904-0.0439-0.3252-0.1328-0.4033c-0.1196-0.1055-0.2979-0.1592-0.5337-0.1592c-0.2207,0-0.3833,0.0391-0.4883,0.1162
			s-0.1826,0.2139-0.2329,0.4102l-0.4585-0.0625c0.0415-0.1963,0.1104-0.3545,0.2056-0.4756
			c0.0957-0.1201,0.2334-0.2129,0.4141-0.2783s0.3896-0.0977,0.6279-0.0977c0.2358,0,0.4277,0.0273,0.5752,0.083
			s0.2563,0.126,0.3257,0.21s0.1182,0.1904,0.146,0.3193c0.0156,0.0791,0.0234,0.2236,0.0234,0.4316v0.625
			c0,0.4365,0.0098,0.7119,0.0298,0.8271s0.0596,0.2266,0.1187,0.332h-0.4897C52.6898,56.3502,52.6586,56.2369,52.6449,56.107z
			 M52.6059,55.0601c-0.1704,0.0693-0.4253,0.1279-0.7656,0.1768c-0.1929,0.0273-0.3291,0.0586-0.4087,0.0938
			c-0.0801,0.0352-0.1416,0.0859-0.1851,0.1523s-0.0649,0.1406-0.0649,0.2227c0,0.125,0.0469,0.2295,0.1416,0.3125
			s0.2334,0.125,0.4155,0.125c0.1807,0,0.3413-0.0391,0.4819-0.1182s0.2437-0.1875,0.3096-0.3242
			c0.0503-0.1064,0.0757-0.2627,0.0757-0.4688V55.0601z"/>
		<path fill="#646361" d="M53.7475,56.4478v-2.7656h0.4219v0.4189c0.1079-0.1963,0.207-0.3252,0.2983-0.3877
			s0.1914-0.0938,0.3008-0.0938c0.1577,0,0.3184,0.0508,0.4819,0.1514l-0.1616,0.4346c-0.1147-0.0674-0.229-0.1016-0.3438-0.1016
			c-0.1025,0-0.1943,0.0313-0.2759,0.0928c-0.082,0.0615-0.1401,0.1465-0.1748,0.2559c-0.0518,0.167-0.0781,0.3496-0.0781,0.5469
			v1.4482H53.7475z"/>
		<path fill="#646361" d="M55.4779,53.1695v-0.5391h0.4688v0.5391H55.4779z M55.4779,56.4478v-2.7656h0.4688v2.7656H55.4779z"/>
		<path fill="#646361" d="M56.7191,56.4478v-2.4014h-0.4141v-0.3643h0.4141v-0.2939c0-0.1865,0.0166-0.3242,0.0498-0.4141
			c0.0449-0.1221,0.1245-0.2207,0.2383-0.2959c0.1133-0.0752,0.2729-0.1133,0.4775-0.1133c0.1318,0,0.2778,0.0156,0.4375,0.0469
			l-0.0703,0.4092c-0.0972-0.0176-0.189-0.0264-0.2759-0.0264c-0.1426,0-0.2432,0.0303-0.3022,0.0908
			c-0.0591,0.0615-0.0884,0.1748-0.0884,0.3418v0.2549h0.5391v0.3643h-0.5391v2.4014H56.7191z"/>
		<path fill="#646361" d="M58.0512,56.4478v-2.4014h-0.4141v-0.3643h0.4141v-0.2939c0-0.1865,0.0166-0.3242,0.0498-0.4141
			c0.0449-0.1221,0.1245-0.2207,0.2383-0.2959c0.1133-0.0752,0.2729-0.1133,0.4775-0.1133c0.1318,0,0.2778,0.0156,0.4375,0.0469
			L59.184,53.021c-0.0972-0.0176-0.189-0.0264-0.2759-0.0264c-0.1426,0-0.2432,0.0303-0.3022,0.0908
			c-0.0591,0.0615-0.0884,0.1748-0.0884,0.3418v0.2549h0.5391v0.3643h-0.5391v2.4014H58.0512z"/>
	</g>
	<g>
		<path fill="#549F00" d="M67.0235,53.7642l-2.1543,2.1543l-0.4048,0.4043c-0.0532,0.0537-0.1279,0.083-0.2021,0.083
			s-0.1489-0.0293-0.2021-0.083l-0.4048-0.4043l-1.0771-1.0771c-0.0537-0.0537-0.0835-0.1279-0.0835-0.2021
			c0-0.0752,0.0298-0.1494,0.0835-0.2031l0.4048-0.4043c0.0532-0.0537,0.1279-0.083,0.2021-0.083s0.1489,0.0293,0.2021,0.083
			l0.875,0.8779l1.9521-1.9551c0.0532-0.0537,0.1279-0.083,0.2021-0.083s0.1489,0.0293,0.2021,0.083l0.4048,0.4043
			c0.0537,0.0537,0.0835,0.1279,0.0835,0.2031C67.107,53.6363,67.0772,53.7105,67.0235,53.7642z"/>
	</g>
</g>
</svg>
